<svg width="4032" height="2268" viewBox="0 0 4032 2268" fill="none" xmlns="http://www.w3.org/2000/svg">
<g clip-path="url(#clip0_9_114)">
<g clip-path="url(#clip1_9_114)">
<circle cx="2016.43" cy="2339.43" r="1856.43" stroke="#E5B300" stroke-width="30"/>
<circle cx="2052.89" cy="2313.28" r="1299.13" stroke="#E5B300" stroke-width="30" stroke-linecap="round" stroke-dasharray="47.86 47.86"/>
<path d="M1821.49 661.636C1821.49 669.402 1820.07 676.078 1817.23 681.665C1814.39 687.228 1810.5 691.513 1805.55 694.52C1800.63 697.503 1795.03 698.994 1788.75 698.994C1782.46 698.994 1776.83 697.503 1771.89 694.52C1766.96 691.513 1763.08 687.216 1760.24 681.629C1757.4 676.042 1755.98 669.378 1755.98 661.636C1755.98 653.871 1757.4 647.207 1760.24 641.643C1763.08 636.056 1766.96 631.771 1771.89 628.788C1776.83 625.782 1782.46 624.278 1788.75 624.278C1795.03 624.278 1800.63 625.782 1805.55 628.788C1810.5 631.771 1814.39 636.056 1817.23 641.643C1820.07 647.207 1821.49 653.871 1821.49 661.636ZM1810.63 661.636C1810.63 655.718 1809.67 650.734 1807.75 646.686C1805.86 642.614 1803.25 639.536 1799.94 637.453C1796.65 635.346 1792.92 634.293 1788.75 634.293C1784.56 634.293 1780.82 635.346 1777.53 637.453C1774.24 639.536 1771.64 642.614 1769.72 646.686C1767.83 650.734 1766.88 655.718 1766.88 661.636C1766.88 667.555 1767.83 672.55 1769.72 676.622C1771.64 680.67 1774.24 683.748 1777.53 685.855C1780.82 687.938 1784.56 688.98 1788.75 688.98C1792.92 688.98 1796.65 687.938 1799.94 685.855C1803.25 683.748 1805.86 680.67 1807.75 676.622C1809.67 672.55 1810.63 667.555 1810.63 661.636ZM1833.82 698V643.455H1844.09V652.119H1844.65C1845.65 649.184 1847.4 646.875 1849.91 645.195C1852.44 643.49 1855.31 642.638 1858.5 642.638C1859.17 642.638 1859.95 642.661 1860.85 642.709C1861.77 642.756 1862.49 642.815 1863.01 642.886V653.043C1862.59 652.924 1861.83 652.794 1860.74 652.652C1859.65 652.486 1858.56 652.403 1857.47 652.403C1854.96 652.403 1852.73 652.936 1850.76 654.001C1848.82 655.043 1847.28 656.499 1846.15 658.369C1845.01 660.216 1844.44 662.323 1844.44 664.69V698H1833.82ZM1892.62 719.591C1888.29 719.591 1884.56 719.023 1881.43 717.886C1878.33 716.75 1875.8 715.247 1873.83 713.376C1871.87 711.506 1870.4 709.458 1869.43 707.233L1878.56 703.469C1879.2 704.51 1880.05 705.611 1881.11 706.771C1882.2 707.955 1883.67 708.961 1885.52 709.79C1887.39 710.618 1889.79 711.033 1892.72 711.033C1896.75 711.033 1900.08 710.05 1902.7 708.085C1905.33 706.144 1906.65 703.043 1906.65 698.781V688.057H1905.97C1905.33 689.217 1904.41 690.507 1903.2 691.928C1902.02 693.348 1900.38 694.579 1898.3 695.621C1896.22 696.662 1893.51 697.183 1890.17 697.183C1885.86 697.183 1881.98 696.177 1878.52 694.165C1875.09 692.129 1872.37 689.134 1870.35 685.18C1868.36 681.203 1867.37 676.314 1867.37 670.514C1867.37 664.714 1868.35 659.742 1870.32 655.599C1872.31 651.456 1875.03 648.284 1878.48 646.082C1881.94 643.857 1885.86 642.744 1890.24 642.744C1893.62 642.744 1896.36 643.312 1898.44 644.449C1900.53 645.562 1902.15 646.864 1903.31 648.355C1904.49 649.847 1905.4 651.161 1906.04 652.297H1906.82V643.455H1917.23V699.207C1917.23 703.895 1916.14 707.742 1913.96 710.749C1911.78 713.755 1908.84 715.981 1905.12 717.425C1901.43 718.869 1897.26 719.591 1892.62 719.591ZM1892.51 688.376C1895.57 688.376 1898.15 687.666 1900.25 686.246C1902.38 684.802 1903.99 682.742 1905.08 680.067C1906.2 677.368 1906.75 674.136 1906.75 670.372C1906.75 666.703 1906.21 663.471 1905.12 660.678C1904.03 657.884 1902.43 655.706 1900.32 654.143C1898.22 652.557 1895.61 651.764 1892.51 651.764C1889.32 651.764 1886.65 652.593 1884.52 654.25C1882.39 655.884 1880.78 658.109 1879.69 660.926C1878.63 663.743 1878.09 666.892 1878.09 670.372C1878.09 673.947 1878.64 677.084 1879.73 679.783C1880.82 682.482 1882.43 684.589 1884.56 686.104C1886.71 687.619 1889.36 688.376 1892.51 688.376ZM1946.84 699.207C1943.39 699.207 1940.26 698.568 1937.47 697.29C1934.67 695.988 1932.46 694.106 1930.83 691.643C1929.22 689.181 1928.41 686.163 1928.41 682.588C1928.41 679.51 1929 676.977 1930.19 674.989C1931.37 673 1932.97 671.426 1934.98 670.266C1936.99 669.106 1939.24 668.23 1941.73 667.638C1944.21 667.046 1946.75 666.596 1949.33 666.288C1952.59 665.91 1955.25 665.602 1957.28 665.365C1959.32 665.105 1960.8 664.69 1961.72 664.122C1962.64 663.554 1963.11 662.631 1963.11 661.352V661.104C1963.11 658.002 1962.23 655.599 1960.48 653.895C1958.75 652.19 1956.17 651.338 1952.74 651.338C1949.16 651.338 1946.34 652.131 1944.28 653.717C1942.25 655.28 1940.84 657.02 1940.06 658.938L1930.08 656.665C1931.26 653.35 1932.99 650.675 1935.26 648.639C1937.56 646.58 1940.2 645.088 1943.18 644.165C1946.17 643.218 1949.3 642.744 1952.59 642.744C1954.77 642.744 1957.08 643.005 1959.52 643.526C1961.98 644.023 1964.28 644.946 1966.41 646.295C1968.56 647.645 1970.33 649.574 1971.7 652.084C1973.07 654.57 1973.76 657.801 1973.76 661.778V698H1963.39V690.543H1962.96C1962.28 691.916 1961.25 693.265 1959.87 694.591C1958.5 695.917 1956.74 697.018 1954.58 697.893C1952.43 698.769 1949.85 699.207 1946.84 699.207ZM1949.15 690.685C1952.09 690.685 1954.59 690.105 1956.68 688.945C1958.79 687.785 1960.38 686.269 1961.47 684.399C1962.58 682.505 1963.14 680.481 1963.14 678.327V671.295C1962.76 671.674 1962.03 672.029 1960.94 672.361C1959.87 672.669 1958.65 672.941 1957.28 673.178C1955.91 673.391 1954.57 673.592 1953.27 673.781C1951.97 673.947 1950.88 674.089 1950 674.207C1947.94 674.468 1946.06 674.906 1944.36 675.521C1942.67 676.137 1941.33 677.025 1940.31 678.185C1939.31 679.321 1938.82 680.836 1938.82 682.73C1938.82 685.358 1939.79 687.347 1941.73 688.696C1943.67 690.022 1946.14 690.685 1949.15 690.685ZM1998.02 665.614V698H1987.4V643.455H1997.59V652.332H1998.27C1999.52 649.444 2001.49 647.124 2004.16 645.372C2006.86 643.62 2010.26 642.744 2014.35 642.744C2018.07 642.744 2021.33 643.526 2024.12 645.088C2026.91 646.627 2029.08 648.923 2030.62 651.977C2032.16 655.031 2032.93 658.807 2032.93 663.305V698H2022.31V664.584C2022.31 660.63 2021.28 657.541 2019.22 655.315C2017.16 653.066 2014.33 651.942 2010.73 651.942C2008.27 651.942 2006.08 652.474 2004.16 653.54C2002.27 654.605 2000.77 656.168 1999.65 658.227C1998.56 660.263 1998.02 662.725 1998.02 665.614ZM2046.67 698V643.455H2057.28V698H2046.67ZM2052.03 635.038C2050.18 635.038 2048.6 634.423 2047.27 633.192C2045.97 631.937 2045.32 630.446 2045.32 628.717C2045.32 626.965 2045.97 625.474 2047.27 624.243C2048.6 622.988 2050.18 622.361 2052.03 622.361C2053.88 622.361 2055.45 622.988 2056.75 624.243C2058.08 625.474 2058.74 626.965 2058.74 628.717C2058.74 630.446 2058.08 631.937 2056.75 633.192C2055.45 634.423 2053.88 635.038 2052.03 635.038ZM2069.93 698V690.72L2099.48 653.185V652.688H2070.89V643.455H2112.72V651.196L2084.32 688.27V688.767H2113.72V698H2069.93ZM2141.62 699.207C2138.16 699.207 2135.04 698.568 2132.24 697.29C2129.45 695.988 2127.24 694.106 2125.6 691.643C2123.99 689.181 2123.19 686.163 2123.19 682.588C2123.19 679.51 2123.78 676.977 2124.96 674.989C2126.15 673 2127.75 671.426 2129.76 670.266C2131.77 669.106 2134.02 668.23 2136.51 667.638C2138.99 667.046 2141.52 666.596 2144.1 666.288C2147.37 665.91 2150.02 665.602 2152.06 665.365C2154.1 665.105 2155.57 664.69 2156.5 664.122C2157.42 663.554 2157.88 662.631 2157.88 661.352V661.104C2157.88 658.002 2157.01 655.599 2155.26 653.895C2153.53 652.19 2150.95 651.338 2147.51 651.338C2143.94 651.338 2141.12 652.131 2139.06 653.717C2137.03 655.28 2135.62 657.02 2134.84 658.938L2124.86 656.665C2126.04 653.35 2127.77 650.675 2130.04 648.639C2132.34 646.58 2134.98 645.088 2137.96 644.165C2140.94 643.218 2144.08 642.744 2147.37 642.744C2149.55 642.744 2151.86 643.005 2154.3 643.526C2156.76 644.023 2159.05 644.946 2161.19 646.295C2163.34 647.645 2165.1 649.574 2166.48 652.084C2167.85 654.57 2168.54 657.801 2168.54 661.778V698H2158.17V690.543H2157.74C2157.05 691.916 2156.02 693.265 2154.65 694.591C2153.28 695.917 2151.51 697.018 2149.36 697.893C2147.21 698.769 2144.63 699.207 2141.62 699.207ZM2143.93 690.685C2146.86 690.685 2149.37 690.105 2151.46 688.945C2153.56 687.785 2155.16 686.269 2156.25 684.399C2157.36 682.505 2157.92 680.481 2157.92 678.327V671.295C2157.54 671.674 2156.81 672.029 2155.72 672.361C2154.65 672.669 2153.43 672.941 2152.06 673.178C2150.69 673.391 2149.35 673.592 2148.05 673.781C2146.74 673.947 2145.66 674.089 2144.78 674.207C2142.72 674.468 2140.84 674.906 2139.13 675.521C2137.45 676.137 2136.1 677.025 2135.08 678.185C2134.09 679.321 2133.59 680.836 2133.59 682.73C2133.59 685.358 2134.56 687.347 2136.51 688.696C2138.45 690.022 2140.92 690.685 2143.93 690.685ZM2207.64 643.455V651.977H2177.85V643.455H2207.64ZM2185.84 630.386H2196.45V681.984C2196.45 684.044 2196.76 685.595 2197.38 686.636C2197.99 687.654 2198.79 688.353 2199.76 688.732C2200.75 689.087 2201.83 689.264 2202.99 689.264C2203.84 689.264 2204.59 689.205 2205.23 689.087C2205.86 688.968 2206.36 688.874 2206.72 688.803L2208.63 697.574C2208.02 697.811 2207.14 698.047 2206.01 698.284C2204.87 698.545 2203.45 698.687 2201.75 698.71C2198.95 698.758 2196.35 698.26 2193.93 697.219C2191.52 696.177 2189.57 694.567 2188.07 692.389C2186.58 690.211 2185.84 687.477 2185.84 684.186V630.386ZM2218.89 698V643.455H2229.5V698H2218.89ZM2224.25 635.038C2222.4 635.038 2220.82 634.423 2219.49 633.192C2218.19 631.937 2217.54 630.446 2217.54 628.717C2217.54 626.965 2218.19 625.474 2219.49 624.243C2220.82 622.988 2222.4 622.361 2224.25 622.361C2226.09 622.361 2227.67 622.988 2228.97 624.243C2230.3 625.474 2230.96 626.965 2230.96 628.717C2230.96 630.446 2230.3 631.937 2228.97 633.192C2227.67 634.423 2226.09 635.038 2224.25 635.038ZM2266.26 699.101C2261.15 699.101 2256.69 697.929 2252.88 695.585C2249.06 693.241 2246.11 689.963 2244 685.749C2241.89 681.535 2240.84 676.61 2240.84 670.976C2240.84 665.318 2241.89 660.37 2244 656.132C2246.11 651.894 2249.06 648.604 2252.88 646.26C2256.69 643.916 2261.15 642.744 2266.26 642.744C2271.38 642.744 2275.84 643.916 2279.65 646.26C2283.46 648.604 2286.42 651.894 2288.53 656.132C2290.64 660.37 2291.69 665.318 2291.69 670.976C2291.69 676.61 2290.64 681.535 2288.53 685.749C2286.42 689.963 2283.46 693.241 2279.65 695.585C2275.84 697.929 2271.38 699.101 2266.26 699.101ZM2266.3 690.188C2269.61 690.188 2272.36 689.312 2274.54 687.56C2276.72 685.808 2278.33 683.476 2279.37 680.564C2280.43 677.652 2280.97 674.444 2280.97 670.94C2280.97 667.46 2280.43 664.264 2279.37 661.352C2278.33 658.417 2276.72 656.061 2274.54 654.286C2272.36 652.51 2269.61 651.622 2266.3 651.622C2262.96 651.622 2260.19 652.51 2257.99 654.286C2255.81 656.061 2254.19 658.417 2253.12 661.352C2252.08 664.264 2251.56 667.46 2251.56 670.94C2251.56 674.444 2252.08 677.652 2253.12 680.564C2254.19 683.476 2255.81 685.808 2257.99 687.56C2260.19 689.312 2262.96 690.188 2266.3 690.188ZM2313.66 665.614V698H2303.04V643.455H2313.23V652.332H2313.91C2315.16 649.444 2317.13 647.124 2319.8 645.372C2322.5 643.62 2325.9 642.744 2330 642.744C2333.71 642.744 2336.97 643.526 2339.76 645.088C2342.55 646.627 2344.72 648.923 2346.26 651.977C2347.8 655.031 2348.57 658.807 2348.57 663.305V698H2337.95V664.584C2337.95 660.63 2336.92 657.541 2334.86 655.315C2332.8 653.066 2329.97 651.942 2326.37 651.942C2323.91 651.942 2321.72 652.474 2319.8 653.54C2317.91 654.605 2316.41 656.168 2315.29 658.227C2314.2 660.263 2313.66 662.725 2313.66 665.614Z" fill="#146199"/>
<path d="M1800.6 1198H1777.06V1125.27H1801.35C1808.47 1125.27 1814.59 1126.73 1819.71 1129.64C1824.82 1132.53 1828.74 1136.68 1831.46 1142.11C1834.21 1147.5 1835.58 1153.98 1835.58 1161.53C1835.58 1169.11 1834.2 1175.62 1831.43 1181.06C1828.68 1186.51 1824.7 1190.7 1819.49 1193.63C1814.29 1196.54 1807.99 1198 1800.6 1198ZM1788.03 1188.41H1800C1805.54 1188.41 1810.14 1187.37 1813.81 1185.29C1817.48 1183.18 1820.23 1180.14 1822.05 1176.16C1823.87 1172.16 1824.79 1167.28 1824.79 1161.53C1824.79 1155.82 1823.87 1150.98 1822.05 1147.01C1820.25 1143.03 1817.57 1140.01 1813.99 1137.95C1810.42 1135.89 1805.98 1134.86 1800.67 1134.86H1788.03V1188.41ZM1871.38 1199.1C1866.01 1199.1 1861.38 1197.95 1857.5 1195.66C1853.64 1193.34 1850.66 1190.08 1848.55 1185.89C1846.47 1181.68 1845.42 1176.74 1845.42 1171.08C1845.42 1165.5 1846.47 1160.57 1848.55 1156.31C1850.66 1152.05 1853.59 1148.72 1857.36 1146.33C1861.14 1143.94 1865.57 1142.74 1870.64 1142.74C1873.71 1142.74 1876.7 1143.25 1879.59 1144.27C1882.47 1145.29 1885.07 1146.89 1887.36 1149.07C1889.66 1151.24 1891.47 1154.07 1892.8 1157.55C1894.12 1161.01 1894.78 1165.21 1894.78 1170.16V1173.92H1851.43V1165.97H1884.38C1884.38 1163.18 1883.81 1160.7 1882.68 1158.55C1881.54 1156.37 1879.94 1154.65 1877.88 1153.4C1875.85 1152.14 1873.45 1151.52 1870.71 1151.52C1867.72 1151.52 1865.12 1152.25 1862.9 1153.72C1860.69 1155.16 1858.99 1157.06 1857.78 1159.4C1856.6 1161.72 1856.01 1164.24 1856.01 1166.96V1173.18C1856.01 1176.82 1856.65 1179.92 1857.92 1182.48C1859.23 1185.04 1861.04 1186.99 1863.36 1188.34C1865.68 1189.67 1868.39 1190.33 1871.49 1190.33C1873.5 1190.33 1875.34 1190.05 1876.99 1189.48C1878.65 1188.89 1880.08 1188.01 1881.29 1186.85C1882.5 1185.69 1883.42 1184.26 1884.06 1182.55L1894.11 1184.36C1893.3 1187.32 1891.86 1189.92 1889.78 1192.14C1887.72 1194.34 1885.13 1196.06 1882 1197.29C1878.9 1198.5 1875.36 1199.1 1871.38 1199.1ZM1906.07 1218.45V1143.45H1916.43V1152.3H1917.32C1917.94 1151.16 1918.83 1149.85 1919.99 1148.36C1921.15 1146.86 1922.76 1145.56 1924.82 1144.45C1926.88 1143.31 1929.6 1142.74 1932.98 1142.74C1937.39 1142.74 1941.32 1143.86 1944.77 1146.08C1948.23 1148.31 1950.94 1151.52 1952.91 1155.71C1954.89 1159.9 1955.89 1164.94 1955.89 1170.83C1955.89 1176.73 1954.91 1181.78 1952.94 1186C1950.98 1190.19 1948.28 1193.42 1944.84 1195.69C1941.41 1197.94 1937.49 1199.07 1933.09 1199.07C1929.78 1199.07 1927.06 1198.51 1924.96 1197.4C1922.87 1196.28 1921.24 1194.98 1920.06 1193.49C1918.87 1192 1917.96 1190.67 1917.32 1189.51H1916.68V1218.45H1906.07ZM1916.47 1170.73C1916.47 1174.56 1917.03 1177.92 1918.14 1180.81C1919.25 1183.7 1920.86 1185.96 1922.97 1187.6C1925.08 1189.21 1927.66 1190.01 1930.71 1190.01C1933.88 1190.01 1936.53 1189.17 1938.66 1187.49C1940.8 1185.78 1942.41 1183.48 1943.49 1180.56C1944.61 1177.65 1945.16 1174.37 1945.16 1170.73C1945.16 1167.13 1944.62 1163.9 1943.53 1161.03C1942.46 1158.17 1940.85 1155.91 1938.7 1154.25C1936.57 1152.59 1933.91 1151.76 1930.71 1151.76C1927.63 1151.76 1925.03 1152.56 1922.9 1154.14C1920.79 1155.73 1919.19 1157.94 1918.1 1160.78C1917.01 1163.62 1916.47 1166.94 1916.47 1170.73ZM1983.16 1199.21C1979.7 1199.21 1976.58 1198.57 1973.78 1197.29C1970.99 1195.99 1968.78 1194.11 1967.14 1191.64C1965.53 1189.18 1964.73 1186.16 1964.73 1182.59C1964.73 1179.51 1965.32 1176.98 1966.5 1174.99C1967.69 1173 1969.28 1171.43 1971.3 1170.27C1973.31 1169.11 1975.56 1168.23 1978.04 1167.64C1980.53 1167.05 1983.06 1166.6 1985.64 1166.29C1988.91 1165.91 1991.56 1165.6 1993.6 1165.37C1995.63 1165.1 1997.11 1164.69 1998.04 1164.12C1998.96 1163.55 1999.42 1162.63 1999.42 1161.35V1161.1C1999.42 1158 1998.55 1155.6 1996.79 1153.89C1995.07 1152.19 1992.49 1151.34 1989.05 1151.34C1985.48 1151.34 1982.66 1152.13 1980.6 1153.72C1978.57 1155.28 1977.16 1157.02 1976.38 1158.94L1966.4 1156.66C1967.58 1153.35 1969.31 1150.68 1971.58 1148.64C1973.88 1146.58 1976.52 1145.09 1979.5 1144.16C1982.48 1143.22 1985.62 1142.74 1988.91 1142.74C1991.09 1142.74 1993.4 1143 1995.84 1143.53C1998.3 1144.02 2000.59 1144.95 2002.72 1146.3C2004.88 1147.64 2006.64 1149.57 2008.02 1152.08C2009.39 1154.57 2010.08 1157.8 2010.08 1161.78V1198H1999.71V1190.54H1999.28C1998.59 1191.92 1997.56 1193.27 1996.19 1194.59C1994.82 1195.92 1993.05 1197.02 1990.9 1197.89C1988.74 1198.77 1986.16 1199.21 1983.16 1199.21ZM1985.47 1190.68C1988.4 1190.68 1990.91 1190.1 1992.99 1188.94C1995.1 1187.78 1996.7 1186.27 1997.79 1184.4C1998.9 1182.51 1999.46 1180.48 1999.46 1178.33V1171.3C1999.08 1171.67 1998.34 1172.03 1997.26 1172.36C1996.19 1172.67 1994.97 1172.94 1993.6 1173.18C1992.23 1173.39 1990.89 1173.59 1989.59 1173.78C1988.28 1173.95 1987.19 1174.09 1986.32 1174.21C1984.26 1174.47 1982.38 1174.91 1980.67 1175.52C1978.99 1176.14 1977.64 1177.02 1976.62 1178.18C1975.63 1179.32 1975.13 1180.84 1975.13 1182.73C1975.13 1185.36 1976.1 1187.35 1978.04 1188.7C1979.99 1190.02 1982.46 1190.68 1985.47 1190.68ZM2023.72 1198V1143.45H2033.98V1152.12H2034.55C2035.54 1149.18 2037.3 1146.88 2039.8 1145.19C2042.34 1143.49 2045.2 1142.64 2048.4 1142.64C2049.06 1142.64 2049.84 1142.66 2050.74 1142.71C2051.67 1142.76 2052.39 1142.82 2052.91 1142.89V1153.04C2052.48 1152.92 2051.72 1152.79 2050.64 1152.65C2049.55 1152.49 2048.46 1152.4 2047.37 1152.4C2044.86 1152.4 2042.62 1152.94 2040.66 1154C2038.72 1155.04 2037.18 1156.5 2036.04 1158.37C2034.9 1160.22 2034.34 1162.32 2034.34 1164.69V1198H2023.72ZM2090.28 1143.45V1151.98H2060.49V1143.45H2090.28ZM2068.48 1130.39H2079.09V1181.98C2079.09 1184.04 2079.4 1185.59 2080.02 1186.64C2080.63 1187.65 2081.43 1188.35 2082.4 1188.73C2083.39 1189.09 2084.47 1189.26 2085.63 1189.26C2086.48 1189.26 2087.23 1189.21 2087.87 1189.09C2088.51 1188.97 2089 1188.87 2089.36 1188.8L2091.28 1197.57C2090.66 1197.81 2089.78 1198.05 2088.65 1198.28C2087.51 1198.54 2086.09 1198.69 2084.39 1198.71C2081.59 1198.76 2078.99 1198.26 2076.57 1197.22C2074.16 1196.18 2072.21 1194.57 2070.71 1192.39C2069.22 1190.21 2068.48 1187.48 2068.48 1184.19V1130.39ZM2101.53 1198V1143.45H2111.72V1152.33H2112.39C2113.53 1149.33 2115.39 1146.98 2117.97 1145.3C2120.55 1143.6 2123.64 1142.74 2127.24 1142.74C2130.88 1142.74 2133.94 1143.6 2136.4 1145.3C2138.88 1147.01 2140.72 1149.35 2141.9 1152.33H2142.47C2143.77 1149.42 2145.84 1147.1 2148.69 1145.37C2151.53 1143.62 2154.91 1142.74 2158.84 1142.74C2163.79 1142.74 2167.83 1144.29 2170.95 1147.4C2174.1 1150.5 2175.67 1155.17 2175.67 1161.42V1198H2165.06V1162.42C2165.06 1158.72 2164.05 1156.05 2162.04 1154.39C2160.03 1152.73 2157.62 1151.91 2154.83 1151.91C2151.37 1151.91 2148.69 1152.97 2146.77 1155.1C2144.85 1157.21 2143.89 1159.92 2143.89 1163.23V1198H2133.31V1161.74C2133.31 1158.78 2132.39 1156.4 2130.54 1154.61C2128.69 1152.81 2126.29 1151.91 2123.33 1151.91C2121.32 1151.91 2119.46 1152.44 2117.76 1153.5C2116.07 1154.55 2114.71 1156 2113.67 1157.87C2112.65 1159.74 2112.14 1161.91 2112.14 1164.37V1198H2101.53ZM2212.91 1199.1C2207.54 1199.1 2202.91 1197.95 2199.03 1195.66C2195.17 1193.34 2192.19 1190.08 2190.08 1185.89C2188 1181.68 2186.96 1176.74 2186.96 1171.08C2186.96 1165.5 2188 1160.57 2190.08 1156.31C2192.19 1152.05 2195.12 1148.72 2198.89 1146.33C2202.67 1143.94 2207.1 1142.74 2212.17 1142.74C2215.25 1142.74 2218.23 1143.25 2221.12 1144.27C2224.01 1145.29 2226.6 1146.89 2228.89 1149.07C2231.19 1151.24 2233 1154.07 2234.33 1157.55C2235.65 1161.01 2236.32 1165.21 2236.32 1170.16V1173.92H2192.96V1165.97H2225.91C2225.91 1163.18 2225.34 1160.7 2224.21 1158.55C2223.07 1156.37 2221.47 1154.65 2219.41 1153.4C2217.38 1152.14 2214.99 1151.52 2212.24 1151.52C2209.26 1151.52 2206.65 1152.25 2204.43 1153.72C2202.22 1155.16 2200.52 1157.06 2199.31 1159.4C2198.13 1161.72 2197.54 1164.24 2197.54 1166.96V1173.18C2197.54 1176.82 2198.18 1179.92 2199.46 1182.48C2200.76 1185.04 2202.57 1186.99 2204.89 1188.34C2207.21 1189.67 2209.92 1190.33 2213.02 1190.33C2215.03 1190.33 2216.87 1190.05 2218.52 1189.48C2220.18 1188.89 2221.61 1188.01 2222.82 1186.85C2224.03 1185.69 2224.95 1184.26 2225.59 1182.55L2235.64 1184.36C2234.84 1187.32 2233.39 1189.92 2231.31 1192.14C2229.25 1194.34 2226.66 1196.06 2223.53 1197.29C2220.43 1198.5 2216.89 1199.1 2212.91 1199.1ZM2258.21 1165.61V1198H2247.6V1143.45H2257.79V1152.33H2258.46C2259.72 1149.44 2261.68 1147.12 2264.36 1145.37C2267.06 1143.62 2270.45 1142.74 2274.55 1142.74C2278.27 1142.74 2281.52 1143.53 2284.32 1145.09C2287.11 1146.63 2289.28 1148.92 2290.81 1151.98C2292.35 1155.03 2293.12 1158.81 2293.12 1163.31V1198H2282.5V1164.58C2282.5 1160.63 2281.47 1157.54 2279.41 1155.32C2277.36 1153.07 2274.53 1151.94 2270.93 1151.94C2268.47 1151.94 2266.28 1152.47 2264.36 1153.54C2262.46 1154.61 2260.96 1156.17 2259.85 1158.23C2258.76 1160.26 2258.21 1162.73 2258.21 1165.61ZM2332.32 1143.45V1151.98H2302.53V1143.45H2332.32ZM2310.52 1130.39H2321.14V1181.98C2321.14 1184.04 2321.45 1185.59 2322.06 1186.64C2322.68 1187.65 2323.47 1188.35 2324.44 1188.73C2325.43 1189.09 2326.51 1189.26 2327.67 1189.26C2328.52 1189.26 2329.27 1189.21 2329.91 1189.09C2330.55 1188.97 2331.05 1188.87 2331.4 1188.8L2333.32 1197.57C2332.7 1197.81 2331.83 1198.05 2330.69 1198.28C2329.55 1198.54 2328.13 1198.69 2326.43 1198.71C2323.64 1198.76 2321.03 1198.26 2318.62 1197.22C2316.2 1196.18 2314.25 1194.57 2312.76 1192.39C2311.27 1190.21 2310.52 1187.48 2310.52 1184.19V1130.39Z" fill="#146199"/>
<circle cx="494.528" cy="1999.22" r="209.377" fill="#EBF4FF" stroke="#CFE4FE" stroke-width="15.9525"/>
<path d="M381.994 1938.64V1933.96H414.625V1938.64H400.944V1977.47H395.675V1938.64H381.994ZM418.089 1977.47V1944.84H422.933V1949.77H423.273C423.867 1948.15 424.944 1946.84 426.502 1945.84C428.06 1944.83 429.816 1944.33 431.77 1944.33C432.138 1944.33 432.599 1944.34 433.151 1944.35C433.703 1944.36 434.121 1944.39 434.404 1944.41V1949.51C434.234 1949.47 433.845 1949.41 433.236 1949.32C432.641 1949.22 432.011 1949.17 431.345 1949.17C429.759 1949.17 428.343 1949.51 427.096 1950.17C425.864 1950.82 424.887 1951.73 424.165 1952.89C423.457 1954.04 423.103 1955.35 423.103 1956.82V1977.47H418.089ZM449.351 1978.23C447.283 1978.23 445.407 1977.84 443.722 1977.07C442.036 1976.27 440.698 1975.13 439.706 1973.64C438.715 1972.14 438.219 1970.33 438.219 1968.21C438.219 1966.34 438.588 1964.82 439.324 1963.66C440.061 1962.48 441.045 1961.56 442.277 1960.9C443.509 1960.23 444.869 1959.74 446.356 1959.41C447.857 1959.07 449.365 1958.8 450.881 1958.6C452.863 1958.35 454.471 1958.16 455.703 1958.03C456.949 1957.89 457.856 1957.66 458.422 1957.33C459.003 1957 459.293 1956.44 459.293 1955.63V1955.46C459.293 1953.36 458.719 1951.74 457.572 1950.57C456.439 1949.41 454.719 1948.83 452.41 1948.83C450.017 1948.83 448.14 1949.36 446.781 1950.4C445.421 1951.45 444.465 1952.57 443.913 1953.76L439.154 1952.06C440.004 1950.08 441.137 1948.53 442.553 1947.43C443.984 1946.31 445.541 1945.53 447.227 1945.09C448.926 1944.64 450.597 1944.41 452.24 1944.41C453.288 1944.41 454.492 1944.54 455.852 1944.8C457.225 1945.04 458.55 1945.54 459.824 1946.3C461.113 1947.07 462.182 1948.22 463.032 1949.77C463.882 1951.31 464.307 1953.38 464.307 1955.97V1977.47H459.293V1973.05H459.038C458.698 1973.76 458.132 1974.52 457.339 1975.32C456.546 1976.13 455.49 1976.82 454.173 1977.38C452.856 1977.95 451.249 1978.23 449.351 1978.23ZM450.116 1973.73C452.099 1973.73 453.77 1973.34 455.129 1972.56C456.503 1971.78 457.537 1970.78 458.231 1969.54C458.939 1968.31 459.293 1967.02 459.293 1965.66V1961.07C459.081 1961.32 458.613 1961.56 457.891 1961.77C457.183 1961.97 456.361 1962.15 455.427 1962.3C454.506 1962.44 453.607 1962.57 452.729 1962.68C451.865 1962.78 451.164 1962.87 450.626 1962.94C449.323 1963.11 448.105 1963.38 446.972 1963.77C445.853 1964.13 444.947 1964.69 444.253 1965.44C443.573 1966.18 443.233 1967.19 443.233 1968.46C443.233 1970.2 443.877 1971.52 445.166 1972.41C446.469 1973.29 448.119 1973.73 450.116 1973.73ZM472.859 1977.47V1944.84H477.873V1977.47H472.859ZM475.408 1939.4C474.431 1939.4 473.588 1939.07 472.88 1938.4C472.186 1937.74 471.839 1936.94 471.839 1936C471.839 1935.07 472.186 1934.27 472.88 1933.6C473.588 1932.94 474.431 1932.6 475.408 1932.6C476.385 1932.6 477.221 1932.94 477.915 1933.6C478.623 1934.27 478.977 1935.07 478.977 1936C478.977 1936.94 478.623 1937.74 477.915 1938.4C477.221 1939.07 476.385 1939.4 475.408 1939.4ZM491.47 1957.84V1977.47H486.457V1944.84H491.3V1949.94H491.725C492.49 1948.28 493.651 1946.95 495.209 1945.94C496.767 1944.92 498.778 1944.41 501.242 1944.41C503.452 1944.41 505.385 1944.87 507.042 1945.77C508.699 1946.67 509.988 1948.03 510.908 1949.85C511.829 1951.66 512.289 1953.96 512.289 1956.74V1977.47H507.276V1957.07C507.276 1954.51 506.61 1952.51 505.279 1951.08C503.947 1949.64 502.12 1948.92 499.798 1948.92C498.197 1948.92 496.767 1949.26 495.507 1949.96C494.26 1950.65 493.276 1951.66 492.554 1953C491.831 1954.33 491.47 1955.94 491.47 1957.84ZM520.852 1977.47V1944.84H525.866V1977.47H520.852ZM523.401 1939.4C522.424 1939.4 521.581 1939.07 520.873 1938.4C520.179 1937.74 519.832 1936.94 519.832 1936C519.832 1935.07 520.179 1934.27 520.873 1933.6C521.581 1932.94 522.424 1932.6 523.401 1932.6C524.379 1932.6 525.214 1932.94 525.908 1933.6C526.616 1934.27 526.97 1935.07 526.97 1936C526.97 1936.94 526.616 1937.74 525.908 1938.4C525.214 1939.07 524.379 1939.4 523.401 1939.4ZM539.463 1957.84V1977.47H534.45V1944.84H539.293V1949.94H539.718C540.483 1948.28 541.644 1946.95 543.202 1945.94C544.76 1944.92 546.771 1944.41 549.235 1944.41C551.445 1944.41 553.378 1944.87 555.035 1945.77C556.692 1946.67 557.981 1948.03 558.901 1949.85C559.822 1951.66 560.282 1953.96 560.282 1956.74V1977.47H555.269V1957.07C555.269 1954.51 554.603 1952.51 553.272 1951.08C551.94 1949.64 550.114 1948.92 547.791 1948.92C546.191 1948.92 544.76 1949.26 543.5 1949.96C542.253 1950.65 541.269 1951.66 540.547 1953C539.825 1954.33 539.463 1955.94 539.463 1957.84ZM582.016 1990.38C579.594 1990.38 577.513 1990.07 575.771 1989.45C574.029 1988.84 572.577 1988.03 571.416 1987.03C570.269 1986.04 569.355 1984.97 568.675 1983.84L572.669 1981.04C573.122 1981.63 573.696 1982.31 574.39 1983.08C575.084 1983.86 576.033 1984.53 577.236 1985.1C578.454 1985.68 580.048 1985.97 582.016 1985.97C584.65 1985.97 586.824 1985.33 588.538 1984.05C590.252 1982.78 591.109 1980.78 591.109 1978.06V1971.44H590.684C590.315 1972.03 589.791 1972.77 589.112 1973.64C588.446 1974.51 587.483 1975.28 586.222 1975.96C584.976 1976.63 583.291 1976.96 581.167 1976.96C578.532 1976.96 576.167 1976.34 574.071 1975.09C571.989 1973.84 570.339 1972.03 569.121 1969.65C567.918 1967.27 567.316 1964.38 567.316 1960.98C567.316 1957.64 567.903 1954.73 569.079 1952.25C570.254 1949.76 571.89 1947.83 573.986 1946.47C576.082 1945.1 578.504 1944.41 581.251 1944.41C583.376 1944.41 585.061 1944.77 586.307 1945.48C587.568 1946.17 588.531 1946.96 589.197 1947.86C589.876 1948.73 590.4 1949.46 590.769 1950.02H591.278V1944.84H596.122V1978.4C596.122 1981.21 595.485 1983.49 594.21 1985.24C592.95 1987.01 591.25 1988.31 589.112 1989.13C586.987 1989.97 584.622 1990.38 582.016 1990.38ZM581.846 1972.46C583.857 1972.46 585.557 1971.99 586.945 1971.07C588.333 1970.15 589.388 1968.83 590.11 1967.1C590.832 1965.37 591.193 1963.31 591.193 1960.9C591.193 1958.55 590.839 1956.47 590.131 1954.67C589.423 1952.88 588.375 1951.47 586.987 1950.45C585.599 1949.43 583.886 1948.92 581.846 1948.92C579.722 1948.92 577.952 1949.46 576.535 1950.53C575.133 1951.61 574.078 1953.05 573.37 1954.87C572.676 1956.68 572.329 1958.69 572.329 1960.9C572.329 1963.16 572.683 1965.17 573.391 1966.91C574.114 1968.64 575.176 1970 576.578 1970.99C577.994 1971.97 579.75 1972.46 581.846 1972.46ZM372.391 2014.96H378.679L393.464 2051.08H393.974L408.76 2014.96H415.048V2058.47H410.119V2025.41H409.694L396.098 2058.47H391.34L377.744 2025.41H377.319V2058.47H372.391V2014.96ZM433.935 2059.23C431.868 2059.23 429.991 2058.84 428.306 2058.07C426.62 2057.27 425.282 2056.13 424.291 2054.64C423.299 2053.14 422.804 2051.33 422.804 2049.21C422.804 2047.34 423.172 2045.82 423.908 2044.66C424.645 2043.48 425.629 2042.56 426.861 2041.9C428.093 2041.23 429.453 2040.74 430.94 2040.41C432.441 2040.07 433.949 2039.8 435.465 2039.6C437.448 2039.35 439.055 2039.16 440.287 2039.03C441.533 2038.89 442.44 2038.66 443.006 2038.33C443.587 2038 443.877 2037.44 443.877 2036.63V2036.46C443.877 2034.36 443.304 2032.74 442.157 2031.57C441.024 2030.41 439.303 2029.83 436.994 2029.83C434.601 2029.83 432.724 2030.36 431.365 2031.4C430.005 2032.45 429.049 2033.57 428.497 2034.76L423.738 2033.06C424.588 2031.08 425.721 2029.53 427.137 2028.43C428.568 2027.31 430.126 2026.53 431.811 2026.09C433.51 2025.64 435.182 2025.41 436.824 2025.41C437.872 2025.41 439.076 2025.54 440.436 2025.8C441.81 2026.04 443.134 2026.54 444.408 2027.3C445.697 2028.07 446.766 2029.22 447.616 2030.77C448.466 2032.31 448.891 2034.38 448.891 2036.97V2058.47H443.877V2054.05H443.622C443.282 2054.76 442.716 2055.52 441.923 2056.32C441.13 2057.13 440.075 2057.82 438.758 2058.38C437.44 2058.95 435.833 2059.23 433.935 2059.23ZM434.7 2054.73C436.683 2054.73 438.354 2054.34 439.713 2053.56C441.087 2052.78 442.121 2051.78 442.815 2050.54C443.523 2049.31 443.877 2048.02 443.877 2046.66V2042.07C443.665 2042.32 443.197 2042.56 442.475 2042.77C441.767 2042.97 440.946 2043.15 440.011 2043.3C439.09 2043.44 438.191 2043.57 437.313 2043.68C436.449 2043.78 435.748 2043.87 435.21 2043.94C433.907 2044.11 432.689 2044.38 431.556 2044.77C430.437 2045.13 429.531 2045.69 428.837 2046.44C428.157 2047.18 427.817 2048.19 427.817 2049.46C427.817 2051.2 428.461 2052.52 429.75 2053.41C431.053 2054.29 432.703 2054.73 434.7 2054.73ZM462.457 2038.84V2058.47H457.443V2025.84H462.287V2030.94H462.712C463.476 2029.28 464.638 2027.95 466.196 2026.94C467.753 2025.92 469.764 2025.41 472.229 2025.41C474.438 2025.41 476.371 2025.87 478.028 2026.77C479.685 2027.67 480.974 2029.03 481.895 2030.85C482.815 2032.66 483.275 2034.96 483.275 2037.74V2058.47H478.262V2038.07C478.262 2035.51 477.596 2033.51 476.265 2032.08C474.934 2030.64 473.107 2029.92 470.784 2029.92C469.184 2029.92 467.753 2030.26 466.493 2030.96C465.247 2031.65 464.262 2032.66 463.54 2034C462.818 2035.33 462.457 2036.94 462.457 2038.84ZM501.441 2059.23C499.373 2059.23 497.496 2058.84 495.811 2058.07C494.126 2057.27 492.787 2056.13 491.796 2054.64C490.805 2053.14 490.309 2051.33 490.309 2049.21C490.309 2047.34 490.677 2045.82 491.414 2044.66C492.15 2043.48 493.134 2042.56 494.366 2041.9C495.599 2041.23 496.958 2040.74 498.445 2040.41C499.946 2040.07 501.455 2039.8 502.97 2039.6C504.953 2039.35 506.56 2039.16 507.792 2039.03C509.039 2038.89 509.945 2038.66 510.512 2038.33C511.092 2038 511.383 2037.44 511.383 2036.63V2036.46C511.383 2034.36 510.809 2032.74 509.662 2031.57C508.529 2030.41 506.808 2029.83 504.5 2029.83C502.106 2029.83 500.23 2030.36 498.87 2031.4C497.511 2032.45 496.555 2033.57 496.002 2034.76L491.244 2033.06C492.093 2031.08 493.226 2029.53 494.643 2028.43C496.073 2027.31 497.631 2026.53 499.316 2026.09C501.016 2025.64 502.687 2025.41 504.33 2025.41C505.378 2025.41 506.582 2025.54 507.941 2025.8C509.315 2026.04 510.639 2026.54 511.914 2027.3C513.202 2028.07 514.272 2029.22 515.121 2030.77C515.971 2032.31 516.396 2034.38 516.396 2036.97V2058.47H511.383V2054.05H511.128C510.788 2054.76 510.221 2055.52 509.428 2056.32C508.635 2057.13 507.58 2057.82 506.263 2058.38C504.946 2058.95 503.338 2059.23 501.441 2059.23ZM502.205 2054.73C504.188 2054.73 505.859 2054.34 507.219 2053.56C508.593 2052.78 509.626 2051.78 510.32 2050.54C511.029 2049.31 511.383 2048.02 511.383 2046.66V2042.07C511.17 2042.32 510.703 2042.56 509.981 2042.77C509.272 2042.97 508.451 2043.15 507.516 2043.3C506.596 2043.44 505.696 2043.57 504.818 2043.68C503.954 2043.78 503.253 2043.87 502.715 2043.94C501.412 2044.11 500.194 2044.38 499.061 2044.77C497.942 2045.13 497.036 2045.69 496.342 2046.44C495.662 2047.18 495.322 2048.19 495.322 2049.46C495.322 2051.2 495.967 2052.52 497.256 2053.41C498.559 2054.29 500.208 2054.73 502.205 2054.73ZM538.12 2071.38C535.698 2071.38 533.616 2071.07 531.874 2070.45C530.132 2069.84 528.68 2069.03 527.519 2068.03C526.372 2067.04 525.458 2065.97 524.779 2064.84L528.772 2062.04C529.226 2062.63 529.799 2063.31 530.493 2064.08C531.187 2064.86 532.136 2065.53 533.34 2066.1C534.558 2066.68 536.151 2066.97 538.12 2066.97C540.754 2066.97 542.928 2066.33 544.641 2065.05C546.355 2063.78 547.212 2061.78 547.212 2059.06V2052.44H546.787C546.419 2053.03 545.895 2053.77 545.215 2054.64C544.549 2055.51 543.586 2056.28 542.326 2056.96C541.079 2057.63 539.394 2057.96 537.27 2057.96C534.636 2057.96 532.27 2057.34 530.174 2056.09C528.093 2054.84 526.443 2053.03 525.225 2050.65C524.021 2048.27 523.419 2045.38 523.419 2041.98C523.419 2038.64 524.007 2035.73 525.182 2033.25C526.358 2030.76 527.993 2028.83 530.089 2027.47C532.186 2026.1 534.607 2025.41 537.355 2025.41C539.479 2025.41 541.164 2025.77 542.411 2026.48C543.671 2027.17 544.634 2027.96 545.3 2028.86C545.98 2029.73 546.504 2030.46 546.872 2031.02H547.382V2025.84H552.225V2059.4C552.225 2062.21 551.588 2064.49 550.313 2066.24C549.053 2068.01 547.353 2069.31 545.215 2070.13C543.091 2070.97 540.725 2071.38 538.12 2071.38ZM537.95 2053.46C539.961 2053.46 541.66 2052.99 543.048 2052.07C544.436 2051.15 545.491 2049.83 546.213 2048.1C546.936 2046.37 547.297 2044.31 547.297 2041.9C547.297 2039.55 546.943 2037.47 546.235 2035.67C545.526 2033.88 544.478 2032.47 543.091 2031.45C541.703 2030.43 539.989 2029.92 537.95 2029.92C535.825 2029.92 534.055 2030.46 532.639 2031.53C531.237 2032.61 530.182 2034.05 529.473 2035.87C528.779 2037.68 528.432 2039.69 528.432 2041.9C528.432 2044.16 528.787 2046.17 529.495 2047.91C530.217 2049.64 531.279 2051 532.681 2051.99C534.097 2052.97 535.854 2053.46 537.95 2053.46ZM574.485 2059.15C571.341 2059.15 568.629 2058.45 566.349 2057.07C564.083 2055.66 562.334 2053.71 561.102 2051.2C559.884 2048.68 559.275 2045.75 559.275 2042.41C559.275 2039.07 559.884 2036.12 561.102 2033.57C562.334 2031.01 564.048 2029.01 566.243 2027.58C568.452 2026.14 571.03 2025.41 573.975 2025.41C575.675 2025.41 577.353 2025.7 579.01 2026.26C580.667 2026.83 582.175 2027.75 583.535 2029.03C584.895 2030.29 585.978 2031.96 586.785 2034.04C587.592 2036.12 587.996 2038.68 587.996 2041.73V2043.85H562.844V2039.52H582.898C582.898 2037.68 582.529 2036.04 581.793 2034.59C581.071 2033.15 580.037 2032.01 578.691 2031.17C577.36 2030.34 575.788 2029.92 573.975 2029.92C571.978 2029.92 570.251 2030.41 568.792 2031.4C567.347 2032.38 566.236 2033.66 565.457 2035.23C564.678 2036.8 564.288 2038.49 564.288 2040.28V2043.17C564.288 2045.64 564.713 2047.73 565.563 2049.44C566.427 2051.14 567.624 2052.44 569.153 2053.33C570.683 2054.21 572.46 2054.64 574.485 2054.64C575.802 2054.64 576.992 2054.46 578.054 2054.09C579.13 2053.71 580.058 2053.14 580.837 2052.39C581.616 2051.63 582.218 2050.68 582.643 2049.55L587.486 2050.91C586.976 2052.55 586.12 2053.99 584.916 2055.24C583.712 2056.47 582.225 2057.43 580.455 2058.13C578.684 2058.81 576.695 2059.15 574.485 2059.15ZM595.024 2058.47V2025.84H599.868V2030.77H600.208C600.803 2029.15 601.879 2027.84 603.437 2026.84C604.995 2025.83 606.751 2025.33 608.705 2025.33C609.073 2025.33 609.534 2025.34 610.086 2025.35C610.638 2025.36 611.056 2025.39 611.339 2025.41V2030.51C611.169 2030.47 610.78 2030.41 610.171 2030.32C609.576 2030.22 608.946 2030.17 608.28 2030.17C606.694 2030.17 605.278 2030.51 604.032 2031.17C602.8 2031.82 601.822 2032.73 601.1 2033.89C600.392 2035.04 600.038 2036.35 600.038 2037.82V2058.47H595.024Z" fill="#3D77C2"/>
<circle cx="2845.53" cy="1999.22" r="209.377" fill="#EBF4FF" stroke="#CFE4FE" stroke-width="15.9525"/>
<path d="M2724.77 1989.43H2719.5C2719.19 1987.92 2718.64 1986.59 2717.87 1985.44C2717.1 1984.29 2716.17 1983.33 2715.06 1982.55C2713.97 1981.76 2712.76 1981.16 2711.43 1980.77C2710.1 1980.37 2708.71 1980.17 2707.27 1980.17C2704.63 1980.17 2702.24 1980.84 2700.11 1982.17C2697.98 1983.5 2696.29 1985.46 2695.03 1988.05C2693.78 1990.64 2693.16 1993.82 2693.16 1997.59C2693.16 2001.36 2693.78 2004.54 2695.03 2007.13C2696.29 2009.72 2697.98 2011.68 2700.11 2013.01C2702.24 2014.34 2704.63 2015.01 2707.27 2015.01C2708.71 2015.01 2710.1 2014.81 2711.43 2014.42C2712.76 2014.02 2713.97 2013.43 2715.06 2012.65C2716.17 2011.86 2717.1 2010.89 2717.87 2009.74C2718.64 2008.58 2719.19 2007.25 2719.5 2005.75H2724.77C2724.37 2007.97 2723.65 2009.96 2722.6 2011.72C2721.56 2013.47 2720.25 2014.97 2718.69 2016.2C2717.14 2017.42 2715.39 2018.35 2713.45 2018.98C2711.52 2019.62 2709.46 2019.94 2707.27 2019.94C2703.55 2019.94 2700.26 2019.03 2697.37 2017.22C2694.48 2015.41 2692.2 2012.83 2690.55 2009.49C2688.89 2006.14 2688.06 2002.18 2688.06 1997.59C2688.06 1993 2688.89 1989.04 2690.55 1985.69C2692.2 1982.35 2694.48 1979.77 2697.37 1977.96C2700.26 1976.15 2703.55 1975.24 2707.27 1975.24C2709.46 1975.24 2711.52 1975.56 2713.45 1976.2C2715.39 1976.84 2717.14 1977.77 2718.69 1979C2720.25 1980.22 2721.56 1981.71 2722.6 1983.46C2723.65 1985.21 2724.37 1987.2 2724.77 1989.43ZM2745.26 2020.02C2742.32 2020.02 2739.73 2019.32 2737.51 2017.92C2735.3 2016.52 2733.57 2014.56 2732.32 2012.04C2731.09 2009.52 2730.48 2006.57 2730.48 2003.2C2730.48 1999.8 2731.09 1996.83 2732.32 1994.3C2733.57 1991.76 2735.3 1989.79 2737.51 1988.39C2739.73 1986.99 2742.32 1986.29 2745.26 1986.29C2748.21 1986.29 2750.78 1986.99 2752.99 1988.39C2755.22 1989.79 2756.95 1991.76 2758.18 1994.3C2759.42 1996.83 2760.05 1999.8 2760.05 2003.2C2760.05 2006.57 2759.42 2009.52 2758.18 2012.04C2756.95 2014.56 2755.22 2016.52 2752.99 2017.92C2750.78 2019.32 2748.21 2020.02 2745.26 2020.02ZM2745.26 2015.52C2747.5 2015.52 2749.34 2014.95 2750.78 2013.8C2752.23 2012.65 2753.3 2011.14 2753.99 2009.27C2754.69 2007.41 2755.03 2005.38 2755.03 2003.2C2755.03 2001.02 2754.69 1998.99 2753.99 1997.1C2753.3 1995.22 2752.23 1993.7 2750.78 1992.53C2749.34 1991.37 2747.5 1990.79 2745.26 1990.79C2743.02 1990.79 2741.18 1991.37 2739.74 1992.53C2738.29 1993.7 2737.22 1995.22 2736.53 1997.1C2735.84 1998.99 2735.49 2001.02 2735.49 2003.2C2735.49 2005.38 2735.84 2007.41 2736.53 2009.27C2737.22 2011.14 2738.29 2012.65 2739.74 2013.8C2741.18 2014.95 2743.02 2015.52 2745.26 2015.52ZM2772.12 1975.84V2019.34H2767.1V1975.84H2772.12ZM2785.71 1975.84V2019.34H2780.7V1975.84H2785.71ZM2807.98 2020.02C2804.83 2020.02 2802.12 2019.33 2799.84 2017.94C2797.58 2016.54 2795.83 2014.59 2794.59 2012.08C2793.38 2009.56 2792.77 2006.63 2792.77 2003.28C2792.77 1999.94 2793.38 1997 2794.59 1994.45C2795.83 1991.88 2797.54 1989.89 2799.74 1988.46C2801.95 1987.01 2804.52 1986.29 2807.47 1986.29C2809.17 1986.29 2810.85 1986.57 2812.5 1987.14C2814.16 1987.71 2815.67 1988.63 2817.03 1989.9C2818.39 1991.16 2819.47 1992.83 2820.28 1994.91C2821.09 1997 2821.49 1999.56 2821.49 2002.6V2004.73H2796.34V2000.39H2816.39C2816.39 1998.55 2816.02 1996.91 2815.29 1995.47C2814.56 1994.02 2813.53 1992.88 2812.18 1992.05C2810.85 1991.21 2809.28 1990.79 2807.47 1990.79C2805.47 1990.79 2803.74 1991.29 2802.29 1992.28C2800.84 1993.26 2799.73 1994.53 2798.95 1996.1C2798.17 1997.68 2797.78 1999.36 2797.78 2001.16V2004.05C2797.78 2006.51 2798.21 2008.6 2799.06 2010.32C2799.92 2012.02 2801.12 2013.31 2802.65 2014.2C2804.18 2015.08 2805.95 2015.52 2807.98 2015.52C2809.3 2015.52 2810.49 2015.34 2811.55 2014.97C2812.62 2014.59 2813.55 2014.02 2814.33 2013.27C2815.11 2012.5 2815.71 2011.55 2816.14 2010.42L2820.98 2011.78C2820.47 2013.42 2819.61 2014.87 2818.41 2016.12C2817.21 2017.35 2815.72 2018.31 2813.95 2019C2812.18 2019.68 2810.19 2020.02 2807.98 2020.02ZM2838.12 2020.11C2836.05 2020.11 2834.18 2019.72 2832.49 2018.94C2830.8 2018.15 2829.47 2017.01 2828.48 2015.52C2827.48 2014.02 2826.99 2012.21 2826.99 2010.08C2826.99 2008.21 2827.36 2006.7 2828.09 2005.54C2828.83 2004.36 2829.81 2003.44 2831.05 2002.77C2832.28 2002.11 2833.64 2001.61 2835.12 2001.29C2836.63 2000.95 2838.13 2000.68 2839.65 2000.48C2841.63 2000.23 2843.24 2000.03 2844.47 1999.91C2845.72 1999.76 2846.62 1999.53 2847.19 1999.21C2847.77 1998.88 2848.06 1998.31 2848.06 1997.51V1997.34C2848.06 1995.24 2847.49 1993.61 2846.34 1992.45C2845.21 1991.29 2843.49 1990.71 2841.18 1990.71C2838.79 1990.71 2836.91 1991.23 2835.55 1992.28C2834.19 1993.33 2833.23 1994.45 2832.68 1995.64L2827.92 1993.94C2828.77 1991.95 2829.91 1990.41 2831.32 1989.31C2832.75 1988.19 2834.31 1987.41 2836 1986.97C2837.69 1986.52 2839.37 1986.29 2841.01 1986.29C2842.06 1986.29 2843.26 1986.42 2844.62 1986.67C2845.99 1986.91 2847.32 1987.42 2848.59 1988.18C2849.88 1988.94 2850.95 1990.1 2851.8 1991.64C2852.65 1993.19 2853.08 1995.25 2853.08 1997.85V2019.34H2848.06V2014.93H2847.81C2847.47 2015.63 2846.9 2016.39 2846.11 2017.2C2845.31 2018.01 2844.26 2018.69 2842.94 2019.26C2841.62 2019.83 2840.02 2020.11 2838.12 2020.11ZM2838.88 2015.61C2840.87 2015.61 2842.54 2015.22 2843.9 2014.44C2845.27 2013.66 2846.31 2012.65 2847 2011.42C2847.71 2010.19 2848.06 2008.89 2848.06 2007.53V2002.94C2847.85 2003.2 2847.38 2003.43 2846.66 2003.65C2845.95 2003.84 2845.13 2004.02 2844.2 2004.18C2843.27 2004.32 2842.38 2004.45 2841.5 2004.56C2840.63 2004.66 2839.93 2004.74 2839.39 2004.81C2838.09 2004.98 2836.87 2005.26 2835.74 2005.64C2834.62 2006.01 2833.72 2006.57 2833.02 2007.32C2832.34 2008.06 2832 2009.06 2832 2010.34C2832 2012.08 2832.65 2013.4 2833.93 2014.29C2835.24 2015.17 2836.89 2015.61 2838.88 2015.61ZM2874.8 2032.26C2872.38 2032.26 2870.3 2031.95 2868.55 2031.33C2866.81 2030.72 2865.36 2029.91 2864.2 2028.9C2863.05 2027.91 2862.14 2026.85 2861.46 2025.72L2865.45 2022.91C2865.9 2023.51 2866.48 2024.19 2867.17 2024.95C2867.87 2025.73 2868.82 2026.4 2870.02 2026.97C2871.24 2027.55 2872.83 2027.84 2874.8 2027.84C2877.43 2027.84 2879.61 2027.2 2881.32 2025.93C2883.03 2024.66 2883.89 2022.66 2883.89 2019.94V2013.31H2883.47C2883.1 2013.91 2882.57 2014.64 2881.89 2015.52C2881.23 2016.38 2880.27 2017.16 2879 2017.84C2877.76 2018.5 2876.07 2018.83 2873.95 2018.83C2871.31 2018.83 2868.95 2018.21 2866.85 2016.96C2864.77 2015.72 2863.12 2013.91 2861.9 2011.53C2860.7 2009.15 2860.1 2006.26 2860.1 2002.86C2860.1 1999.52 2860.69 1996.61 2861.86 1994.13C2863.04 1991.64 2864.67 1989.71 2866.77 1988.35C2868.86 1986.98 2871.29 1986.29 2874.03 1986.29C2876.16 1986.29 2877.84 1986.64 2879.09 1987.35C2880.35 1988.05 2881.31 1988.84 2881.98 1989.73C2882.66 1990.61 2883.18 1991.33 2883.55 1991.9H2884.06V1986.71H2888.9V2020.28C2888.9 2023.08 2888.27 2025.36 2886.99 2027.12C2885.73 2028.89 2884.03 2030.19 2881.89 2031.01C2879.77 2031.84 2877.4 2032.26 2874.8 2032.26ZM2874.63 2014.33C2876.64 2014.33 2878.34 2013.87 2879.73 2012.95C2881.12 2012.03 2882.17 2010.71 2882.89 2008.98C2883.61 2007.25 2883.98 2005.18 2883.98 2002.77C2883.98 2000.42 2883.62 1998.35 2882.91 1996.55C2882.21 1994.75 2881.16 1993.34 2879.77 1992.32C2878.38 1991.3 2876.67 1990.79 2874.63 1990.79C2872.5 1990.79 2870.73 1991.33 2869.32 1992.41C2867.92 1993.48 2866.86 1994.93 2866.15 1996.74C2865.46 1998.55 2865.11 2000.56 2865.11 2002.77C2865.11 2005.04 2865.47 2007.04 2866.17 2008.79C2866.9 2010.51 2867.96 2011.87 2869.36 2012.86C2870.78 2013.84 2872.53 2014.33 2874.63 2014.33ZM2918.05 2006V1986.71H2923.06V2019.34H2918.05V2013.82H2917.71C2916.94 2015.48 2915.75 2016.89 2914.14 2018.05C2912.52 2019.2 2910.48 2019.77 2908.02 2019.77C2905.98 2019.77 2904.17 2019.32 2902.58 2018.43C2901 2017.52 2899.75 2016.16 2898.84 2014.35C2897.94 2012.53 2897.48 2010.22 2897.48 2007.45V1986.71H2902.5V2007.11C2902.5 2009.49 2903.16 2011.38 2904.49 2012.8C2905.84 2014.22 2907.55 2014.93 2909.63 2014.93C2910.88 2014.93 2912.15 2014.61 2913.44 2013.97C2914.74 2013.33 2915.83 2012.36 2916.71 2011.04C2917.6 2009.72 2918.05 2008.04 2918.05 2006ZM2945.33 2020.02C2942.18 2020.02 2939.47 2019.33 2937.19 2017.94C2934.92 2016.54 2933.17 2014.59 2931.94 2012.08C2930.72 2009.56 2930.12 2006.63 2930.12 2003.28C2930.12 1999.94 2930.72 1997 2931.94 1994.45C2933.17 1991.88 2934.89 1989.89 2937.08 1988.46C2939.29 1987.01 2941.87 1986.29 2944.82 1986.29C2946.52 1986.29 2948.19 1986.57 2949.85 1987.14C2951.51 1987.71 2953.02 1988.63 2954.38 1989.9C2955.74 1991.16 2956.82 1992.83 2957.63 1994.91C2958.43 1997 2958.84 1999.56 2958.84 2002.6V2004.73H2933.68V2000.39H2953.74C2953.74 1998.55 2953.37 1996.91 2952.63 1995.47C2951.91 1994.02 2950.88 1992.88 2949.53 1992.05C2948.2 1991.21 2946.63 1990.79 2944.82 1990.79C2942.82 1990.79 2941.09 1991.29 2939.63 1992.28C2938.19 1993.26 2937.08 1994.53 2936.3 1996.1C2935.52 1997.68 2935.13 1999.36 2935.13 2001.16V2004.05C2935.13 2006.51 2935.55 2008.6 2936.4 2010.32C2937.27 2012.02 2938.46 2013.31 2939.99 2014.2C2941.52 2015.08 2943.3 2015.52 2945.33 2015.52C2946.64 2015.52 2947.83 2015.34 2948.89 2014.97C2949.97 2014.59 2950.9 2014.02 2951.68 2013.27C2952.46 2012.5 2953.06 2011.55 2953.48 2010.42L2958.33 2011.78C2957.82 2013.42 2956.96 2014.87 2955.76 2016.12C2954.55 2017.35 2953.07 2018.31 2951.3 2019C2949.53 2019.68 2947.54 2020.02 2945.33 2020.02ZM2988.98 1994.02L2984.47 1995.3C2984.19 1994.55 2983.77 1993.82 2983.22 1993.11C2982.68 1992.39 2981.95 1991.79 2981.01 1991.32C2980.08 1990.86 2978.88 1990.62 2977.42 1990.62C2975.42 1990.62 2973.76 1991.08 2972.43 1992C2971.11 1992.91 2970.45 1994.06 2970.45 1995.47C2970.45 1996.71 2970.91 1997.7 2971.81 1998.42C2972.72 1999.14 2974.14 1999.74 2976.06 2000.23L2980.91 2001.41C2983.82 2002.12 2986 2003.21 2987.43 2004.66C2988.86 2006.11 2989.57 2007.97 2989.57 2010.25C2989.57 2012.12 2989.03 2013.79 2987.96 2015.27C2986.9 2016.74 2985.41 2017.9 2983.5 2018.75C2981.59 2019.6 2979.36 2020.02 2976.83 2020.02C2973.5 2020.02 2970.74 2019.3 2968.56 2017.86C2966.38 2016.41 2965 2014.3 2964.42 2011.53L2969.18 2010.34C2969.63 2012.09 2970.49 2013.41 2971.75 2014.29C2973.02 2015.17 2974.69 2015.61 2976.74 2015.61C2979.08 2015.61 2980.93 2015.11 2982.31 2014.12C2983.7 2013.11 2984.39 2011.91 2984.39 2010.51C2984.39 2009.37 2983.99 2008.43 2983.2 2007.66C2982.41 2006.88 2981.19 2006.3 2979.55 2005.92L2974.11 2004.64C2971.12 2003.94 2968.92 2002.84 2967.52 2001.35C2966.13 1999.85 2965.44 1997.97 2965.44 1995.72C2965.44 1993.88 2965.96 1992.25 2966.99 1990.84C2968.04 1989.42 2969.46 1988.31 2971.26 1987.5C2973.07 1986.69 2975.13 1986.29 2977.42 1986.29C2980.65 1986.29 2983.19 1987 2985.03 1988.41C2986.88 1989.83 2988.2 1991.7 2988.98 1994.02Z" fill="#3D77C2"/>
<circle cx="2052.35" cy="1999.35" r="209.377" fill="#F4FFEA" stroke="#C2ED9E" stroke-width="15.9525"/>
<path d="M1915.83 2019.34V1975.84H1942.09V1980.51H1921.1V1995.21H1940.73V1999.89H1921.1V2014.67H1942.43V2019.34H1915.83ZM1950.31 2019.34V1986.71H1955.15V1991.81H1955.57C1956.25 1990.07 1957.35 1988.72 1958.87 1987.76C1960.38 1986.78 1962.2 1986.29 1964.33 1986.29C1966.48 1986.29 1968.27 1986.78 1969.7 1987.76C1971.15 1988.72 1972.27 1990.07 1973.08 1991.81H1973.42C1974.26 1990.13 1975.51 1988.79 1977.18 1987.8C1978.85 1986.79 1980.85 1986.29 1983.19 1986.29C1986.11 1986.29 1988.5 1987.2 1990.35 1989.03C1992.21 1990.84 1993.13 1993.67 1993.13 1997.51V2019.34H1988.12V1997.51C1988.12 1995.1 1987.46 1993.38 1986.14 1992.34C1984.83 1991.31 1983.28 1990.79 1981.49 1990.79C1979.2 1990.79 1977.42 1991.49 1976.16 1992.87C1974.9 1994.25 1974.27 1995.99 1974.27 1998.1V2019.34H1969.17V1997C1969.17 1995.14 1968.57 1993.65 1967.37 1992.51C1966.16 1991.37 1964.61 1990.79 1962.71 1990.79C1961.41 1990.79 1960.19 1991.14 1959.06 1991.83C1957.94 1992.53 1957.03 1993.49 1956.34 1994.72C1955.66 1995.94 1955.32 1997.35 1955.32 1998.95V2019.34H1950.31ZM2001.7 2031.58V1986.71H2006.55V1991.9H2007.14C2007.51 1991.33 2008.02 1990.61 2008.67 1989.73C2009.34 1988.84 2010.28 1988.05 2011.52 1987.35C2012.76 1986.64 2014.45 1986.29 2016.57 1986.29C2019.32 1986.29 2021.74 1986.98 2023.84 1988.35C2025.93 1989.72 2027.57 1991.67 2028.75 1994.19C2029.92 1996.71 2030.51 1999.69 2030.51 2003.11C2030.51 2006.57 2029.92 2009.57 2028.75 2012.1C2027.57 2014.62 2025.94 2016.58 2023.86 2017.96C2021.78 2019.34 2019.38 2020.02 2016.66 2020.02C2014.56 2020.02 2012.88 2019.68 2011.62 2018.98C2010.36 2018.27 2009.39 2017.47 2008.71 2016.58C2008.03 2015.68 2007.51 2014.93 2007.14 2014.33H2006.72V2031.58H2001.7ZM2006.63 2003.03C2006.63 2005.49 2006.99 2007.67 2007.71 2009.55C2008.44 2011.42 2009.49 2012.89 2010.88 2013.95C2012.27 2015 2013.97 2015.52 2015.98 2015.52C2018.07 2015.52 2019.82 2014.97 2021.22 2013.86C2022.64 2012.74 2023.7 2011.24 2024.41 2009.36C2025.13 2007.46 2025.49 2005.35 2025.49 2003.03C2025.49 2000.73 2025.14 1998.67 2024.43 1996.83C2023.74 1994.97 2022.68 1993.5 2021.27 1992.43C2019.87 1991.34 2018.1 1990.79 2015.98 1990.79C2013.94 1990.79 2012.22 1991.31 2010.84 1992.34C2009.45 1993.36 2008.4 1994.79 2007.69 1996.63C2006.98 1998.46 2006.63 2000.59 2006.63 2003.03ZM2042.57 1975.84V2019.34H2037.56V1975.84H2042.57ZM2064.41 2020.02C2061.47 2020.02 2058.88 2019.32 2056.66 2017.92C2054.45 2016.52 2052.72 2014.56 2051.47 2012.04C2050.24 2009.52 2049.63 2006.57 2049.63 2003.2C2049.63 1999.8 2050.24 1996.83 2051.47 1994.3C2052.72 1991.76 2054.45 1989.79 2056.66 1988.39C2058.88 1986.99 2061.47 1986.29 2064.41 1986.29C2067.36 1986.29 2069.93 1986.99 2072.14 1988.39C2074.37 1989.79 2076.1 1991.76 2077.33 1994.3C2078.57 1996.83 2079.2 1999.8 2079.2 2003.2C2079.2 2006.57 2078.57 2009.52 2077.33 2012.04C2076.1 2014.56 2074.37 2016.52 2072.14 2017.92C2069.93 2019.32 2067.36 2020.02 2064.41 2020.02ZM2064.41 2015.52C2066.65 2015.52 2068.49 2014.95 2069.93 2013.8C2071.38 2012.65 2072.45 2011.14 2073.14 2009.27C2073.84 2007.41 2074.18 2005.38 2074.18 2003.2C2074.18 2001.02 2073.84 1998.99 2073.14 1997.1C2072.45 1995.22 2071.38 1993.7 2069.93 1992.53C2068.49 1991.37 2066.65 1990.79 2064.41 1990.79C2062.17 1990.79 2060.33 1991.37 2058.89 1992.53C2057.44 1993.7 2056.37 1995.22 2055.68 1997.1C2054.99 1998.99 2054.64 2001.02 2054.64 2003.2C2054.64 2005.38 2054.99 2007.41 2055.68 2009.27C2056.37 2011.14 2057.44 2012.65 2058.89 2013.8C2060.33 2014.95 2062.17 2015.52 2064.41 2015.52ZM2088.31 2031.58C2087.46 2031.58 2086.71 2031.51 2086.04 2031.37C2085.37 2031.24 2084.91 2031.11 2084.66 2030.99L2085.93 2026.57C2087.15 2026.88 2088.23 2026.99 2089.16 2026.91C2090.1 2026.82 2090.93 2026.4 2091.65 2025.65C2092.38 2024.92 2093.06 2023.72 2093.67 2022.06L2094.6 2019.51L2082.53 1986.71H2087.97L2096.98 2012.72H2097.32L2106.33 1986.71H2111.77L2097.91 2024.1C2097.29 2025.79 2096.52 2027.18 2095.6 2028.29C2094.68 2029.41 2093.61 2030.24 2092.39 2030.77C2091.19 2031.31 2089.83 2031.58 2088.31 2031.58ZM2130.3 2020.02C2127.15 2020.02 2124.44 2019.33 2122.16 2017.94C2119.89 2016.54 2118.15 2014.59 2116.91 2012.08C2115.7 2009.56 2115.09 2006.63 2115.09 2003.28C2115.09 1999.94 2115.7 1997 2116.91 1994.45C2118.15 1991.88 2119.86 1989.89 2122.05 1988.46C2124.26 1987.01 2126.84 1986.29 2129.79 1986.29C2131.49 1986.29 2133.16 1986.57 2134.82 1987.14C2136.48 1987.71 2137.99 1988.63 2139.35 1989.9C2140.71 1991.16 2141.79 1992.83 2142.6 1994.91C2143.4 1997 2143.81 1999.56 2143.81 2002.6V2004.73H2118.66V2000.39H2138.71C2138.71 1998.55 2138.34 1996.91 2137.6 1995.47C2136.88 1994.02 2135.85 1992.88 2134.5 1992.05C2133.17 1991.21 2131.6 1990.79 2129.79 1990.79C2127.79 1990.79 2126.06 1991.29 2124.6 1992.28C2123.16 1993.26 2122.05 1994.53 2121.27 1996.1C2120.49 1997.68 2120.1 1999.36 2120.1 2001.16V2004.05C2120.1 2006.51 2120.52 2008.6 2121.37 2010.32C2122.24 2012.02 2123.44 2013.31 2124.96 2014.2C2126.49 2015.08 2128.27 2015.52 2130.3 2015.52C2131.61 2015.52 2132.8 2015.34 2133.87 2014.97C2134.94 2014.59 2135.87 2014.02 2136.65 2013.27C2137.43 2012.5 2138.03 2011.55 2138.45 2010.42L2143.3 2011.78C2142.79 2013.42 2141.93 2014.87 2140.73 2016.12C2139.52 2017.35 2138.04 2018.31 2136.27 2019C2134.5 2019.68 2132.51 2020.02 2130.3 2020.02ZM2164.52 2020.02C2161.37 2020.02 2158.66 2019.33 2156.38 2017.94C2154.11 2016.54 2152.37 2014.59 2151.13 2012.08C2149.92 2009.56 2149.31 2006.63 2149.31 2003.28C2149.31 1999.94 2149.92 1997 2151.13 1994.45C2152.37 1991.88 2154.08 1989.89 2156.27 1988.46C2158.48 1987.01 2161.06 1986.29 2164.01 1986.29C2165.71 1986.29 2167.38 1986.57 2169.04 1987.14C2170.7 1987.71 2172.21 1988.63 2173.57 1989.9C2174.93 1991.16 2176.01 1992.83 2176.82 1994.91C2177.62 1997 2178.03 1999.56 2178.03 2002.6V2004.73H2152.88V2000.39H2172.93C2172.93 1998.55 2172.56 1996.91 2171.82 1995.47C2171.1 1994.02 2170.07 1992.88 2168.72 1992.05C2167.39 1991.21 2165.82 1990.79 2164.01 1990.79C2162.01 1990.79 2160.28 1991.29 2158.82 1992.28C2157.38 1993.26 2156.27 1994.53 2155.49 1996.1C2154.71 1997.68 2154.32 1999.36 2154.32 2001.16V2004.05C2154.32 2006.51 2154.75 2008.6 2155.59 2010.32C2156.46 2012.02 2157.66 2013.31 2159.18 2014.2C2160.71 2015.08 2162.49 2015.52 2164.52 2015.52C2165.83 2015.52 2167.02 2015.34 2168.09 2014.97C2169.16 2014.59 2170.09 2014.02 2170.87 2013.27C2171.65 2012.5 2172.25 2011.55 2172.67 2010.42L2177.52 2011.78C2177.01 2013.42 2176.15 2014.87 2174.95 2016.12C2173.74 2017.35 2172.26 2018.31 2170.49 2019C2168.72 2019.68 2166.73 2020.02 2164.52 2020.02Z" fill="#6CAB36"/>
<circle cx="711.881" cy="1488.74" r="209.377" fill="#EBF4FF" stroke="#CFE4FE" stroke-width="15.9525"/>
<path d="M671.555 1466.99V1423.48H676.824V1442.86H700.022V1423.48H705.29V1466.99H700.022V1447.53H676.824V1466.99H671.555ZM715.239 1466.99V1423.48H729.94C733.339 1423.48 736.129 1424.06 738.31 1425.22C740.491 1426.37 742.105 1427.95 743.153 1429.96C744.201 1431.97 744.725 1434.26 744.725 1436.82C744.725 1439.39 744.201 1441.66 743.153 1443.64C742.105 1445.62 740.498 1447.18 738.331 1448.31C736.164 1449.43 733.395 1449.99 730.025 1449.99H718.128V1445.23H729.855C732.177 1445.23 734.047 1444.89 735.463 1444.21C736.893 1443.54 737.927 1442.57 738.565 1441.33C739.216 1440.07 739.542 1438.56 739.542 1436.82C739.542 1435.08 739.216 1433.56 738.565 1432.25C737.913 1430.95 736.872 1429.95 735.442 1429.24C734.011 1428.52 732.121 1428.15 729.77 1428.15H720.508V1466.99H715.239ZM735.718 1447.44L746.425 1466.99H740.307L729.77 1447.44H735.718ZM589.744 1504.48H596.032L610.818 1540.6H611.327L626.113 1504.48H632.401V1547.99H627.473V1514.93H627.048L613.452 1547.99H608.693L595.097 1514.93H594.672V1547.99H589.744V1504.48ZM651.289 1548.75C649.221 1548.75 647.344 1548.36 645.659 1547.58C643.974 1546.79 642.635 1545.65 641.644 1544.16C640.653 1542.66 640.157 1540.85 640.157 1538.73C640.157 1536.86 640.525 1535.34 641.262 1534.18C641.998 1533 642.982 1532.08 644.214 1531.42C645.447 1530.75 646.806 1530.26 648.293 1529.93C649.794 1529.59 651.303 1529.32 652.818 1529.12C654.801 1528.87 656.408 1528.68 657.64 1528.55C658.887 1528.41 659.793 1528.17 660.36 1527.85C660.94 1527.52 661.231 1526.96 661.231 1526.15V1525.98C661.231 1523.88 660.657 1522.25 659.51 1521.09C658.377 1519.93 656.656 1519.35 654.348 1519.35C651.954 1519.35 650.078 1519.88 648.718 1520.92C647.358 1521.97 646.402 1523.09 645.85 1524.28L641.092 1522.58C641.941 1520.6 643.074 1519.05 644.491 1517.95C645.921 1516.83 647.479 1516.05 649.164 1515.61C650.864 1515.16 652.535 1514.93 654.178 1514.93C655.226 1514.93 656.429 1515.06 657.789 1515.32C659.163 1515.56 660.487 1516.06 661.762 1516.82C663.05 1517.59 664.12 1518.74 664.969 1520.29C665.819 1521.83 666.244 1523.9 666.244 1526.49V1547.99H661.231V1543.57H660.976C660.636 1544.28 660.069 1545.04 659.276 1545.84C658.483 1546.65 657.428 1547.34 656.111 1547.9C654.794 1548.47 653.186 1548.75 651.289 1548.75ZM652.053 1544.25C654.036 1544.25 655.707 1543.86 657.067 1543.08C658.441 1542.3 659.474 1541.3 660.168 1540.06C660.876 1538.83 661.231 1537.54 661.231 1536.18V1531.59C661.018 1531.84 660.551 1532.08 659.828 1532.29C659.12 1532.49 658.299 1532.66 657.364 1532.82C656.444 1532.96 655.544 1533.09 654.666 1533.2C653.802 1533.3 653.101 1533.39 652.563 1533.46C651.26 1533.63 650.042 1533.9 648.909 1534.29C647.79 1534.65 646.884 1535.21 646.19 1535.96C645.51 1536.7 645.17 1537.71 645.17 1538.98C645.17 1540.72 645.815 1542.04 647.104 1542.93C648.406 1543.81 650.056 1544.25 652.053 1544.25ZM679.81 1528.36V1547.99H674.796V1515.36H679.64V1520.46H680.065C680.83 1518.8 681.991 1517.47 683.549 1516.46C685.107 1515.44 687.118 1514.93 689.582 1514.93C691.791 1514.93 693.724 1515.39 695.382 1516.29C697.039 1517.18 698.327 1518.54 699.248 1520.37C700.168 1522.18 700.629 1524.48 700.629 1527.25V1547.99H695.615V1527.59C695.615 1525.03 694.95 1523.03 693.618 1521.6C692.287 1520.16 690.46 1519.44 688.137 1519.44C686.537 1519.44 685.107 1519.78 683.846 1520.48C682.6 1521.17 681.616 1522.18 680.893 1523.52C680.171 1524.85 679.81 1526.46 679.81 1528.36ZM718.794 1548.75C716.726 1548.75 714.85 1548.36 713.164 1547.58C711.479 1546.79 710.141 1545.65 709.149 1544.16C708.158 1542.66 707.662 1540.85 707.662 1538.73C707.662 1536.86 708.03 1535.34 708.767 1534.18C709.503 1533 710.488 1532.08 711.72 1531.42C712.952 1530.75 714.311 1530.26 715.799 1529.93C717.3 1529.59 718.808 1529.32 720.323 1529.12C722.306 1528.87 723.914 1528.68 725.146 1528.55C726.392 1528.41 727.298 1528.17 727.865 1527.85C728.446 1527.52 728.736 1526.96 728.736 1526.15V1525.98C728.736 1523.88 728.162 1522.25 727.015 1521.09C725.882 1519.93 724.161 1519.35 721.853 1519.35C719.459 1519.35 717.583 1519.88 716.223 1520.92C714.864 1521.97 713.908 1523.09 713.355 1524.28L708.597 1522.58C709.447 1520.6 710.58 1519.05 711.996 1517.95C713.426 1516.83 714.984 1516.05 716.669 1515.61C718.369 1515.16 720.04 1514.93 721.683 1514.93C722.731 1514.93 723.935 1515.06 725.294 1515.32C726.668 1515.56 727.992 1516.06 729.267 1516.82C730.556 1517.59 731.625 1518.74 732.475 1520.29C733.324 1521.83 733.749 1523.9 733.749 1526.49V1547.99H728.736V1543.57H728.481C728.141 1544.28 727.575 1545.04 726.781 1545.84C725.988 1546.65 724.933 1547.34 723.616 1547.9C722.299 1548.47 720.692 1548.75 718.794 1548.75ZM719.559 1544.25C721.541 1544.25 723.213 1543.86 724.572 1543.08C725.946 1542.3 726.98 1541.3 727.674 1540.06C728.382 1538.83 728.736 1537.54 728.736 1536.18V1531.59C728.523 1531.84 728.056 1532.08 727.334 1532.29C726.626 1532.49 725.804 1532.66 724.87 1532.82C723.949 1532.96 723.05 1533.09 722.172 1533.2C721.308 1533.3 720.607 1533.39 720.068 1533.46C718.766 1533.63 717.548 1533.9 716.415 1534.29C715.296 1534.65 714.389 1535.21 713.695 1535.96C713.016 1536.7 712.676 1537.71 712.676 1538.98C712.676 1540.72 713.32 1542.04 714.609 1542.93C715.912 1543.81 717.562 1544.25 719.559 1544.25ZM755.473 1560.9C753.051 1560.9 750.969 1560.59 749.227 1559.97C747.485 1559.36 746.034 1558.55 744.872 1557.55C743.725 1556.56 742.812 1555.49 742.132 1554.36L746.126 1551.56C746.579 1552.15 747.152 1552.83 747.846 1553.6C748.54 1554.38 749.489 1555.05 750.693 1555.61C751.911 1556.2 753.504 1556.49 755.473 1556.49C758.107 1556.49 760.281 1555.85 761.995 1554.57C763.708 1553.3 764.565 1551.3 764.565 1548.58V1541.95H764.14C763.772 1542.55 763.248 1543.29 762.568 1544.16C761.903 1545.03 760.94 1545.8 759.679 1546.48C758.433 1547.15 756.747 1547.48 754.623 1547.48C751.989 1547.48 749.624 1546.86 747.528 1545.61C745.446 1544.36 743.796 1542.55 742.578 1540.17C741.374 1537.79 740.772 1534.9 740.772 1531.5C740.772 1528.16 741.36 1525.25 742.535 1522.77C743.711 1520.28 745.347 1518.35 747.443 1516.99C749.539 1515.62 751.961 1514.93 754.708 1514.93C756.832 1514.93 758.518 1515.29 759.764 1516C761.024 1516.69 761.988 1517.48 762.653 1518.37C763.333 1519.25 763.857 1519.97 764.225 1520.54H764.735V1515.36H769.579V1548.92C769.579 1551.73 768.941 1554.01 767.667 1555.76C766.406 1557.53 764.707 1558.83 762.568 1559.65C760.444 1560.49 758.079 1560.9 755.473 1560.9ZM755.303 1542.97C757.314 1542.97 759.013 1542.51 760.401 1541.59C761.789 1540.67 762.844 1539.35 763.567 1537.62C764.289 1535.89 764.65 1533.83 764.65 1531.42C764.65 1529.07 764.296 1526.99 763.588 1525.19C762.88 1523.4 761.832 1521.99 760.444 1520.97C759.056 1519.95 757.342 1519.44 755.303 1519.44C753.179 1519.44 751.408 1519.97 749.992 1521.05C748.59 1522.13 747.535 1523.57 746.827 1525.38C746.133 1527.2 745.786 1529.21 745.786 1531.42C745.786 1533.68 746.14 1535.69 746.848 1537.43C747.57 1539.16 748.632 1540.52 750.034 1541.51C751.451 1542.49 753.207 1542.97 755.303 1542.97ZM791.838 1548.67C788.694 1548.67 785.982 1547.97 783.702 1546.59C781.436 1545.18 779.687 1543.23 778.455 1540.72C777.237 1538.2 776.628 1535.27 776.628 1531.93C776.628 1528.59 777.237 1525.64 778.455 1523.09C779.687 1520.53 781.401 1518.53 783.596 1517.1C785.805 1515.66 788.383 1514.93 791.329 1514.93C793.028 1514.93 794.706 1515.22 796.363 1515.78C798.02 1516.35 799.529 1517.27 800.888 1518.54C802.248 1519.8 803.331 1521.48 804.139 1523.56C804.946 1525.64 805.349 1528.2 805.349 1531.25V1533.37H780.197V1529.04H800.251C800.251 1527.2 799.883 1525.55 799.146 1524.11C798.424 1522.67 797.39 1521.53 796.045 1520.69C794.713 1519.85 793.141 1519.44 791.329 1519.44C789.332 1519.44 787.604 1519.93 786.145 1520.92C784.701 1521.9 783.589 1523.18 782.81 1524.75C782.031 1526.32 781.642 1528 781.642 1529.8V1532.69C781.642 1535.16 782.066 1537.25 782.916 1538.96C783.78 1540.66 784.977 1541.95 786.506 1542.85C788.036 1543.73 789.813 1544.16 791.838 1544.16C793.156 1544.16 794.345 1543.98 795.407 1543.61C796.484 1543.23 797.411 1542.66 798.19 1541.91C798.969 1541.15 799.571 1540.2 799.996 1539.07L804.84 1540.43C804.33 1542.07 803.473 1543.51 802.269 1544.76C801.065 1545.99 799.578 1546.95 797.808 1547.65C796.038 1548.33 794.048 1548.67 791.838 1548.67ZM812.378 1547.99V1515.36H817.221V1520.29H817.561C818.156 1518.67 819.232 1517.36 820.79 1516.36C822.348 1515.35 824.104 1514.85 826.058 1514.85C826.427 1514.85 826.887 1514.86 827.439 1514.87C827.992 1514.88 828.409 1514.9 828.693 1514.93V1520.03C828.523 1519.99 828.133 1519.93 827.524 1519.84C826.929 1519.74 826.299 1519.69 825.634 1519.69C824.047 1519.69 822.631 1520.02 821.385 1520.69C820.153 1521.34 819.176 1522.25 818.453 1523.41C817.745 1524.56 817.391 1525.87 817.391 1527.34V1547.99H812.378Z" fill="#3D77C2"/>
<circle cx="2053.35" cy="1460.35" r="209.377" fill="#EBF4FF" stroke="#CFE4FE" stroke-width="15.9525"/>
<path d="M1907.23 1447.85C1906.98 1445.69 1905.94 1444.02 1904.13 1442.83C1902.32 1441.64 1900.1 1441.05 1897.46 1441.05C1895.54 1441.05 1893.85 1441.36 1892.41 1441.98C1890.98 1442.61 1889.86 1443.46 1889.05 1444.55C1888.26 1445.65 1887.86 1446.88 1887.86 1448.27C1887.86 1449.43 1888.14 1450.43 1888.69 1451.27C1889.25 1452.09 1889.98 1452.78 1890.85 1453.33C1891.73 1453.87 1892.65 1454.31 1893.62 1454.67C1894.58 1455.01 1895.46 1455.28 1896.27 1455.5L1900.69 1456.68C1901.82 1456.98 1903.08 1457.39 1904.47 1457.92C1905.87 1458.44 1907.21 1459.16 1908.49 1460.06C1909.78 1460.95 1910.84 1462.1 1911.67 1463.5C1912.51 1464.91 1912.93 1466.63 1912.93 1468.67C1912.93 1471.02 1912.31 1473.14 1911.08 1475.04C1909.86 1476.94 1908.08 1478.45 1905.73 1479.56C1903.39 1480.68 1900.55 1481.24 1897.21 1481.24C1894.09 1481.24 1891.39 1480.74 1889.11 1479.73C1886.85 1478.73 1885.06 1477.33 1883.76 1475.53C1882.47 1473.73 1881.74 1471.64 1881.57 1469.26H1887.01C1887.15 1470.9 1887.7 1472.26 1888.67 1473.34C1889.64 1474.4 1890.88 1475.2 1892.36 1475.72C1893.86 1476.23 1895.48 1476.48 1897.21 1476.48C1899.22 1476.48 1901.02 1476.16 1902.62 1475.51C1904.22 1474.84 1905.49 1473.92 1906.43 1472.75C1907.36 1471.56 1907.83 1470.17 1907.83 1468.58C1907.83 1467.14 1907.42 1465.96 1906.62 1465.05C1905.81 1464.15 1904.75 1463.41 1903.43 1462.85C1902.11 1462.28 1900.69 1461.78 1899.16 1461.36L1893.81 1459.83C1890.41 1458.85 1887.72 1457.46 1885.74 1455.64C1883.75 1453.83 1882.76 1451.46 1882.76 1448.53C1882.76 1446.09 1883.42 1443.97 1884.74 1442.15C1886.07 1440.33 1887.85 1438.91 1890.09 1437.91C1892.34 1436.89 1894.86 1436.38 1897.63 1436.38C1900.44 1436.38 1902.93 1436.88 1905.11 1437.88C1907.29 1438.88 1909.02 1440.24 1910.29 1441.96C1911.58 1443.69 1912.26 1445.65 1912.33 1447.85H1907.23ZM1940.87 1467.14V1447.85H1945.89V1480.48H1940.87V1474.95H1940.53C1939.77 1476.61 1938.58 1478.02 1936.97 1479.18C1935.35 1480.33 1933.31 1480.9 1930.85 1480.9C1928.81 1480.9 1927 1480.46 1925.41 1479.56C1923.82 1478.66 1922.58 1477.3 1921.67 1475.49C1920.76 1473.66 1920.31 1471.36 1920.31 1468.58V1447.85H1925.32V1468.24C1925.32 1470.62 1925.99 1472.52 1927.32 1473.93C1928.67 1475.35 1930.38 1476.06 1932.46 1476.06C1933.71 1476.06 1934.98 1475.74 1936.26 1475.1C1937.57 1474.47 1938.66 1473.49 1939.54 1472.17C1940.43 1470.85 1940.87 1469.18 1940.87 1467.14ZM1954.47 1492.71V1447.85H1959.32V1453.03H1959.91C1960.28 1452.46 1960.79 1451.74 1961.44 1450.86C1962.11 1449.97 1963.05 1449.18 1964.29 1448.48C1965.53 1447.78 1967.22 1447.42 1969.34 1447.42C1972.09 1447.42 1974.51 1448.11 1976.61 1449.48C1978.7 1450.86 1980.34 1452.8 1981.52 1455.33C1982.69 1457.85 1983.28 1460.82 1983.28 1464.25C1983.28 1467.7 1982.69 1470.7 1981.52 1473.23C1980.34 1475.75 1978.71 1477.71 1976.63 1479.1C1974.55 1480.47 1972.15 1481.16 1969.43 1481.16C1967.33 1481.16 1965.65 1480.81 1964.39 1480.12C1963.13 1479.41 1962.16 1478.61 1961.48 1477.72C1960.8 1476.81 1960.28 1476.06 1959.91 1475.46H1959.49V1492.71H1954.47ZM1959.4 1464.16C1959.4 1466.63 1959.76 1468.8 1960.48 1470.68C1961.21 1472.55 1962.26 1474.02 1963.65 1475.08C1965.04 1476.13 1966.74 1476.65 1968.75 1476.65C1970.84 1476.65 1972.59 1476.1 1974 1475C1975.41 1473.88 1976.47 1472.38 1977.18 1470.49C1977.9 1468.6 1978.27 1466.49 1978.27 1464.16C1978.27 1461.87 1977.91 1459.8 1977.2 1457.96C1976.51 1456.1 1975.45 1454.64 1974.04 1453.56C1972.64 1452.47 1970.87 1451.93 1968.75 1451.93C1966.71 1451.93 1965 1452.44 1963.61 1453.48C1962.22 1454.5 1961.17 1455.93 1960.46 1457.77C1959.76 1459.6 1959.4 1461.73 1959.4 1464.16ZM2004.01 1481.16C2000.87 1481.16 1998.15 1480.46 1995.87 1479.08C1993.61 1477.67 1991.86 1475.72 1990.63 1473.21C1989.41 1470.69 1988.8 1467.76 1988.8 1464.42C1988.8 1461.08 1989.41 1458.13 1990.63 1455.58C1991.86 1453.02 1993.57 1451.02 1995.77 1449.59C1997.98 1448.15 2000.55 1447.42 2003.5 1447.42C2005.2 1447.42 2006.88 1447.71 2008.53 1448.27C2010.19 1448.84 2011.7 1449.76 2013.06 1451.03C2014.42 1452.29 2015.5 1453.97 2016.31 1456.05C2017.12 1458.13 2017.52 1460.69 2017.52 1463.74V1465.86H1992.37V1461.53H2012.42C2012.42 1459.69 2012.05 1458.04 2011.32 1456.6C2010.59 1455.16 2009.56 1454.02 2008.22 1453.18C2006.88 1452.34 2005.31 1451.93 2003.5 1451.93C2001.5 1451.93 1999.77 1452.42 1998.32 1453.41C1996.87 1454.39 1995.76 1455.67 1994.98 1457.24C1994.2 1458.81 1993.81 1460.49 1993.81 1462.29V1465.18C1993.81 1467.65 1994.24 1469.74 1995.09 1471.45C1995.95 1473.15 1997.15 1474.44 1998.68 1475.34C2000.21 1476.21 2001.98 1476.65 2004.01 1476.65C2005.33 1476.65 2006.52 1476.47 2007.58 1476.1C2008.65 1475.72 2009.58 1475.15 2010.36 1474.4C2011.14 1473.64 2011.74 1472.69 2012.17 1471.56L2017.01 1472.92C2016.5 1474.56 2015.64 1476 2014.44 1477.25C2013.24 1478.48 2011.75 1479.44 2009.98 1480.14C2008.21 1480.82 2006.22 1481.16 2004.01 1481.16ZM2024.55 1480.48V1447.85H2029.39V1452.78H2029.73C2030.33 1451.16 2031.4 1449.85 2032.96 1448.85C2034.52 1447.84 2036.27 1447.34 2038.23 1447.34C2038.6 1447.34 2039.06 1447.34 2039.61 1447.36C2040.16 1447.37 2040.58 1447.39 2040.86 1447.42V1452.52C2040.69 1452.48 2040.3 1452.41 2039.7 1452.33C2039.1 1452.23 2038.47 1452.18 2037.8 1452.18C2036.22 1452.18 2034.8 1452.51 2033.56 1453.18C2032.32 1453.83 2031.35 1454.74 2030.62 1455.9C2029.92 1457.05 2029.56 1458.36 2029.56 1459.83V1480.48H2024.55ZM2073.88 1447.85L2061.82 1480.48H2056.72L2044.65 1447.85H2050.09L2059.1 1473.85H2059.44L2068.44 1447.85H2073.88ZM2079.9 1480.48V1447.85H2084.92V1480.48H2079.9ZM2082.45 1442.41C2081.47 1442.41 2080.63 1442.08 2079.92 1441.41C2079.23 1440.75 2078.88 1439.95 2078.88 1439.01C2078.88 1438.08 2079.23 1437.28 2079.92 1436.61C2080.63 1435.94 2081.47 1435.61 2082.45 1435.61C2083.43 1435.61 2084.26 1435.94 2084.96 1436.61C2085.67 1437.28 2086.02 1438.08 2086.02 1439.01C2086.02 1439.95 2085.67 1440.75 2084.96 1441.41C2084.26 1442.08 2083.43 1442.41 2082.45 1442.41ZM2116.61 1455.16L2112.11 1456.43C2111.83 1455.68 2111.41 1454.95 2110.86 1454.24C2110.32 1453.52 2109.58 1452.92 2108.65 1452.46C2107.71 1451.99 2106.52 1451.76 2105.06 1451.76C2103.06 1451.76 2101.4 1452.22 2100.06 1453.14C2098.75 1454.04 2098.09 1455.2 2098.09 1456.6C2098.09 1457.85 2098.54 1458.83 2099.45 1459.55C2100.35 1460.28 2101.77 1460.88 2103.7 1461.36L2108.54 1462.55C2111.46 1463.26 2113.63 1464.34 2115.06 1465.8C2116.49 1467.24 2117.21 1469.11 2117.21 1471.39C2117.21 1473.25 2116.67 1474.93 2115.59 1476.4C2114.53 1477.87 2113.04 1479.03 2111.13 1479.88C2109.22 1480.73 2107 1481.16 2104.46 1481.16C2101.13 1481.16 2098.38 1480.44 2096.2 1478.99C2094.02 1477.55 2092.64 1475.44 2092.06 1472.66L2096.81 1471.47C2097.27 1473.23 2098.12 1474.54 2099.38 1475.42C2100.66 1476.3 2102.32 1476.74 2104.38 1476.74C2106.71 1476.74 2108.57 1476.24 2109.94 1475.25C2111.33 1474.25 2112.02 1473.04 2112.02 1471.64C2112.02 1470.51 2111.63 1469.56 2110.83 1468.79C2110.04 1468.01 2108.82 1467.43 2107.18 1467.05L2101.74 1465.78C2098.75 1465.07 2096.56 1463.97 2095.16 1462.48C2093.77 1460.98 2093.08 1459.11 2093.08 1456.85C2093.08 1455.01 2093.59 1453.39 2094.63 1451.97C2095.67 1450.55 2097.1 1449.44 2098.9 1448.63C2100.71 1447.83 2102.76 1447.42 2105.06 1447.42C2108.29 1447.42 2110.82 1448.13 2112.66 1449.55C2114.52 1450.96 2115.83 1452.83 2116.61 1455.16ZM2137.41 1481.16C2134.47 1481.16 2131.88 1480.46 2129.66 1479.05C2127.45 1477.65 2125.72 1475.69 2124.48 1473.17C2123.24 1470.65 2122.63 1467.7 2122.63 1464.33C2122.63 1460.93 2123.24 1457.97 2124.48 1455.43C2125.72 1452.9 2127.45 1450.93 2129.66 1449.53C2131.88 1448.12 2134.47 1447.42 2137.41 1447.42C2140.36 1447.42 2142.94 1448.12 2145.15 1449.53C2147.37 1450.93 2149.1 1452.9 2150.33 1455.43C2151.57 1457.97 2152.2 1460.93 2152.2 1464.33C2152.2 1467.7 2151.57 1470.65 2150.33 1473.17C2149.1 1475.69 2147.37 1477.65 2145.15 1479.05C2142.94 1480.46 2140.36 1481.16 2137.41 1481.16ZM2137.41 1476.65C2139.65 1476.65 2141.49 1476.08 2142.94 1474.93C2144.38 1473.79 2145.45 1472.28 2146.14 1470.41C2146.84 1468.54 2147.18 1466.51 2147.18 1464.33C2147.18 1462.15 2146.84 1460.12 2146.14 1458.24C2145.45 1456.35 2144.38 1454.83 2142.94 1453.67C2141.49 1452.51 2139.65 1451.93 2137.41 1451.93C2135.17 1451.93 2133.33 1452.51 2131.89 1453.67C2130.44 1454.83 2129.38 1456.35 2128.68 1458.24C2127.99 1460.12 2127.64 1462.15 2127.64 1464.33C2127.64 1466.51 2127.99 1468.54 2128.68 1470.41C2129.38 1472.28 2130.44 1473.79 2131.89 1474.93C2133.33 1476.08 2135.17 1476.65 2137.41 1476.65ZM2159.25 1480.48V1447.85H2164.1V1452.78H2164.44C2165.03 1451.16 2166.11 1449.85 2167.67 1448.85C2169.22 1447.84 2170.98 1447.34 2172.93 1447.34C2173.3 1447.34 2173.76 1447.34 2174.31 1447.36C2174.87 1447.37 2175.28 1447.39 2175.57 1447.42V1452.52C2175.4 1452.48 2175.01 1452.41 2174.4 1452.33C2173.8 1452.23 2173.17 1452.18 2172.51 1452.18C2170.92 1452.18 2169.51 1452.51 2168.26 1453.18C2167.03 1453.83 2166.05 1454.74 2165.33 1455.9C2164.62 1457.05 2164.27 1458.36 2164.27 1459.83V1480.48H2159.25ZM2204.03 1455.16L2199.52 1456.43C2199.24 1455.68 2198.82 1454.95 2198.27 1454.24C2197.73 1453.52 2196.99 1452.92 2196.06 1452.46C2195.12 1451.99 2193.93 1451.76 2192.47 1451.76C2190.47 1451.76 2188.81 1452.22 2187.48 1453.14C2186.16 1454.04 2185.5 1455.2 2185.5 1456.6C2185.5 1457.85 2185.95 1458.83 2186.86 1459.55C2187.77 1460.28 2189.18 1460.88 2191.11 1461.36L2195.95 1462.55C2198.87 1463.26 2201.04 1464.34 2202.47 1465.8C2203.91 1467.24 2204.62 1469.11 2204.62 1471.39C2204.62 1473.25 2204.08 1474.93 2203.01 1476.4C2201.94 1477.87 2200.46 1479.03 2198.54 1479.88C2196.63 1480.73 2194.41 1481.16 2191.87 1481.16C2188.55 1481.16 2185.79 1480.44 2183.61 1478.99C2181.43 1477.55 2180.05 1475.44 2179.47 1472.66L2184.23 1471.47C2184.68 1473.23 2185.54 1474.54 2186.8 1475.42C2188.07 1476.3 2189.74 1476.74 2191.79 1476.74C2194.13 1476.74 2195.98 1476.24 2197.36 1475.25C2198.74 1474.25 2199.44 1473.04 2199.44 1471.64C2199.44 1470.51 2199.04 1469.56 2198.25 1468.79C2197.45 1468.01 2196.24 1467.43 2194.59 1467.05L2189.16 1465.78C2186.17 1465.07 2183.97 1463.97 2182.57 1462.48C2181.18 1460.98 2180.49 1459.11 2180.49 1456.85C2180.49 1455.01 2181 1453.39 2182.04 1451.97C2183.09 1450.55 2184.51 1449.44 2186.31 1448.63C2188.12 1447.83 2190.17 1447.42 2192.47 1447.42C2195.7 1447.42 2198.23 1448.13 2200.07 1449.55C2201.93 1450.96 2203.25 1452.83 2204.03 1455.16Z" fill="#3D77C2"/>
<path d="M2030.62 1694.13C2030.62 1705.87 2040.15 1715.4 2051.89 1715.4C2063.64 1715.4 2073.16 1705.87 2073.16 1694.13C2073.16 1682.38 2063.64 1672.86 2051.89 1672.86C2040.15 1672.86 2030.62 1682.38 2030.62 1694.13ZM2030.62 1765.91C2030.62 1777.66 2040.15 1787.18 2051.89 1787.18C2063.64 1787.18 2073.16 1777.66 2073.16 1765.91C2073.16 1754.17 2063.64 1744.64 2051.89 1744.64C2040.15 1744.64 2030.62 1754.17 2030.62 1765.91ZM2047.9 1694.13L2047.9 1765.91L2055.88 1765.91L2055.88 1694.13L2047.9 1694.13Z" fill="#E5B300"/>
<path d="M2612.23 1977.95C2600.48 1977.95 2590.96 1987.47 2590.96 1999.22C2590.96 2010.97 2600.48 2020.49 2612.23 2020.49C2623.97 2020.49 2633.5 2010.97 2633.5 1999.22C2633.5 1987.47 2623.97 1977.95 2612.23 1977.95ZM2285.2 1977.95C2273.45 1977.95 2263.93 1987.47 2263.93 1999.22C2263.93 2010.97 2273.45 2020.49 2285.2 2020.49C2296.95 2020.49 2306.47 2010.97 2306.47 1999.22C2306.47 1987.47 2296.95 1977.95 2285.2 1977.95ZM2612.23 1995.23H2285.2V2003.21H2612.23V1995.23Z" fill="#E5B300"/>
<path d="M1818.59 1977.95C1806.84 1977.95 1797.32 1987.47 1797.32 1999.22C1797.32 2010.97 1806.84 2020.49 1818.59 2020.49C1830.33 2020.49 1839.86 2010.97 1839.86 1999.22C1839.86 1987.47 1830.33 1977.95 1818.59 1977.95ZM727.834 1977.95C716.087 1977.95 706.564 1987.47 706.564 1999.22C706.564 2010.97 716.087 2020.49 727.834 2020.49C739.581 2020.49 749.104 2010.97 749.104 1999.22C749.104 1987.47 739.581 1977.95 727.834 1977.95ZM1818.59 1995.23H727.834V2003.21H1818.59V1995.23Z" fill="#E5B300"/>
<path d="M1827.72 1980.01C1817.11 1974.97 1804.42 1979.48 1799.38 1990.09C1794.33 2000.7 1798.85 2013.39 1809.46 2018.43C1820.07 2023.47 1832.75 2018.96 1837.8 2008.35C1842.84 1997.74 1838.33 1985.05 1827.72 1980.01ZM938.366 1557.27C927.756 1552.22 915.067 1556.74 910.024 1567.35C904.981 1577.96 909.493 1590.65 920.103 1595.69C930.712 1600.73 943.401 1596.22 948.444 1585.61C953.488 1575 948.975 1562.31 938.366 1557.27ZM1820.3 1995.62L930.946 1572.88L927.522 1580.08L1816.88 2002.82L1820.3 1995.62Z" fill="#E5B300"/>
<path d="M1313.45 256.94V241.727H1385.12V256.94H1358.4V329H1340.16V256.94H1313.45ZM1412.34 291.159V329H1394.18V241.727H1411.83V275.094H1412.59C1414.07 271.23 1416.46 268.205 1419.75 266.017C1423.05 263.801 1427.18 262.693 1432.15 262.693C1436.7 262.693 1440.66 263.688 1444.04 265.676C1447.45 267.636 1450.09 270.463 1451.97 274.156C1453.87 277.821 1454.81 282.21 1454.78 287.324V329H1436.63V290.562C1436.66 286.528 1435.63 283.389 1433.56 281.145C1431.51 278.901 1428.64 277.778 1424.95 277.778C1422.48 277.778 1420.29 278.304 1418.39 279.355C1416.51 280.406 1415.04 281.94 1413.96 283.957C1412.91 285.946 1412.37 288.347 1412.34 291.159ZM1496.5 330.278C1489.76 330.278 1483.97 328.915 1479.11 326.188C1474.28 323.432 1470.56 319.54 1467.95 314.511C1465.33 309.455 1464.03 303.474 1464.03 296.571C1464.03 289.838 1465.33 283.929 1467.95 278.844C1470.56 273.759 1474.24 269.795 1478.98 266.955C1483.76 264.114 1489.35 262.693 1495.77 262.693C1500.09 262.693 1504.11 263.389 1507.83 264.781C1511.58 266.145 1514.85 268.205 1517.63 270.96C1520.45 273.716 1522.63 277.182 1524.2 281.358C1525.76 285.506 1526.54 290.364 1526.54 295.932V300.918H1471.27V289.668H1509.45C1509.45 287.054 1508.88 284.739 1507.75 282.722C1506.61 280.705 1505.03 279.128 1503.02 277.991C1501.03 276.827 1498.71 276.244 1496.07 276.244C1493.31 276.244 1490.87 276.884 1488.74 278.162C1486.64 279.412 1484.99 281.102 1483.8 283.233C1482.6 285.335 1481.99 287.679 1481.97 290.264V300.96C1481.97 304.199 1482.56 306.997 1483.76 309.355C1484.98 311.713 1486.7 313.531 1488.91 314.81C1491.13 316.088 1493.76 316.727 1496.79 316.727C1498.81 316.727 1500.66 316.443 1502.33 315.875C1504.01 315.307 1505.45 314.455 1506.64 313.318C1507.83 312.182 1508.74 310.79 1509.37 309.142L1526.16 310.25C1525.3 314.284 1523.56 317.807 1520.91 320.818C1518.3 323.801 1514.92 326.131 1510.77 327.807C1506.65 329.455 1501.89 330.278 1496.5 330.278ZM1561.7 329V241.727H1620.51V256.94H1580.15V277.736H1617.48V292.949H1580.15V313.787H1620.68V329H1561.7ZM1650.59 291.159V329H1632.44V263.545H1649.74V275.094H1650.5C1651.95 271.287 1654.38 268.276 1657.79 266.06C1661.2 263.815 1665.33 262.693 1670.19 262.693C1674.74 262.693 1678.7 263.688 1682.08 265.676C1685.46 267.665 1688.09 270.506 1689.96 274.199C1691.84 277.864 1692.78 282.239 1692.78 287.324V329H1674.62V290.562C1674.65 286.557 1673.63 283.432 1671.56 281.188C1669.48 278.915 1666.63 277.778 1662.99 277.778C1660.55 277.778 1658.39 278.304 1656.51 279.355C1654.67 280.406 1653.22 281.94 1652.17 283.957C1651.14 285.946 1650.62 288.347 1650.59 291.159ZM1739.5 263.545V277.182H1700.08V263.545H1739.5ZM1709.03 247.864H1727.18V308.886C1727.18 310.562 1727.44 311.869 1727.95 312.807C1728.46 313.716 1729.17 314.355 1730.08 314.724C1731.02 315.094 1732.1 315.278 1733.32 315.278C1734.17 315.278 1735.03 315.207 1735.88 315.065C1736.73 314.895 1737.38 314.767 1737.84 314.682L1740.69 328.19C1739.78 328.474 1738.51 328.801 1736.86 329.17C1735.21 329.568 1733.21 329.81 1730.85 329.895C1726.47 330.065 1722.64 329.483 1719.34 328.148C1716.08 326.812 1713.53 324.739 1711.72 321.926C1709.9 319.114 1709 315.562 1709.03 311.273V247.864ZM1778.05 330.278C1771.32 330.278 1765.52 328.915 1760.66 326.188C1755.84 323.432 1752.11 319.54 1749.5 314.511C1746.89 309.455 1745.58 303.474 1745.58 296.571C1745.58 289.838 1746.89 283.929 1749.5 278.844C1752.11 273.759 1755.79 269.795 1760.54 266.955C1765.31 264.114 1770.91 262.693 1777.33 262.693C1781.65 262.693 1785.66 263.389 1789.39 264.781C1793.14 266.145 1796.4 268.205 1799.19 270.96C1802 273.716 1804.19 277.182 1805.75 281.358C1807.31 285.506 1808.09 290.364 1808.09 295.932V300.918H1752.82V289.668H1791.01C1791.01 287.054 1790.44 284.739 1789.3 282.722C1788.16 280.705 1786.59 279.128 1784.57 277.991C1782.58 276.827 1780.27 276.244 1777.63 276.244C1774.87 276.244 1772.43 276.884 1770.3 278.162C1768.19 279.412 1766.55 281.102 1765.35 283.233C1764.16 285.335 1763.55 287.679 1763.52 290.264V300.96C1763.52 304.199 1764.12 306.997 1765.31 309.355C1766.53 311.713 1768.25 313.531 1770.47 314.81C1772.68 316.088 1775.31 316.727 1778.35 316.727C1780.37 316.727 1782.21 316.443 1783.89 315.875C1785.57 315.307 1787 314.455 1788.19 313.318C1789.39 312.182 1790.3 310.79 1790.92 309.142L1807.71 310.25C1806.86 314.284 1805.11 317.807 1802.47 320.818C1799.86 323.801 1796.47 326.131 1792.33 327.807C1788.21 329.455 1783.45 330.278 1778.05 330.278ZM1817.54 329V263.545H1835.14V274.966H1835.82C1837.01 270.903 1839.02 267.835 1841.83 265.761C1844.64 263.659 1847.88 262.608 1851.55 262.608C1852.46 262.608 1853.44 262.665 1854.49 262.778C1855.54 262.892 1856.46 263.048 1857.26 263.247V279.355C1856.4 279.099 1855.23 278.872 1853.72 278.673C1852.21 278.474 1850.84 278.375 1849.59 278.375C1846.92 278.375 1844.53 278.957 1842.43 280.122C1840.35 281.259 1838.71 282.849 1837.48 284.895C1836.29 286.94 1835.69 289.298 1835.69 291.969V329H1817.54ZM1864.24 353.545V263.545H1882.14V274.54H1882.95C1883.74 272.778 1884.9 270.989 1886.4 269.17C1887.94 267.324 1889.92 265.79 1892.37 264.568C1894.84 263.318 1897.91 262.693 1901.57 262.693C1906.34 262.693 1910.75 263.943 1914.78 266.443C1918.82 268.915 1922.04 272.651 1924.46 277.651C1926.87 282.622 1928.08 288.858 1928.08 296.358C1928.08 303.659 1926.9 309.824 1924.54 314.852C1922.21 319.852 1919.03 323.645 1914.99 326.23C1910.99 328.787 1906.5 330.065 1901.53 330.065C1898.01 330.065 1895.01 329.483 1892.54 328.318C1890.09 327.153 1888.09 325.69 1886.53 323.929C1884.97 322.139 1883.77 320.335 1882.95 318.517H1882.4V353.545H1864.24ZM1882.01 296.273C1882.01 300.165 1882.55 303.56 1883.63 306.457C1884.71 309.355 1886.27 311.614 1888.32 313.233C1890.36 314.824 1892.85 315.619 1895.78 315.619C1898.73 315.619 1901.23 314.81 1903.28 313.19C1905.32 311.543 1906.87 309.27 1907.92 306.372C1909 303.446 1909.54 300.08 1909.54 296.273C1909.54 292.494 1909.01 289.17 1907.96 286.301C1906.91 283.432 1905.36 281.187 1903.32 279.568C1901.27 277.949 1898.76 277.139 1895.78 277.139C1892.82 277.139 1890.32 277.92 1888.28 279.483C1886.26 281.045 1884.71 283.261 1883.63 286.131C1882.55 289 1882.01 292.381 1882.01 296.273ZM1937.78 329V263.545H1955.38V274.966H1956.06C1957.25 270.903 1959.26 267.835 1962.07 265.761C1964.88 263.659 1968.12 262.608 1971.79 262.608C1972.69 262.608 1973.67 262.665 1974.73 262.778C1975.78 262.892 1976.7 263.048 1977.5 263.247V279.355C1976.64 279.099 1975.46 278.872 1973.96 278.673C1972.45 278.474 1971.08 278.375 1969.83 278.375C1967.15 278.375 1964.77 278.957 1962.67 280.122C1960.59 281.259 1958.94 282.849 1957.72 284.895C1956.53 286.94 1955.93 289.298 1955.93 291.969V329H1937.78ZM1984.48 329V263.545H2002.63V329H1984.48ZM1993.6 255.108C1990.9 255.108 1988.59 254.213 1986.65 252.423C1984.75 250.605 1983.8 248.432 1983.8 245.903C1983.8 243.403 1984.75 241.259 1986.65 239.469C1988.59 237.651 1990.9 236.741 1993.6 236.741C1996.3 236.741 1998.6 237.651 2000.5 239.469C2002.44 241.259 2003.4 243.403 2003.4 245.903C2003.4 248.432 2002.44 250.605 2000.5 252.423C1998.6 254.213 1996.3 255.108 1993.6 255.108ZM2069.24 282.21L2052.62 283.233C2052.33 281.812 2051.72 280.534 2050.79 279.398C2049.85 278.233 2048.61 277.31 2047.08 276.628C2045.57 275.918 2043.77 275.562 2041.67 275.562C2038.85 275.562 2036.48 276.159 2034.55 277.352C2032.62 278.517 2031.65 280.08 2031.65 282.04C2031.65 283.602 2032.28 284.923 2033.53 286.003C2034.78 287.082 2036.92 287.949 2039.96 288.602L2051.81 290.989C2058.17 292.295 2062.92 294.398 2066.04 297.295C2069.17 300.193 2070.73 304 2070.73 308.716C2070.73 313.006 2069.46 316.77 2066.94 320.009C2064.44 323.247 2061 325.776 2056.62 327.594C2052.28 329.384 2047.26 330.278 2041.58 330.278C2032.92 330.278 2026.01 328.474 2020.87 324.866C2015.76 321.23 2012.76 316.287 2011.88 310.037L2029.73 309.099C2030.27 311.741 2031.58 313.759 2033.65 315.151C2035.73 316.514 2038.38 317.196 2041.62 317.196C2044.8 317.196 2047.36 316.585 2049.29 315.364C2051.25 314.114 2052.25 312.509 2052.28 310.548C2052.25 308.901 2051.55 307.551 2050.19 306.5C2048.82 305.42 2046.72 304.597 2043.88 304.028L2032.55 301.77C2026.15 300.491 2021.4 298.276 2018.27 295.122C2015.17 291.969 2013.63 287.949 2013.63 283.062C2013.63 278.858 2014.76 275.236 2017.04 272.196C2019.34 269.156 2022.56 266.812 2026.71 265.165C2030.88 263.517 2035.77 262.693 2041.37 262.693C2049.63 262.693 2056.14 264.44 2060.88 267.935C2065.66 271.429 2068.44 276.187 2069.24 282.21ZM2109.59 330.278C2102.86 330.278 2097.06 328.915 2092.2 326.188C2087.37 323.432 2083.65 319.54 2081.04 314.511C2078.42 309.455 2077.12 303.474 2077.12 296.571C2077.12 289.838 2078.42 283.929 2081.04 278.844C2083.65 273.759 2087.33 269.795 2092.07 266.955C2096.85 264.114 2102.44 262.693 2108.86 262.693C2113.18 262.693 2117.2 263.389 2120.92 264.781C2124.67 266.145 2127.94 268.205 2130.73 270.96C2133.54 273.716 2135.73 277.182 2137.29 281.358C2138.85 285.506 2139.63 290.364 2139.63 295.932V300.918H2084.36V289.668H2122.54C2122.54 287.054 2121.98 284.739 2120.84 282.722C2119.7 280.705 2118.13 279.128 2116.11 277.991C2114.12 276.827 2111.8 276.244 2109.16 276.244C2106.41 276.244 2103.96 276.884 2101.83 278.162C2099.73 279.412 2098.08 281.102 2096.89 283.233C2095.7 285.335 2095.09 287.679 2095.06 290.264V300.96C2095.06 304.199 2095.65 306.997 2096.85 309.355C2098.07 311.713 2099.79 313.531 2102 314.81C2104.22 316.088 2106.85 316.727 2109.89 316.727C2111.9 316.727 2113.75 316.443 2115.43 315.875C2117.1 315.307 2118.54 314.455 2119.73 313.318C2120.92 312.182 2121.83 310.79 2122.46 309.142L2139.25 310.25C2138.4 314.284 2136.65 317.807 2134.01 320.818C2131.39 323.801 2128.01 326.131 2123.86 327.807C2119.75 329.455 2114.99 330.278 2109.59 330.278ZM2174.79 329V241.727H2233.6V256.94H2193.24V277.736H2230.57V292.949H2193.24V313.787H2233.77V329H2174.79ZM2275.1 330.278C2268.4 330.278 2262.63 328.858 2257.8 326.017C2253 323.148 2249.31 319.17 2246.72 314.085C2244.16 309 2242.89 303.148 2242.89 296.528C2242.89 289.824 2244.18 283.943 2246.76 278.886C2249.38 273.801 2253.08 269.838 2257.89 266.997C2262.69 264.128 2268.4 262.693 2275.02 262.693C2280.73 262.693 2285.73 263.73 2290.02 265.804C2294.31 267.878 2297.7 270.79 2300.2 274.54C2302.7 278.29 2304.08 282.693 2304.33 287.75H2287.2C2286.72 284.483 2285.44 281.855 2283.37 279.866C2281.32 277.849 2278.64 276.841 2275.31 276.841C2272.5 276.841 2270.05 277.608 2267.94 279.142C2265.87 280.648 2264.25 282.849 2263.08 285.747C2261.92 288.645 2261.34 292.153 2261.34 296.273C2261.34 300.449 2261.91 304 2263.04 306.926C2264.21 309.852 2265.84 312.082 2267.94 313.616C2270.05 315.151 2272.5 315.918 2275.31 315.918C2277.39 315.918 2279.25 315.491 2280.9 314.639C2282.57 313.787 2283.95 312.551 2285.03 310.932C2286.14 309.284 2286.86 307.31 2287.2 305.009H2304.33C2304.05 310.009 2302.69 314.412 2300.24 318.219C2297.83 321.997 2294.49 324.952 2290.23 327.082C2285.97 329.213 2280.93 330.278 2275.1 330.278ZM2343.13 330.278C2336.51 330.278 2330.79 328.872 2325.96 326.06C2321.16 323.219 2317.45 319.27 2314.84 314.213C2312.22 309.128 2310.92 303.233 2310.92 296.528C2310.92 289.767 2312.22 283.858 2314.84 278.801C2317.45 273.716 2321.16 269.767 2325.96 266.955C2330.79 264.114 2336.51 262.693 2343.13 262.693C2349.75 262.693 2355.46 264.114 2360.26 266.955C2365.09 269.767 2368.81 273.716 2371.43 278.801C2374.04 283.858 2375.35 289.767 2375.35 296.528C2375.35 303.233 2374.04 309.128 2371.43 314.213C2368.81 319.27 2365.09 323.219 2360.26 326.06C2355.46 328.872 2349.75 330.278 2343.13 330.278ZM2343.22 316.216C2346.23 316.216 2348.74 315.364 2350.76 313.659C2352.78 311.926 2354.3 309.568 2355.32 306.585C2356.37 303.602 2356.9 300.207 2356.9 296.401C2356.9 292.594 2356.37 289.199 2355.32 286.216C2354.3 283.233 2352.78 280.875 2350.76 279.142C2348.74 277.409 2346.23 276.543 2343.22 276.543C2340.18 276.543 2337.62 277.409 2335.55 279.142C2333.5 280.875 2331.95 283.233 2330.9 286.216C2329.88 289.199 2329.37 292.594 2329.37 296.401C2329.37 300.207 2329.88 303.602 2330.9 306.585C2331.95 309.568 2333.5 311.926 2335.55 313.659C2337.62 315.364 2340.18 316.216 2343.22 316.216ZM2439.21 282.21L2422.59 283.233C2422.31 281.812 2421.7 280.534 2420.76 279.398C2419.82 278.233 2418.59 277.31 2417.05 276.628C2415.55 275.918 2413.74 275.562 2411.64 275.562C2408.83 275.562 2406.46 276.159 2404.52 277.352C2402.59 278.517 2401.63 280.08 2401.63 282.04C2401.63 283.602 2402.25 284.923 2403.5 286.003C2404.75 287.082 2406.9 287.949 2409.94 288.602L2421.78 290.989C2428.15 292.295 2432.89 294.398 2436.02 297.295C2439.14 300.193 2440.7 304 2440.7 308.716C2440.7 313.006 2439.44 316.77 2436.91 320.009C2434.41 323.247 2430.97 325.776 2426.6 327.594C2422.25 329.384 2417.24 330.278 2411.56 330.278C2402.89 330.278 2395.99 328.474 2390.85 324.866C2385.73 321.23 2382.73 316.287 2381.85 310.037L2399.71 309.099C2400.25 311.741 2401.56 313.759 2403.63 315.151C2405.7 316.514 2408.36 317.196 2411.6 317.196C2414.78 317.196 2417.34 316.585 2419.27 315.364C2421.23 314.114 2422.22 312.509 2422.25 310.548C2422.22 308.901 2421.53 307.551 2420.16 306.5C2418.8 305.42 2416.7 304.597 2413.86 304.028L2402.52 301.77C2396.13 300.491 2391.37 298.276 2388.25 295.122C2385.15 291.969 2383.6 287.949 2383.6 283.062C2383.6 278.858 2384.74 275.236 2387.01 272.196C2389.31 269.156 2392.54 266.812 2396.68 265.165C2400.86 263.517 2405.75 262.693 2411.34 262.693C2419.61 262.693 2426.12 264.44 2430.86 267.935C2435.63 271.429 2438.42 276.187 2439.21 282.21ZM2460.94 353.545C2458.64 353.545 2456.48 353.361 2454.46 352.991C2452.48 352.651 2450.83 352.21 2449.52 351.67L2453.61 338.119C2455.74 338.773 2457.66 339.128 2459.36 339.185C2461.1 339.241 2462.59 338.844 2463.84 337.991C2465.12 337.139 2466.15 335.69 2466.95 333.645L2468.02 330.875L2444.54 263.545H2463.63L2477.18 311.614H2477.86L2491.54 263.545H2510.76L2485.32 336.074C2484.1 339.597 2482.43 342.665 2480.33 345.278C2478.26 347.92 2475.63 349.952 2472.45 351.372C2469.27 352.821 2465.43 353.545 2460.94 353.545ZM2572.11 282.21L2555.49 283.233C2555.2 281.812 2554.59 280.534 2553.66 279.398C2552.72 278.233 2551.48 277.31 2549.95 276.628C2548.44 275.918 2546.64 275.562 2544.54 275.562C2541.72 275.562 2539.35 276.159 2537.42 277.352C2535.49 278.517 2534.52 280.08 2534.52 282.04C2534.52 283.602 2535.15 284.923 2536.4 286.003C2537.65 287.082 2539.79 287.949 2542.83 288.602L2554.68 290.989C2561.04 292.295 2565.79 294.398 2568.91 297.295C2572.04 300.193 2573.6 304 2573.6 308.716C2573.6 313.006 2572.33 316.77 2569.81 320.009C2567.31 323.247 2563.87 325.776 2559.49 327.594C2555.15 329.384 2550.13 330.278 2544.45 330.278C2535.79 330.278 2528.88 328.474 2523.74 324.866C2518.63 321.23 2515.63 316.287 2514.75 310.037L2532.6 309.099C2533.14 311.741 2534.45 313.759 2536.52 315.151C2538.6 316.514 2541.25 317.196 2544.49 317.196C2547.68 317.196 2550.23 316.585 2552.16 315.364C2554.12 314.114 2555.12 312.509 2555.15 310.548C2555.12 308.901 2554.42 307.551 2553.06 306.5C2551.7 305.42 2549.59 304.597 2546.75 304.028L2535.42 301.77C2529.02 300.491 2524.27 298.276 2521.14 295.122C2518.04 291.969 2516.5 287.949 2516.5 283.062C2516.5 278.858 2517.63 275.236 2519.91 272.196C2522.21 269.156 2525.43 266.812 2529.58 265.165C2533.75 263.517 2538.64 262.693 2544.24 262.693C2552.5 262.693 2559.01 264.44 2563.75 267.935C2568.53 271.429 2571.31 276.187 2572.11 282.21ZM2617.44 263.545V277.182H2578.03V263.545H2617.44ZM2586.98 247.864H2605.13V308.886C2605.13 310.562 2605.39 311.869 2605.9 312.807C2606.41 313.716 2607.12 314.355 2608.03 314.724C2608.96 315.094 2610.04 315.278 2611.27 315.278C2612.12 315.278 2612.97 315.207 2613.82 315.065C2614.68 314.895 2615.33 314.767 2615.78 314.682L2618.64 328.19C2617.73 328.474 2616.45 328.801 2614.8 329.17C2613.16 329.568 2611.15 329.81 2608.79 329.895C2604.42 330.065 2600.58 329.483 2597.29 328.148C2594.02 326.812 2591.48 324.739 2589.66 321.926C2587.84 319.114 2586.95 315.562 2586.98 311.273V247.864ZM2656 330.278C2649.26 330.278 2643.47 328.915 2638.61 326.188C2633.78 323.432 2630.06 319.54 2627.45 314.511C2624.83 309.455 2623.53 303.474 2623.53 296.571C2623.53 289.838 2624.83 283.929 2627.45 278.844C2630.06 273.759 2633.74 269.795 2638.48 266.955C2643.26 264.114 2648.85 262.693 2655.27 262.693C2659.59 262.693 2663.61 263.389 2667.33 264.781C2671.08 266.145 2674.35 268.205 2677.13 270.96C2679.95 273.716 2682.13 277.182 2683.7 281.358C2685.26 285.506 2686.04 290.364 2686.04 295.932V300.918H2630.77V289.668H2668.95C2668.95 287.054 2668.38 284.739 2667.25 282.722C2666.11 280.705 2664.53 279.128 2662.52 277.991C2660.53 276.827 2658.21 276.244 2655.57 276.244C2652.81 276.244 2650.37 276.884 2648.24 278.162C2646.14 279.412 2644.49 281.102 2643.3 283.233C2642.1 285.335 2641.49 287.679 2641.47 290.264V300.96C2641.47 304.199 2642.06 306.997 2643.26 309.355C2644.48 311.713 2646.2 313.531 2648.41 314.81C2650.63 316.088 2653.26 316.727 2656.29 316.727C2658.31 316.727 2660.16 316.443 2661.83 315.875C2663.51 315.307 2664.95 314.455 2666.14 313.318C2667.33 312.182 2668.24 310.79 2668.87 309.142L2685.66 310.25C2684.8 314.284 2683.06 317.807 2680.41 320.818C2677.8 323.801 2674.42 326.131 2670.27 327.807C2666.15 329.455 2661.39 330.278 2656 330.278ZM2695.49 329V263.545H2712.79V275.094H2713.55C2714.92 271.259 2717.19 268.233 2720.37 266.017C2723.55 263.801 2727.36 262.693 2731.79 262.693C2736.28 262.693 2740.1 263.815 2743.26 266.06C2746.41 268.276 2748.51 271.287 2749.56 275.094H2750.24C2751.58 271.344 2753.99 268.347 2757.49 266.102C2761.01 263.83 2765.17 262.693 2769.97 262.693C2776.08 262.693 2781.04 264.639 2784.85 268.531C2788.68 272.395 2790.6 277.878 2790.6 284.98V329H2772.49V288.56C2772.49 284.923 2771.52 282.196 2769.59 280.378C2767.66 278.56 2765.24 277.651 2762.35 277.651C2759.05 277.651 2756.48 278.702 2754.63 280.804C2752.79 282.878 2751.86 285.619 2751.86 289.028V329H2734.26V288.176C2734.26 284.966 2733.34 282.409 2731.49 280.506C2729.68 278.602 2727.28 277.651 2724.29 277.651C2722.28 277.651 2720.46 278.162 2718.84 279.185C2717.25 280.179 2715.98 281.585 2715.05 283.403C2714.11 285.193 2713.64 287.295 2713.64 289.71V329H2695.49Z" fill="#146199"/>
</g>
</g>
<defs>
<clipPath id="clip0_9_114">
<rect width="4032" height="2268" fill="white"/>
</clipPath>
<clipPath id="clip1_9_114">
<rect width="4032" height="2282" fill="white" transform="translate(0 57)"/>
</clipPath>
</defs>
</svg>
