<svg width="2016" height="378" viewBox="0 0 2016 378" fill="none" xmlns="http://www.w3.org/2000/svg">
<rect x="83.4674" y="43.4674" width="456.198" height="290.665" rx="145.332" fill="#FFF8DE"/>
<rect x="83.4674" y="43.4674" width="456.198" height="290.665" rx="145.332" stroke="#FFC908" stroke-width="6.9347"/>
<path d="M311.788 194.563C306.967 194.563 302.668 193.676 298.893 191.902C295.14 190.128 292.161 187.683 289.955 184.568C287.749 181.452 286.6 177.881 286.509 173.856H300.837C300.997 176.562 302.134 178.757 304.249 180.44C306.364 182.123 308.877 182.964 311.788 182.964C314.108 182.964 316.155 182.452 317.929 181.429C319.725 180.383 321.124 178.939 322.125 177.096C323.148 175.232 323.66 173.094 323.66 170.683C323.66 168.227 323.137 166.066 322.091 164.201C321.067 162.336 319.646 160.881 317.826 159.835C316.007 158.788 313.926 158.254 311.583 158.231C309.537 158.231 307.547 158.652 305.613 159.493C303.703 160.335 302.213 161.483 301.144 162.939L288.01 160.585L291.319 123.741H334.031V135.818H303.498L301.69 153.319H302.1C303.328 151.59 305.181 150.157 307.66 149.02C310.139 147.883 312.914 147.315 315.984 147.315C320.192 147.315 323.944 148.304 327.242 150.282C330.54 152.261 333.144 154.979 335.054 158.436C336.965 161.87 337.909 165.827 337.886 170.308C337.909 175.015 336.817 179.2 334.611 182.862C332.427 186.501 329.369 189.366 325.434 191.459C321.522 193.528 316.974 194.563 311.788 194.563Z" fill="#E5B300"/>
<path d="M177.439 255.089C177.439 253.317 177.802 251.748 178.528 250.382C179.275 249.016 180.278 247.959 181.538 247.212C182.819 246.443 184.238 246.059 185.797 246.059C186.949 246.059 188.081 246.315 189.191 246.828C190.322 247.319 191.219 247.98 191.881 248.813V240.295H195.563V263.991H191.881V261.334C191.283 262.188 190.45 262.892 189.383 263.447C188.337 264.002 187.131 264.28 185.765 264.28C184.228 264.28 182.819 263.895 181.538 263.127C180.278 262.337 179.275 261.248 178.528 259.861C177.802 258.452 177.439 256.861 177.439 255.089ZM191.881 255.153C191.881 253.936 191.625 252.88 191.112 251.983C190.621 251.087 189.97 250.403 189.159 249.934C188.348 249.464 187.472 249.229 186.533 249.229C185.594 249.229 184.719 249.464 183.907 249.934C183.096 250.382 182.434 251.055 181.922 251.951C181.431 252.826 181.185 253.872 181.185 255.089C181.185 256.306 181.431 257.374 181.922 258.292C182.434 259.209 183.096 259.914 183.907 260.405C184.74 260.875 185.615 261.109 186.533 261.109C187.472 261.109 188.348 260.875 189.159 260.405C189.97 259.935 190.621 259.252 191.112 258.356C191.625 257.438 191.881 256.37 191.881 255.153ZM216.529 254.737C216.529 255.399 216.487 255.997 216.401 256.53H202.92C203.027 257.939 203.55 259.071 204.489 259.925C205.428 260.779 206.581 261.206 207.947 261.206C209.911 261.206 211.299 260.384 212.11 258.74H216.049C215.515 260.362 214.544 261.697 213.135 262.743C211.747 263.767 210.018 264.28 207.947 264.28C206.261 264.28 204.745 263.906 203.4 263.159C202.077 262.39 201.031 261.323 200.262 259.957C199.515 258.569 199.141 256.968 199.141 255.153C199.141 253.339 199.504 251.748 200.23 250.382C200.977 248.994 202.013 247.927 203.336 247.18C204.681 246.433 206.218 246.059 207.947 246.059C209.613 246.059 211.096 246.422 212.399 247.148C213.701 247.874 214.715 248.898 215.441 250.222C216.166 251.524 216.529 253.029 216.529 254.737ZM212.719 253.584C212.697 252.239 212.217 251.161 211.278 250.35C210.338 249.539 209.175 249.133 207.787 249.133C206.528 249.133 205.45 249.539 204.553 250.35C203.656 251.14 203.123 252.218 202.952 253.584H212.719ZM226.526 264.28C225.139 264.28 223.89 264.034 222.78 263.543C221.691 263.031 220.826 262.348 220.186 261.494C219.545 260.618 219.204 259.647 219.161 258.58H222.94C223.004 259.327 223.356 259.957 223.997 260.469C224.658 260.96 225.48 261.206 226.462 261.206C227.487 261.206 228.277 261.013 228.832 260.629C229.408 260.224 229.696 259.711 229.696 259.092C229.696 258.43 229.376 257.939 228.736 257.619C228.117 257.299 227.124 256.947 225.758 256.562C224.434 256.199 223.356 255.847 222.524 255.506C221.691 255.164 220.965 254.641 220.346 253.936C219.748 253.232 219.449 252.303 219.449 251.151C219.449 250.211 219.727 249.357 220.282 248.589C220.837 247.799 221.627 247.18 222.652 246.732C223.698 246.283 224.893 246.059 226.238 246.059C228.245 246.059 229.857 246.571 231.073 247.596C232.312 248.599 232.973 249.976 233.059 251.727H229.408C229.344 250.937 229.024 250.307 228.448 249.838C227.871 249.368 227.092 249.133 226.11 249.133C225.149 249.133 224.413 249.315 223.9 249.678C223.388 250.04 223.132 250.521 223.132 251.119C223.132 251.588 223.303 251.983 223.644 252.303C223.986 252.624 224.402 252.88 224.893 253.072C225.384 253.243 226.11 253.467 227.071 253.744C228.352 254.086 229.398 254.438 230.209 254.801C231.041 255.143 231.757 255.655 232.354 256.338C232.952 257.021 233.262 257.929 233.283 259.06C233.283 260.063 233.005 260.96 232.45 261.75C231.895 262.54 231.105 263.159 230.081 263.607C229.077 264.055 227.893 264.28 226.526 264.28ZM239.085 244.01C238.423 244.01 237.868 243.785 237.42 243.337C236.971 242.889 236.747 242.334 236.747 241.672C236.747 241.01 236.971 240.455 237.42 240.007C237.868 239.559 238.423 239.334 239.085 239.334C239.725 239.334 240.27 239.559 240.718 240.007C241.166 240.455 241.39 241.01 241.39 241.672C241.39 242.334 241.166 242.889 240.718 243.337C240.27 243.785 239.725 244.01 239.085 244.01ZM240.878 246.347V263.991H237.227V246.347H240.878ZM252.78 246.059C254.146 246.059 255.352 246.337 256.398 246.892C257.466 247.425 258.298 248.098 258.896 248.909V246.347H262.579V264.28C262.579 265.902 262.237 267.343 261.554 268.603C260.871 269.884 259.878 270.887 258.576 271.613C257.295 272.339 255.758 272.701 253.965 272.701C251.574 272.701 249.588 272.136 248.008 271.004C246.429 269.894 245.532 268.378 245.319 266.457H248.937C249.215 267.375 249.802 268.112 250.698 268.667C251.616 269.243 252.705 269.531 253.965 269.531C255.438 269.531 256.622 269.083 257.519 268.186C258.437 267.29 258.896 265.988 258.896 264.28V261.334C258.277 262.166 257.434 262.871 256.366 263.447C255.32 264.002 254.125 264.28 252.78 264.28C251.243 264.28 249.834 263.895 248.553 263.127C247.293 262.337 246.29 261.248 245.543 259.861C244.817 258.452 244.454 256.861 244.454 255.089C244.454 253.317 244.817 251.748 245.543 250.382C246.29 249.016 247.293 247.959 248.553 247.212C249.834 246.443 251.243 246.059 252.78 246.059ZM258.896 255.153C258.896 253.936 258.64 252.88 258.127 251.983C257.636 251.087 256.985 250.403 256.174 249.934C255.363 249.464 254.488 249.229 253.548 249.229C252.609 249.229 251.734 249.464 250.922 249.934C250.111 250.382 249.449 251.055 248.937 251.951C248.446 252.826 248.201 253.872 248.201 255.089C248.201 256.306 248.446 257.374 248.937 258.292C249.449 259.209 250.111 259.914 250.922 260.405C251.755 260.875 252.63 261.109 253.548 261.109C254.488 261.109 255.363 260.875 256.174 260.405C256.985 259.935 257.636 259.252 258.127 258.356C258.64 257.438 258.896 256.37 258.896 255.153ZM276.275 246.059C277.663 246.059 278.901 246.347 279.99 246.924C281.1 247.5 281.965 248.354 282.584 249.485C283.203 250.617 283.512 251.983 283.512 253.584V263.991H279.894V254.129C279.894 252.549 279.499 251.343 278.709 250.51C277.919 249.656 276.841 249.229 275.475 249.229C274.109 249.229 273.02 249.656 272.209 250.51C271.419 251.343 271.024 252.549 271.024 254.129V263.991H267.373V246.347H271.024V248.365C271.622 247.639 272.379 247.073 273.297 246.667C274.237 246.262 275.229 246.059 276.275 246.059ZM298.344 244.01C297.683 244.01 297.128 243.785 296.679 243.337C296.231 242.889 296.007 242.334 296.007 241.672C296.007 241.01 296.231 240.455 296.679 240.007C297.128 239.559 297.683 239.334 298.344 239.334C298.985 239.334 299.529 239.559 299.978 240.007C300.426 240.455 300.65 241.01 300.65 241.672C300.65 242.334 300.426 242.889 299.978 243.337C299.529 243.785 298.985 244.01 298.344 244.01ZM300.138 246.347V263.991H296.487V246.347H300.138ZM309.19 249.325V259.092C309.19 259.754 309.339 260.234 309.638 260.533C309.958 260.811 310.492 260.949 311.239 260.949H313.48V263.991H310.598C308.955 263.991 307.695 263.607 306.82 262.839C305.945 262.07 305.507 260.821 305.507 259.092V249.325H303.426V246.347H305.507V241.96H309.19V246.347H313.48V249.325H309.19ZM333.016 254.737C333.016 255.399 332.974 255.997 332.888 256.53H319.407C319.514 257.939 320.037 259.071 320.976 259.925C321.915 260.779 323.068 261.206 324.434 261.206C326.398 261.206 327.786 260.384 328.597 258.74H332.536C332.002 260.362 331.031 261.697 329.622 262.743C328.234 263.767 326.505 264.28 324.434 264.28C322.748 264.28 321.232 263.906 319.887 263.159C318.564 262.39 317.518 261.323 316.749 259.957C316.002 258.569 315.628 256.968 315.628 255.153C315.628 253.339 315.991 251.748 316.717 250.382C317.464 248.994 318.5 247.927 319.823 247.18C321.168 246.433 322.705 246.059 324.434 246.059C326.099 246.059 327.583 246.422 328.885 247.148C330.188 247.874 331.202 248.898 331.927 250.222C332.653 251.524 333.016 253.029 333.016 254.737ZM329.206 253.584C329.184 252.239 328.704 251.161 327.765 250.35C326.825 249.539 325.662 249.133 324.274 249.133C323.015 249.133 321.937 249.539 321.04 250.35C320.143 251.14 319.61 252.218 319.439 253.584H329.206ZM340.259 248.909C340.793 248.012 341.497 247.319 342.373 246.828C343.269 246.315 344.326 246.059 345.543 246.059V249.838H344.614C343.184 249.838 342.095 250.201 341.348 250.926C340.622 251.652 340.259 252.912 340.259 254.705V263.991H336.609V246.347H340.259V248.909ZM347.682 255.089C347.682 253.317 348.045 251.748 348.77 250.382C349.518 249.016 350.521 247.959 351.78 247.212C353.061 246.443 354.47 246.059 356.007 246.059C357.395 246.059 358.601 246.337 359.626 246.892C360.672 247.425 361.505 248.098 362.124 248.909V246.347H365.806V263.991H362.124V261.366C361.505 262.198 360.661 262.892 359.594 263.447C358.526 264.002 357.31 264.28 355.943 264.28C354.428 264.28 353.04 263.895 351.78 263.127C350.521 262.337 349.518 261.248 348.77 259.861C348.045 258.452 347.682 256.861 347.682 255.089ZM362.124 255.153C362.124 253.936 361.867 252.88 361.355 251.983C360.864 251.087 360.213 250.403 359.402 249.934C358.591 249.464 357.715 249.229 356.776 249.229C355.837 249.229 354.961 249.464 354.15 249.934C353.339 250.382 352.677 251.055 352.165 251.951C351.674 252.826 351.428 253.872 351.428 255.089C351.428 256.306 351.674 257.374 352.165 258.292C352.677 259.209 353.339 259.914 354.15 260.405C354.983 260.875 355.858 261.109 356.776 261.109C357.715 261.109 358.591 260.875 359.402 260.405C360.213 259.935 360.864 259.252 361.355 258.356C361.867 257.438 362.124 256.37 362.124 255.153ZM374.86 249.325V259.092C374.86 259.754 375.009 260.234 375.308 260.533C375.628 260.811 376.162 260.949 376.909 260.949H379.151V263.991H376.269C374.625 263.991 373.366 263.607 372.49 262.839C371.615 262.07 371.177 260.821 371.177 259.092V249.325H369.096V246.347H371.177V241.96H374.86V246.347H379.151V249.325H374.86ZM384.373 244.01C383.711 244.01 383.156 243.785 382.708 243.337C382.259 242.889 382.035 242.334 382.035 241.672C382.035 241.01 382.259 240.455 382.708 240.007C383.156 239.559 383.711 239.334 384.373 239.334C385.013 239.334 385.558 239.559 386.006 240.007C386.454 240.455 386.678 241.01 386.678 241.672C386.678 242.334 386.454 242.889 386.006 243.337C385.558 243.785 385.013 244.01 384.373 244.01ZM386.166 246.347V263.991H382.516V246.347H386.166ZM398.612 264.28C396.947 264.28 395.442 263.906 394.097 263.159C392.752 262.39 391.695 261.323 390.927 259.957C390.158 258.569 389.774 256.968 389.774 255.153C389.774 253.36 390.169 251.77 390.959 250.382C391.749 248.994 392.827 247.927 394.193 247.18C395.559 246.433 397.086 246.059 398.772 246.059C400.459 246.059 401.985 246.433 403.351 247.18C404.718 247.927 405.796 248.994 406.586 250.382C407.376 251.77 407.77 253.36 407.77 255.153C407.77 256.947 407.365 258.537 406.554 259.925C405.742 261.312 404.632 262.39 403.223 263.159C401.836 263.906 400.299 264.28 398.612 264.28ZM398.612 261.109C399.551 261.109 400.427 260.885 401.238 260.437C402.071 259.989 402.743 259.316 403.255 258.42C403.768 257.523 404.024 256.434 404.024 255.153C404.024 253.872 403.778 252.794 403.287 251.919C402.796 251.022 402.145 250.35 401.334 249.902C400.523 249.453 399.648 249.229 398.708 249.229C397.769 249.229 396.894 249.453 396.082 249.902C395.293 250.35 394.663 251.022 394.193 251.919C393.723 252.794 393.489 253.872 393.489 255.153C393.489 257.053 393.969 258.526 394.93 259.572C395.912 260.597 397.139 261.109 398.612 261.109ZM420.281 246.059C421.669 246.059 422.907 246.347 423.996 246.924C425.106 247.5 425.971 248.354 426.59 249.485C427.209 250.617 427.518 251.983 427.518 253.584V263.991H423.9V254.129C423.9 252.549 423.505 251.343 422.715 250.51C421.925 249.656 420.847 249.229 419.481 249.229C418.115 249.229 417.026 249.656 416.215 250.51C415.425 251.343 415.03 252.549 415.03 254.129V263.991H411.379V246.347H415.03V248.365C415.628 247.639 416.385 247.073 417.303 246.667C418.243 246.262 419.235 246.059 420.281 246.059ZM438.579 264.28C437.192 264.28 435.943 264.034 434.833 263.543C433.744 263.031 432.879 262.348 432.239 261.494C431.598 260.618 431.257 259.647 431.214 258.58H434.993C435.057 259.327 435.409 259.957 436.05 260.469C436.711 260.96 437.533 261.206 438.515 261.206C439.54 261.206 440.33 261.013 440.885 260.629C441.461 260.224 441.749 259.711 441.749 259.092C441.749 258.43 441.429 257.939 440.789 257.619C440.17 257.299 439.177 256.947 437.811 256.562C436.487 256.199 435.409 255.847 434.577 255.506C433.744 255.164 433.018 254.641 432.399 253.936C431.801 253.232 431.502 252.303 431.502 251.151C431.502 250.211 431.78 249.357 432.335 248.589C432.89 247.799 433.68 247.18 434.705 246.732C435.751 246.283 436.946 246.059 438.291 246.059C440.298 246.059 441.91 246.571 443.126 247.596C444.365 248.599 445.026 249.976 445.112 251.727H441.461C441.397 250.937 441.077 250.307 440.501 249.838C439.924 249.368 439.145 249.133 438.163 249.133C437.202 249.133 436.466 249.315 435.953 249.678C435.441 250.04 435.185 250.521 435.185 251.119C435.185 251.588 435.356 251.983 435.697 252.303C436.039 252.624 436.455 252.88 436.946 253.072C437.437 253.243 438.163 253.467 439.124 253.744C440.405 254.086 441.451 254.438 442.262 254.801C443.094 255.143 443.81 255.655 444.407 256.338C445.005 257.021 445.315 257.929 445.336 259.06C445.336 260.063 445.058 260.96 444.503 261.75C443.948 262.54 443.158 263.159 442.134 263.607C441.13 264.055 439.946 264.28 438.579 264.28Z" fill="#E5B300"/>
<rect x="783.901" y="43.4674" width="382.198" height="290.665" rx="145.332" fill="#FEF4FF"/>
<rect x="783.901" y="43.4674" width="382.198" height="290.665" rx="145.332" stroke="#FBCBFF" stroke-width="6.9347"/>
<path d="M881.334 181.327V169.694L910.502 123.741H920.532V139.843H914.596L896.208 168.943V169.489H937.657V181.327H881.334ZM914.869 193.608V177.779L915.142 172.627V123.741H928.992V193.608H914.869ZM974.893 195.143C969.026 195.12 963.977 193.676 959.747 190.811C955.539 187.945 952.298 183.794 950.024 178.359C947.772 172.923 946.658 166.385 946.681 158.743C946.681 151.124 947.806 144.631 950.058 139.263C952.332 133.896 955.573 129.814 959.781 127.016C964.011 124.196 969.048 122.786 974.893 122.786C980.738 122.786 985.765 124.196 989.972 127.016C994.202 129.837 997.454 133.93 999.729 139.298C1002 144.642 1003.13 151.124 1003.11 158.743C1003.11 166.407 1001.97 172.957 999.695 178.393C997.443 183.828 994.214 187.979 990.006 190.845C985.799 193.71 980.761 195.143 974.893 195.143ZM974.893 182.896C978.896 182.896 982.092 180.883 984.48 176.858C986.868 172.832 988.05 166.794 988.027 158.743C988.027 153.444 987.482 149.032 986.39 145.506C985.321 141.981 983.797 139.332 981.819 137.558C979.863 135.784 977.554 134.897 974.893 134.897C970.913 134.897 967.729 136.887 965.341 140.867C962.953 144.847 961.748 150.806 961.725 158.743C961.725 164.11 962.26 168.591 963.329 172.184C964.42 175.755 965.955 178.438 967.934 180.235C969.913 182.009 972.232 182.896 974.893 182.896ZM1034.52 182.964V134.658H1046.73V182.964H1034.52ZM1016.47 164.918V152.705H1064.78V164.918H1016.47Z" fill="#E579D3"/>
<path d="M897.562 244.01C896.9 244.01 896.345 243.785 895.897 243.337C895.448 242.889 895.224 242.334 895.224 241.672C895.224 241.01 895.448 240.455 895.897 240.007C896.345 239.559 896.9 239.334 897.562 239.334C898.202 239.334 898.747 239.559 899.195 240.007C899.643 240.455 899.867 241.01 899.867 241.672C899.867 242.334 899.643 242.889 899.195 243.337C898.747 243.785 898.202 244.01 897.562 244.01ZM899.355 246.347V263.991H895.704V246.347H899.355ZM913.05 246.059C914.438 246.059 915.676 246.347 916.765 246.924C917.875 247.5 918.739 248.354 919.358 249.485C919.977 250.617 920.287 251.983 920.287 253.584V263.991H916.668V254.129C916.668 252.549 916.274 251.343 915.484 250.51C914.694 249.656 913.616 249.229 912.249 249.229C910.883 249.229 909.794 249.656 908.983 250.51C908.193 251.343 907.798 252.549 907.798 254.129V263.991H904.148V246.347H907.798V248.365C908.396 247.639 909.154 247.073 910.072 246.667C911.011 246.262 912.004 246.059 913.05 246.059ZM929.202 249.325V259.092C929.202 259.754 929.352 260.234 929.651 260.533C929.971 260.811 930.505 260.949 931.252 260.949H933.493V263.991H930.611C928.968 263.991 927.708 263.607 926.833 262.839C925.958 262.07 925.52 260.821 925.52 259.092V249.325H923.438V246.347H925.52V241.96H929.202V246.347H933.493V249.325H929.202ZM953.029 254.737C953.029 255.399 952.986 255.997 952.901 256.53H939.42C939.526 257.939 940.05 259.071 940.989 259.925C941.928 260.779 943.081 261.206 944.447 261.206C946.411 261.206 947.799 260.384 948.61 258.74H952.549C952.015 260.362 951.044 261.697 949.635 262.743C948.247 263.767 946.518 264.28 944.447 264.28C942.761 264.28 941.245 263.906 939.9 263.159C938.576 262.39 937.53 261.323 936.762 259.957C936.015 258.569 935.641 256.968 935.641 255.153C935.641 253.339 936.004 251.748 936.73 250.382C937.477 248.994 938.512 247.927 939.836 247.18C941.181 246.433 942.718 246.059 944.447 246.059C946.112 246.059 947.596 246.422 948.898 247.148C950.201 247.874 951.215 248.898 951.94 250.222C952.666 251.524 953.029 253.029 953.029 254.737ZM949.219 253.584C949.197 252.239 948.717 251.161 947.778 250.35C946.838 249.539 945.675 249.133 944.287 249.133C943.028 249.133 941.949 249.539 941.053 250.35C940.156 251.14 939.623 252.218 939.452 253.584H949.219ZM960.272 248.909C960.806 248.012 961.51 247.319 962.386 246.828C963.282 246.315 964.339 246.059 965.556 246.059V249.838H964.627C963.197 249.838 962.108 250.201 961.361 250.926C960.635 251.652 960.272 252.912 960.272 254.705V263.991H956.622V246.347H960.272V248.909ZM975.732 260.725L980.728 246.347H984.602L977.878 263.991H973.523L966.83 246.347H970.737L975.732 260.725ZM989.219 244.01C988.557 244.01 988.002 243.785 987.554 243.337C987.105 242.889 986.881 242.334 986.881 241.672C986.881 241.01 987.105 240.455 987.554 240.007C988.002 239.559 988.557 239.334 989.219 239.334C989.859 239.334 990.404 239.559 990.852 240.007C991.3 240.455 991.525 241.01 991.525 241.672C991.525 242.334 991.3 242.889 990.852 243.337C990.404 243.785 989.859 244.01 989.219 244.01ZM991.012 246.347V263.991H987.362V246.347H991.012ZM1011.98 254.737C1011.98 255.399 1011.93 255.997 1011.85 256.53H998.367C998.474 257.939 998.997 259.071 999.936 259.925C1000.88 260.779 1002.03 261.206 1003.39 261.206C1005.36 261.206 1006.75 260.384 1007.56 258.74H1011.5C1010.96 260.362 1009.99 261.697 1008.58 262.743C1007.19 263.767 1005.47 264.28 1003.39 264.28C1001.71 264.28 1000.19 263.906 998.847 263.159C997.524 262.39 996.477 261.323 995.709 259.957C994.962 258.569 994.588 256.968 994.588 255.153C994.588 253.339 994.951 251.748 995.677 250.382C996.424 248.994 997.459 247.927 998.783 247.18C1000.13 246.433 1001.67 246.059 1003.39 246.059C1005.06 246.059 1006.54 246.422 1007.85 247.148C1009.15 247.874 1010.16 248.898 1010.89 250.222C1011.61 251.524 1011.98 253.029 1011.98 254.737ZM1008.17 253.584C1008.14 252.239 1007.66 251.161 1006.72 250.35C1005.79 249.539 1004.62 249.133 1003.23 249.133C1001.97 249.133 1000.9 249.539 1000 250.35C999.103 251.14 998.57 252.218 998.399 253.584H1008.17ZM1039.27 246.347L1033.79 263.991H1029.95L1026.39 250.958L1022.84 263.991H1019L1013.49 246.347H1017.2L1020.88 260.533L1024.63 246.347H1028.44L1032.03 260.469L1035.68 246.347H1039.27ZM1048.4 264.28C1047.01 264.28 1045.76 264.034 1044.65 263.543C1043.56 263.031 1042.7 262.348 1042.06 261.494C1041.42 260.618 1041.08 259.647 1041.03 258.58H1044.81C1044.88 259.327 1045.23 259.957 1045.87 260.469C1046.53 260.96 1047.35 261.206 1048.33 261.206C1049.36 261.206 1050.15 261.013 1050.7 260.629C1051.28 260.224 1051.57 259.711 1051.57 259.092C1051.57 258.43 1051.25 257.939 1050.61 257.619C1049.99 257.299 1049 256.947 1047.63 256.562C1046.31 256.199 1045.23 255.847 1044.39 255.506C1043.56 255.164 1042.84 254.641 1042.22 253.936C1041.62 253.232 1041.32 252.303 1041.32 251.151C1041.32 250.211 1041.6 249.357 1042.15 248.589C1042.71 247.799 1043.5 247.18 1044.52 246.732C1045.57 246.283 1046.76 246.059 1048.11 246.059C1050.12 246.059 1051.73 246.571 1052.94 247.596C1054.18 248.599 1054.84 249.976 1054.93 251.727H1051.28C1051.22 250.937 1050.9 250.307 1050.32 249.838C1049.74 249.368 1048.96 249.133 1047.98 249.133C1047.02 249.133 1046.28 249.315 1045.77 249.678C1045.26 250.04 1045 250.521 1045 251.119C1045 251.588 1045.17 251.983 1045.52 252.303C1045.86 252.624 1046.27 252.88 1046.76 253.072C1047.26 253.243 1047.98 253.467 1048.94 253.744C1050.22 254.086 1051.27 254.438 1052.08 254.801C1052.91 255.143 1053.63 255.655 1054.23 256.338C1054.82 257.021 1055.13 257.929 1055.15 259.06C1055.15 260.063 1054.88 260.96 1054.32 261.75C1053.77 262.54 1052.98 263.159 1051.95 263.607C1050.95 264.055 1049.76 264.28 1048.4 264.28Z" fill="#E579D3"/>
<rect x="1410.33" y="43.4674" width="522.198" height="290.665" rx="145.332" fill="#F4FFEA"/>
<rect x="1410.33" y="43.4674" width="522.198" height="290.665" rx="145.332" stroke="#C2ED9E" stroke-width="6.9347"/>
<path d="M1638.19 194.563C1633.09 194.563 1628.56 193.688 1624.58 191.936C1620.62 190.162 1617.49 187.729 1615.2 184.636C1612.92 181.52 1611.75 177.927 1611.68 173.856H1626.56C1626.65 175.561 1627.2 177.062 1628.23 178.359C1629.27 179.632 1630.66 180.622 1632.39 181.327C1634.12 182.032 1636.06 182.384 1638.22 182.384C1640.47 182.384 1642.46 181.986 1644.19 181.19C1645.92 180.394 1647.27 179.291 1648.25 177.881C1649.23 176.471 1649.72 174.845 1649.72 173.003C1649.72 171.138 1649.2 169.489 1648.15 168.056C1647.13 166.601 1645.65 165.463 1643.72 164.645C1641.81 163.826 1639.53 163.417 1636.89 163.417H1630.38V152.568H1636.89C1639.12 152.568 1641.09 152.182 1642.79 151.408C1644.52 150.635 1645.86 149.566 1646.82 148.201C1647.78 146.814 1648.25 145.199 1648.25 143.357C1648.25 141.606 1647.83 140.071 1646.99 138.752C1646.17 137.41 1645.01 136.364 1643.51 135.613C1642.03 134.863 1640.3 134.487 1638.33 134.487C1636.32 134.487 1634.49 134.851 1632.83 135.579C1631.17 136.284 1629.84 137.296 1628.84 138.615C1627.84 139.934 1627.31 141.481 1627.24 143.255H1613.08C1613.15 139.229 1614.3 135.681 1616.53 132.611C1618.76 129.541 1621.76 127.141 1625.53 125.413C1629.33 123.662 1633.62 122.786 1638.39 122.786C1643.22 122.786 1647.43 123.662 1651.05 125.413C1654.67 127.164 1657.48 129.529 1659.48 132.509C1661.5 135.465 1662.5 138.786 1662.48 142.47C1662.5 146.382 1661.28 149.646 1658.83 152.261C1656.39 154.877 1653.22 156.537 1649.31 157.242V157.788C1654.45 158.447 1658.36 160.233 1661.05 163.144C1663.75 166.032 1665.09 169.648 1665.07 173.992C1665.09 177.972 1663.95 181.509 1661.63 184.602C1659.33 187.695 1656.16 190.128 1652.11 191.902C1648.06 193.676 1643.42 194.563 1638.19 194.563ZM1703.08 195.143C1697.22 195.12 1692.17 193.676 1687.94 190.811C1683.73 187.945 1680.49 183.794 1678.21 178.359C1675.96 172.923 1674.85 166.385 1674.87 158.743C1674.87 151.124 1676 144.631 1678.25 139.263C1680.52 133.896 1683.76 129.814 1687.97 127.016C1692.2 124.196 1697.24 122.786 1703.08 122.786C1708.93 122.786 1713.95 124.196 1718.16 127.016C1722.39 129.837 1725.64 133.93 1727.92 139.298C1730.19 144.642 1731.32 151.124 1731.3 158.743C1731.3 166.407 1730.16 172.957 1727.88 178.393C1725.63 183.828 1722.4 187.979 1718.2 190.845C1713.99 193.71 1708.95 195.143 1703.08 195.143ZM1703.08 182.896C1707.09 182.896 1710.28 180.883 1712.67 176.858C1715.06 172.832 1716.24 166.794 1716.22 158.743C1716.22 153.444 1715.67 149.032 1714.58 145.506C1713.51 141.981 1711.99 139.332 1710.01 137.558C1708.05 135.784 1705.74 134.897 1703.08 134.897C1699.1 134.897 1695.92 136.887 1693.53 140.867C1691.14 144.847 1689.94 150.806 1689.92 158.743C1689.92 164.11 1690.45 168.591 1691.52 172.184C1692.61 175.755 1694.15 178.438 1696.12 180.235C1698.1 182.009 1700.42 182.896 1703.08 182.896Z" fill="#6CAB36"/>
<path d="M1521.78 246.347V263.991H1518.13V261.91C1517.55 262.636 1516.79 263.212 1515.85 263.639C1514.93 264.045 1513.95 264.248 1512.91 264.248C1511.52 264.248 1510.27 263.959 1509.16 263.383C1508.07 262.807 1507.21 261.953 1506.57 260.821C1505.95 259.69 1505.64 258.324 1505.64 256.722V246.347H1509.26V256.178C1509.26 257.758 1509.65 258.975 1510.44 259.829C1511.23 260.661 1512.31 261.077 1513.67 261.077C1515.04 261.077 1516.12 260.661 1516.91 259.829C1517.72 258.975 1518.13 257.758 1518.13 256.178V246.347H1521.78ZM1533 264.28C1531.61 264.28 1530.36 264.034 1529.25 263.543C1528.16 263.031 1527.3 262.348 1526.66 261.494C1526.02 260.618 1525.67 259.647 1525.63 258.58H1529.41C1529.47 259.327 1529.83 259.957 1530.47 260.469C1531.13 260.96 1531.95 261.206 1532.93 261.206C1533.96 261.206 1534.75 261.013 1535.3 260.629C1535.88 260.224 1536.17 259.711 1536.17 259.092C1536.17 258.43 1535.85 257.939 1535.21 257.619C1534.59 257.299 1533.59 256.947 1532.23 256.562C1530.91 256.199 1529.83 255.847 1528.99 255.506C1528.16 255.164 1527.44 254.641 1526.82 253.936C1526.22 253.232 1525.92 252.303 1525.92 251.151C1525.92 250.211 1526.2 249.357 1526.75 248.589C1527.31 247.799 1528.1 247.18 1529.12 246.732C1530.17 246.283 1531.36 246.059 1532.71 246.059C1534.72 246.059 1536.33 246.571 1537.54 247.596C1538.78 248.599 1539.44 249.976 1539.53 251.727H1535.88C1535.82 250.937 1535.49 250.307 1534.92 249.838C1534.34 249.368 1533.56 249.133 1532.58 249.133C1531.62 249.133 1530.88 249.315 1530.37 249.678C1529.86 250.04 1529.6 250.521 1529.6 251.119C1529.6 251.588 1529.77 251.983 1530.12 252.303C1530.46 252.624 1530.87 252.88 1531.36 253.072C1531.86 253.243 1532.58 253.467 1533.54 253.744C1534.82 254.086 1535.87 254.438 1536.68 254.801C1537.51 255.143 1538.23 255.655 1538.83 256.338C1539.42 257.021 1539.73 257.929 1539.75 259.06C1539.75 260.063 1539.48 260.96 1538.92 261.75C1538.37 262.54 1537.58 263.159 1536.55 263.607C1535.55 264.055 1534.36 264.28 1533 264.28ZM1559.87 254.737C1559.87 255.399 1559.83 255.997 1559.74 256.53H1546.26C1546.37 257.939 1546.89 259.071 1547.83 259.925C1548.77 260.779 1549.92 261.206 1551.29 261.206C1553.25 261.206 1554.64 260.384 1555.45 258.74H1559.39C1558.86 260.362 1557.88 261.697 1556.48 262.743C1555.09 263.767 1553.36 264.28 1551.29 264.28C1549.6 264.28 1548.09 263.906 1546.74 263.159C1545.42 262.39 1544.37 261.323 1543.6 259.957C1542.86 258.569 1542.48 256.968 1542.48 255.153C1542.48 253.339 1542.84 251.748 1543.57 250.382C1544.32 248.994 1545.35 247.927 1546.68 247.18C1548.02 246.433 1549.56 246.059 1551.29 246.059C1552.95 246.059 1554.44 246.422 1555.74 247.148C1557.04 247.874 1558.05 248.898 1558.78 250.222C1559.51 251.524 1559.87 253.029 1559.87 254.737ZM1556.06 253.584C1556.04 252.239 1555.56 251.161 1554.62 250.35C1553.68 249.539 1552.52 249.133 1551.13 249.133C1549.87 249.133 1548.79 249.539 1547.89 250.35C1547 251.14 1546.46 252.218 1546.29 253.584H1556.06ZM1567.11 248.909C1567.65 248.012 1568.35 247.319 1569.23 246.828C1570.12 246.315 1571.18 246.059 1572.4 246.059V249.838H1571.47C1570.04 249.838 1568.95 250.201 1568.2 250.926C1567.48 251.652 1567.11 252.912 1567.11 254.705V263.991H1563.46V246.347H1567.11V248.909ZM1588.33 249.325V259.092C1588.33 259.754 1588.48 260.234 1588.78 260.533C1589.1 260.811 1589.63 260.949 1590.38 260.949H1592.62V263.991H1589.74C1588.09 263.991 1586.83 263.607 1585.96 262.839C1585.08 262.07 1584.65 260.821 1584.65 259.092V249.325H1582.56V246.347H1584.65V241.96H1588.33V246.347H1592.62V249.325H1588.33ZM1612.16 254.737C1612.16 255.399 1612.11 255.997 1612.03 256.53H1598.55C1598.65 257.939 1599.18 259.071 1600.12 259.925C1601.05 260.779 1602.21 261.206 1603.57 261.206C1605.54 261.206 1606.93 260.384 1607.74 258.74H1611.68C1611.14 260.362 1610.17 261.697 1608.76 262.743C1607.37 263.767 1605.64 264.28 1603.57 264.28C1601.89 264.28 1600.37 263.906 1599.03 263.159C1597.7 262.39 1596.66 261.323 1595.89 259.957C1595.14 258.569 1594.77 256.968 1594.77 255.153C1594.77 253.339 1595.13 251.748 1595.86 250.382C1596.6 248.994 1597.64 247.927 1598.96 247.18C1600.31 246.433 1601.84 246.059 1603.57 246.059C1605.24 246.059 1606.72 246.422 1608.02 247.148C1609.33 247.874 1610.34 248.898 1611.07 250.222C1611.79 251.524 1612.16 253.029 1612.16 254.737ZM1608.35 253.584C1608.32 252.239 1607.84 251.161 1606.9 250.35C1605.96 249.539 1604.8 249.133 1603.41 249.133C1602.15 249.133 1601.08 249.539 1600.18 250.35C1599.28 251.14 1598.75 252.218 1598.58 253.584H1608.35ZM1622.15 264.28C1620.76 264.28 1619.52 264.034 1618.41 263.543C1617.32 263.031 1616.45 262.348 1615.81 261.494C1615.17 260.618 1614.83 259.647 1614.79 258.58H1618.57C1618.63 259.327 1618.98 259.957 1619.62 260.469C1620.28 260.96 1621.11 261.206 1622.09 261.206C1623.11 261.206 1623.9 261.013 1624.46 260.629C1625.03 260.224 1625.32 259.711 1625.32 259.092C1625.32 258.43 1625 257.939 1624.36 257.619C1623.74 257.299 1622.75 256.947 1621.38 256.562C1620.06 256.199 1618.98 255.847 1618.15 255.506C1617.32 255.164 1616.59 254.641 1615.97 253.936C1615.37 253.232 1615.08 252.303 1615.08 251.151C1615.08 250.211 1615.35 249.357 1615.91 248.589C1616.46 247.799 1617.25 247.18 1618.28 246.732C1619.32 246.283 1620.52 246.059 1621.86 246.059C1623.87 246.059 1625.48 246.571 1626.7 247.596C1627.94 248.599 1628.6 249.976 1628.69 251.727H1625.03C1624.97 250.937 1624.65 250.307 1624.07 249.838C1623.5 249.368 1622.72 249.133 1621.74 249.133C1620.78 249.133 1620.04 249.315 1619.53 249.678C1619.01 250.04 1618.76 250.521 1618.76 251.119C1618.76 251.588 1618.93 251.983 1619.27 252.303C1619.61 252.624 1620.03 252.88 1620.52 253.072C1621.01 253.243 1621.74 253.467 1622.7 253.744C1623.98 254.086 1625.02 254.438 1625.84 254.801C1626.67 255.143 1627.38 255.655 1627.98 256.338C1628.58 257.021 1628.89 257.929 1628.91 259.06C1628.91 260.063 1628.63 260.96 1628.08 261.75C1627.52 262.54 1626.73 263.159 1625.71 263.607C1624.7 264.055 1623.52 264.28 1622.15 264.28ZM1637.11 249.325V259.092C1637.11 259.754 1637.26 260.234 1637.56 260.533C1637.88 260.811 1638.41 260.949 1639.16 260.949H1641.4V263.991H1638.52C1636.88 263.991 1635.62 263.607 1634.74 262.839C1633.87 262.07 1633.43 260.821 1633.43 259.092V249.325H1631.35V246.347H1633.43V241.96H1637.11V246.347H1641.4V249.325H1637.11ZM1646.63 244.01C1645.96 244.01 1645.41 243.785 1644.96 243.337C1644.51 242.889 1644.29 242.334 1644.29 241.672C1644.29 241.01 1644.51 240.455 1644.96 240.007C1645.41 239.559 1645.96 239.334 1646.63 239.334C1647.27 239.334 1647.81 239.559 1648.26 240.007C1648.71 240.455 1648.93 241.01 1648.93 241.672C1648.93 242.334 1648.71 242.889 1648.26 243.337C1647.81 243.785 1647.27 244.01 1646.63 244.01ZM1648.42 246.347V263.991H1644.77V246.347H1648.42ZM1662.11 246.059C1663.5 246.059 1664.74 246.347 1665.83 246.924C1666.94 247.5 1667.8 248.354 1668.42 249.485C1669.04 250.617 1669.35 251.983 1669.35 253.584V263.991H1665.73V254.129C1665.73 252.549 1665.34 251.343 1664.55 250.51C1663.76 249.656 1662.68 249.229 1661.31 249.229C1659.95 249.229 1658.86 249.656 1658.05 250.51C1657.26 251.343 1656.86 252.549 1656.86 254.129V263.991H1653.21V246.347H1656.86V248.365C1657.46 247.639 1658.22 247.073 1659.14 246.667C1660.08 246.262 1661.07 246.059 1662.11 246.059ZM1681.12 246.059C1682.48 246.059 1683.69 246.337 1684.73 246.892C1685.8 247.425 1686.63 248.098 1687.23 248.909V246.347H1690.91V264.28C1690.91 265.902 1690.57 267.343 1689.89 268.603C1689.21 269.884 1688.21 270.887 1686.91 271.613C1685.63 272.339 1684.09 272.701 1682.3 272.701C1679.91 272.701 1677.92 272.136 1676.34 271.004C1674.77 269.894 1673.87 268.378 1673.66 266.457H1677.27C1677.55 267.375 1678.14 268.112 1679.03 268.667C1679.95 269.243 1681.04 269.531 1682.3 269.531C1683.77 269.531 1684.96 269.083 1685.86 268.186C1686.77 267.29 1687.23 265.988 1687.23 264.28V261.334C1686.61 262.166 1685.77 262.871 1684.7 263.447C1683.66 264.002 1682.46 264.28 1681.12 264.28C1679.58 264.28 1678.17 263.895 1676.89 263.127C1675.63 262.337 1674.63 261.248 1673.88 259.861C1673.15 258.452 1672.79 256.861 1672.79 255.089C1672.79 253.317 1673.15 251.748 1673.88 250.382C1674.63 249.016 1675.63 247.959 1676.89 247.212C1678.17 246.443 1679.58 246.059 1681.12 246.059ZM1687.23 255.153C1687.23 253.936 1686.98 252.88 1686.46 251.983C1685.97 251.087 1685.32 250.403 1684.51 249.934C1683.7 249.464 1682.82 249.229 1681.88 249.229C1680.95 249.229 1680.07 249.464 1679.26 249.934C1678.45 250.382 1677.79 251.055 1677.27 251.951C1676.78 252.826 1676.54 253.872 1676.54 255.089C1676.54 256.306 1676.78 257.374 1677.27 258.292C1677.79 259.209 1678.45 259.914 1679.26 260.405C1680.09 260.875 1680.97 261.109 1681.88 261.109C1682.82 261.109 1683.7 260.875 1684.51 260.405C1685.32 259.935 1685.97 259.252 1686.46 258.356C1686.98 257.438 1687.23 256.37 1687.23 255.153ZM1710.43 264.28C1709.04 264.28 1707.8 264.034 1706.69 263.543C1705.6 263.031 1704.73 262.348 1704.09 261.494C1703.45 260.618 1703.11 259.647 1703.07 258.58H1706.85C1706.91 259.327 1707.26 259.957 1707.9 260.469C1708.56 260.96 1709.39 261.206 1710.37 261.206C1711.39 261.206 1712.18 261.013 1712.74 260.629C1713.31 260.224 1713.6 259.711 1713.6 259.092C1713.6 258.43 1713.28 257.939 1712.64 257.619C1712.02 257.299 1711.03 256.947 1709.66 256.562C1708.34 256.199 1707.26 255.847 1706.43 255.506C1705.6 255.164 1704.87 254.641 1704.25 253.936C1703.65 253.232 1703.36 252.303 1703.36 251.151C1703.36 250.211 1703.63 249.357 1704.19 248.589C1704.74 247.799 1705.53 247.18 1706.56 246.732C1707.6 246.283 1708.8 246.059 1710.14 246.059C1712.15 246.059 1713.76 246.571 1714.98 247.596C1716.22 248.599 1716.88 249.976 1716.96 251.727H1713.31C1713.25 250.937 1712.93 250.307 1712.35 249.838C1711.78 249.368 1711 249.133 1710.02 249.133C1709.06 249.133 1708.32 249.315 1707.81 249.678C1707.29 250.04 1707.04 250.521 1707.04 251.119C1707.04 251.588 1707.21 251.983 1707.55 252.303C1707.89 252.624 1708.31 252.88 1708.8 253.072C1709.29 253.243 1710.02 253.467 1710.98 253.744C1712.26 254.086 1713.3 254.438 1714.12 254.801C1714.95 255.143 1715.66 255.655 1716.26 256.338C1716.86 257.021 1717.17 257.929 1717.19 259.06C1717.19 260.063 1716.91 260.96 1716.36 261.75C1715.8 262.54 1715.01 263.159 1713.99 263.607C1712.98 264.055 1711.8 264.28 1710.43 264.28ZM1737.3 254.737C1737.3 255.399 1737.26 255.997 1737.18 256.53H1723.7C1723.8 257.939 1724.33 259.071 1725.26 259.925C1726.2 260.779 1727.36 261.206 1728.72 261.206C1730.69 261.206 1732.07 260.384 1732.89 258.74H1736.82C1736.29 260.362 1735.32 261.697 1733.91 262.743C1732.52 263.767 1730.79 264.28 1728.72 264.28C1727.04 264.28 1725.52 263.906 1724.18 263.159C1722.85 262.39 1721.81 261.323 1721.04 259.957C1720.29 258.569 1719.92 256.968 1719.92 255.153C1719.92 253.339 1720.28 251.748 1721.01 250.382C1721.75 248.994 1722.79 247.927 1724.11 247.18C1725.46 246.433 1726.99 246.059 1728.72 246.059C1730.39 246.059 1731.87 246.422 1733.17 247.148C1734.48 247.874 1735.49 248.898 1736.22 250.222C1736.94 251.524 1737.3 253.029 1737.3 254.737ZM1733.49 253.584C1733.47 252.239 1732.99 251.161 1732.05 250.35C1731.11 249.539 1729.95 249.133 1728.56 249.133C1727.3 249.133 1726.23 249.539 1725.33 250.35C1724.43 251.14 1723.9 252.218 1723.73 253.584H1733.49ZM1747.3 264.28C1745.91 264.28 1744.67 264.034 1743.56 263.543C1742.47 263.031 1741.6 262.348 1740.96 261.494C1740.32 260.618 1739.98 259.647 1739.94 258.58H1743.72C1743.78 259.327 1744.13 259.957 1744.77 260.469C1745.43 260.96 1746.26 261.206 1747.24 261.206C1748.26 261.206 1749.05 261.013 1749.61 260.629C1750.18 260.224 1750.47 259.711 1750.47 259.092C1750.47 258.43 1750.15 257.939 1749.51 257.619C1748.89 257.299 1747.9 256.947 1746.53 256.562C1745.21 256.199 1744.13 255.847 1743.3 255.506C1742.47 255.164 1741.74 254.641 1741.12 253.936C1740.52 253.232 1740.22 252.303 1740.22 251.151C1740.22 250.211 1740.5 249.357 1741.06 248.589C1741.61 247.799 1742.4 247.18 1743.43 246.732C1744.47 246.283 1745.67 246.059 1747.01 246.059C1749.02 246.059 1750.63 246.571 1751.85 247.596C1753.09 248.599 1753.75 249.976 1753.83 251.727H1750.18C1750.12 250.937 1749.8 250.307 1749.22 249.838C1748.65 249.368 1747.87 249.133 1746.89 249.133C1745.92 249.133 1745.19 249.315 1744.68 249.678C1744.16 250.04 1743.91 250.521 1743.91 251.119C1743.91 251.588 1744.08 251.983 1744.42 252.303C1744.76 252.624 1745.18 252.88 1745.67 253.072C1746.16 253.243 1746.89 253.467 1747.85 253.744C1749.13 254.086 1750.17 254.438 1750.98 254.801C1751.82 255.143 1752.53 255.655 1753.13 256.338C1753.73 257.021 1754.04 257.929 1754.06 259.06C1754.06 260.063 1753.78 260.96 1753.23 261.75C1752.67 262.54 1751.88 263.159 1750.86 263.607C1749.85 264.055 1748.67 264.28 1747.3 264.28ZM1764.41 264.28C1763.02 264.28 1761.77 264.034 1760.66 263.543C1759.57 263.031 1758.71 262.348 1758.07 261.494C1757.43 260.618 1757.08 259.647 1757.04 258.58H1760.82C1760.88 259.327 1761.24 259.957 1761.88 260.469C1762.54 260.96 1763.36 261.206 1764.34 261.206C1765.37 261.206 1766.16 261.013 1766.71 260.629C1767.29 260.224 1767.58 259.711 1767.58 259.092C1767.58 258.43 1767.26 257.939 1766.62 257.619C1766 257.299 1765.01 256.947 1763.64 256.562C1762.32 256.199 1761.24 255.847 1760.4 255.506C1759.57 255.164 1758.85 254.641 1758.23 253.936C1757.63 253.232 1757.33 252.303 1757.33 251.151C1757.33 250.211 1757.61 249.357 1758.16 248.589C1758.72 247.799 1759.51 247.18 1760.53 246.732C1761.58 246.283 1762.77 246.059 1764.12 246.059C1766.13 246.059 1767.74 246.571 1768.95 247.596C1770.19 248.599 1770.85 249.976 1770.94 251.727H1767.29C1767.23 250.937 1766.91 250.307 1766.33 249.838C1765.75 249.368 1764.97 249.133 1763.99 249.133C1763.03 249.133 1762.29 249.315 1761.78 249.678C1761.27 250.04 1761.01 250.521 1761.01 251.119C1761.01 251.588 1761.18 251.983 1761.53 252.303C1761.87 252.624 1762.28 252.88 1762.77 253.072C1763.27 253.243 1763.99 253.467 1764.95 253.744C1766.23 254.086 1767.28 254.438 1768.09 254.801C1768.92 255.143 1769.64 255.655 1770.24 256.338C1770.83 257.021 1771.14 257.929 1771.16 259.06C1771.16 260.063 1770.89 260.96 1770.33 261.75C1769.78 262.54 1768.99 263.159 1767.96 263.607C1766.96 264.055 1765.77 264.28 1764.41 264.28ZM1776.97 244.01C1776.3 244.01 1775.75 243.785 1775.3 243.337C1774.85 242.889 1774.63 242.334 1774.63 241.672C1774.63 241.01 1774.85 240.455 1775.3 240.007C1775.75 239.559 1776.3 239.334 1776.97 239.334C1777.61 239.334 1778.15 239.559 1778.6 240.007C1779.05 240.455 1779.27 241.01 1779.27 241.672C1779.27 242.334 1779.05 242.889 1778.6 243.337C1778.15 243.785 1777.61 244.01 1776.97 244.01ZM1778.76 246.347V263.991H1775.11V246.347H1778.76ZM1791.21 264.28C1789.54 264.28 1788.03 263.906 1786.69 263.159C1785.35 262.39 1784.29 261.323 1783.52 259.957C1782.75 258.569 1782.37 256.968 1782.37 255.153C1782.37 253.36 1782.76 251.77 1783.55 250.382C1784.34 248.994 1785.42 247.927 1786.79 247.18C1788.15 246.433 1789.68 246.059 1791.37 246.059C1793.05 246.059 1794.58 246.433 1795.94 247.18C1797.31 247.927 1798.39 248.994 1799.18 250.382C1799.97 251.77 1800.36 253.36 1800.36 255.153C1800.36 256.947 1799.96 258.537 1799.15 259.925C1798.34 261.312 1797.23 262.39 1795.82 263.159C1794.43 263.906 1792.89 264.28 1791.21 264.28ZM1791.21 261.109C1792.14 261.109 1793.02 260.885 1793.83 260.437C1794.66 259.989 1795.34 259.316 1795.85 258.42C1796.36 257.523 1796.62 256.434 1796.62 255.153C1796.62 253.872 1796.37 252.794 1795.88 251.919C1795.39 251.022 1794.74 250.35 1793.93 249.902C1793.12 249.453 1792.24 249.229 1791.3 249.229C1790.36 249.229 1789.49 249.453 1788.68 249.902C1787.89 250.35 1787.26 251.022 1786.79 251.919C1786.32 252.794 1786.08 253.872 1786.08 255.153C1786.08 257.053 1786.56 258.526 1787.52 259.572C1788.5 260.597 1789.73 261.109 1791.21 261.109ZM1812.87 246.059C1814.26 246.059 1815.5 246.347 1816.59 246.924C1817.7 247.5 1818.56 248.354 1819.18 249.485C1819.8 250.617 1820.11 251.983 1820.11 253.584V263.991H1816.49V254.129C1816.49 252.549 1816.1 251.343 1815.31 250.51C1814.52 249.656 1813.44 249.229 1812.07 249.229C1810.71 249.229 1809.62 249.656 1808.81 250.51C1808.02 251.343 1807.62 252.549 1807.62 254.129V263.991H1803.97V246.347H1807.62V248.365C1808.22 247.639 1808.98 247.073 1809.9 246.667C1810.84 246.262 1811.83 246.059 1812.87 246.059ZM1831.17 264.28C1829.78 264.28 1828.54 264.034 1827.43 263.543C1826.34 263.031 1825.47 262.348 1824.83 261.494C1824.19 260.618 1823.85 259.647 1823.81 258.58H1827.59C1827.65 259.327 1828 259.957 1828.64 260.469C1829.3 260.96 1830.13 261.206 1831.11 261.206C1832.13 261.206 1832.92 261.013 1833.48 260.629C1834.05 260.224 1834.34 259.711 1834.34 259.092C1834.34 258.43 1834.02 257.939 1833.38 257.619C1832.76 257.299 1831.77 256.947 1830.4 256.562C1829.08 256.199 1828 255.847 1827.17 255.506C1826.34 255.164 1825.61 254.641 1824.99 253.936C1824.39 253.232 1824.1 252.303 1824.1 251.151C1824.1 250.211 1824.37 249.357 1824.93 248.589C1825.48 247.799 1826.27 247.18 1827.3 246.732C1828.34 246.283 1829.54 246.059 1830.88 246.059C1832.89 246.059 1834.5 246.571 1835.72 247.596C1836.96 248.599 1837.62 249.976 1837.7 251.727H1834.05C1833.99 250.937 1833.67 250.307 1833.09 249.838C1832.52 249.368 1831.74 249.133 1830.76 249.133C1829.8 249.133 1829.06 249.315 1828.55 249.678C1828.03 250.04 1827.78 250.521 1827.78 251.119C1827.78 251.588 1827.95 251.983 1828.29 252.303C1828.63 252.624 1829.05 252.88 1829.54 253.072C1830.03 253.243 1830.76 253.467 1831.72 253.744C1833 254.086 1834.04 254.438 1834.85 254.801C1835.69 255.143 1836.4 255.655 1837 256.338C1837.6 257.021 1837.91 257.929 1837.93 259.06C1837.93 260.063 1837.65 260.96 1837.1 261.75C1836.54 262.54 1835.75 263.159 1834.73 263.607C1833.72 264.055 1832.54 264.28 1831.17 264.28Z" fill="#6CAB36"/>
</svg>
