<svg width="4032" height="2268" viewBox="0 0 4032 2268" fill="none" xmlns="http://www.w3.org/2000/svg">
<g clip-path="url(#clip0_3_50)">
<rect x="5" y="266" width="4022" height="2182" rx="75" fill="white" stroke="#E5B300" stroke-width="10"/>
<rect x="-98" y="140" width="4013" height="2279" rx="75" fill="white" stroke="#E5B300" stroke-width="10"/>
<rect x="-68" y="5" width="3868" height="2414" rx="75" fill="white" stroke="#E5B300" stroke-width="10"/>
<rect x="662.137" y="719.137" width="1165.65" height="389.775" rx="194.887" fill="#FEF4FF"/>
<rect x="662.137" y="719.137" width="1165.65" height="389.775" rx="194.887" stroke="#FBCBFF" stroke-width="16.2737"/>
<path d="M810.112 967.524V861.006H852.137C860.182 861.006 867.047 862.445 872.734 865.323C878.455 868.166 882.806 872.205 885.788 877.441C888.805 882.642 890.313 888.762 890.313 895.801C890.313 902.875 888.788 908.96 885.736 914.057C882.685 919.119 878.264 923.003 872.473 925.707C866.718 928.412 859.748 929.764 851.565 929.764H823.427V911.664H847.924C852.224 911.664 855.795 911.075 858.639 909.896C861.482 908.717 863.597 906.949 864.984 904.591C866.406 902.233 867.116 899.303 867.116 895.801C867.116 892.264 866.406 889.282 864.984 886.855C863.597 884.428 861.464 882.59 858.587 881.342C855.743 880.059 852.155 879.418 847.82 879.418H832.633V967.524H810.112ZM867.636 919.05L894.11 967.524H869.249L843.347 919.05H867.636ZM940.933 969.084C932.715 969.084 925.642 967.42 919.712 964.091C913.818 960.728 909.276 955.978 906.086 949.84C902.896 943.668 901.301 936.37 901.301 927.944C901.301 919.726 902.896 912.514 906.086 906.307C909.276 900.101 913.766 895.264 919.556 891.796C925.382 888.329 932.212 886.595 940.049 886.595C945.319 886.595 950.226 887.445 954.768 889.144C959.345 890.808 963.332 893.322 966.73 896.685C970.163 900.049 972.833 904.279 974.74 909.376C976.647 914.438 977.601 920.368 977.601 927.164V933.249H910.142V919.518H956.744C956.744 916.328 956.051 913.502 954.664 911.04C953.277 908.578 951.352 906.654 948.891 905.267C946.463 903.845 943.637 903.135 940.413 903.135C937.049 903.135 934.067 903.915 931.467 905.475C928.901 907.001 926.89 909.064 925.434 911.664C923.977 914.23 923.232 917.091 923.197 920.246V933.301C923.197 937.254 923.925 940.669 925.382 943.547C926.873 946.425 928.97 948.644 931.675 950.205C934.38 951.765 937.587 952.545 941.297 952.545C943.759 952.545 946.013 952.198 948.058 951.505C950.104 950.811 951.855 949.771 953.311 948.384C954.768 946.997 955.877 945.298 956.64 943.287L977.133 944.639C976.092 949.563 973.96 953.863 970.735 957.538C967.545 961.179 963.419 964.022 958.357 966.068C953.329 968.079 947.521 969.084 940.933 969.084ZM992.06 967.524V887.635H1014.22V967.524H992.06ZM1003.19 877.337C999.896 877.337 997.07 876.245 994.712 874.06C992.389 871.841 991.227 869.189 991.227 866.103C991.227 863.052 992.389 860.434 994.712 858.249C997.07 856.03 999.896 854.92 1003.19 854.92C1006.48 854.92 1009.29 856.03 1011.62 858.249C1013.97 860.434 1015.15 863.052 1015.15 866.103C1015.15 869.189 1013.97 871.841 1011.62 874.06C1009.29 876.245 1006.48 877.337 1003.19 877.337ZM1031.97 967.524V887.635H1053.08V901.73H1054.02C1055.68 897.049 1058.46 893.357 1062.34 890.652C1066.22 887.947 1070.87 886.595 1076.28 886.595C1081.76 886.595 1086.42 887.965 1090.27 890.704C1094.12 893.409 1096.68 897.084 1097.97 901.73H1098.8C1100.43 897.153 1103.38 893.495 1107.64 890.756C1111.94 887.982 1117.02 886.595 1122.88 886.595C1130.34 886.595 1136.39 888.97 1141.03 893.721C1145.71 898.436 1148.05 905.128 1148.05 913.797V967.524H1125.95V918.166C1125.95 913.728 1124.77 910.399 1122.41 908.18C1120.05 905.961 1117.11 904.851 1113.57 904.851C1109.55 904.851 1106.41 906.134 1104.16 908.7C1101.9 911.231 1100.78 914.577 1100.78 918.738V967.524H1079.3V917.698C1079.3 913.78 1078.17 910.659 1075.91 908.336C1073.7 906.013 1070.77 904.851 1067.12 904.851C1064.66 904.851 1062.44 905.475 1060.47 906.723C1058.53 907.937 1056.98 909.653 1055.84 911.872C1054.69 914.057 1054.12 916.623 1054.12 919.57V967.524H1031.97ZM1188.34 969.032C1183.24 969.032 1178.7 968.148 1174.71 966.38C1170.72 964.577 1167.57 961.924 1165.24 958.422C1162.95 954.886 1161.81 950.482 1161.81 945.211C1161.81 940.773 1162.63 937.046 1164.25 934.029C1165.88 931.012 1168.1 928.585 1170.91 926.748C1173.72 924.91 1176.91 923.523 1180.48 922.587C1184.09 921.651 1187.87 920.992 1191.82 920.61C1196.47 920.125 1200.21 919.674 1203.06 919.258C1205.9 918.807 1207.96 918.148 1209.24 917.282C1210.53 916.415 1211.17 915.132 1211.17 913.433V913.121C1211.17 909.827 1210.13 907.278 1208.05 905.475C1206 903.672 1203.09 902.771 1199.31 902.771C1195.32 902.771 1192.15 903.655 1189.79 905.423C1187.43 907.157 1185.87 909.341 1185.11 911.976L1164.62 910.312C1165.66 905.458 1167.7 901.262 1170.76 897.725C1173.81 894.154 1177.74 891.415 1182.56 889.508C1187.42 887.566 1193.03 886.595 1199.41 886.595C1203.85 886.595 1208.1 887.115 1212.16 888.155C1216.25 889.196 1219.87 890.808 1223.03 892.992C1226.22 895.177 1228.73 897.986 1230.57 901.418C1232.41 904.816 1233.33 908.89 1233.33 913.641V967.524H1212.31V956.446H1211.69C1210.41 958.942 1208.69 961.144 1206.54 963.051C1204.39 964.924 1201.81 966.397 1198.79 967.472C1195.77 968.512 1192.29 969.032 1188.34 969.032ZM1194.68 953.741C1197.94 953.741 1200.82 953.1 1203.32 951.817C1205.81 950.499 1207.77 948.731 1209.19 946.512C1210.61 944.293 1211.32 941.779 1211.32 938.97V930.492C1210.63 930.943 1209.68 931.359 1208.46 931.741C1207.29 932.087 1205.95 932.417 1204.46 932.729C1202.97 933.006 1201.48 933.266 1199.99 933.509C1198.5 933.717 1197.14 933.908 1195.93 934.081C1193.33 934.463 1191.06 935.069 1189.12 935.902C1187.17 936.734 1185.67 937.861 1184.59 939.282C1183.52 940.669 1182.98 942.403 1182.98 944.483C1182.98 947.5 1184.07 949.806 1186.26 951.401C1188.47 952.961 1191.28 953.741 1194.68 953.741ZM1286.51 999.147C1279.33 999.147 1273.17 998.159 1268.04 996.182C1262.95 994.24 1258.89 991.588 1255.87 988.225C1252.86 984.861 1250.9 981.082 1249.99 976.886L1270.49 974.13C1271.11 975.725 1272.1 977.216 1273.45 978.603C1274.8 979.989 1276.59 981.099 1278.81 981.931C1281.06 982.798 1283.8 983.231 1287.03 983.231C1291.85 983.231 1295.82 982.053 1298.94 979.695C1302.09 977.372 1303.67 973.471 1303.67 967.992V953.377H1302.73C1301.76 955.596 1300.31 957.694 1298.37 959.671C1296.42 961.647 1293.93 963.259 1290.88 964.508C1287.82 965.756 1284.18 966.38 1279.95 966.38C1273.95 966.38 1268.49 964.993 1263.57 962.219C1258.68 959.41 1254.78 955.128 1251.87 949.372C1248.99 943.582 1247.55 936.266 1247.55 927.424C1247.55 918.374 1249.02 910.815 1251.97 904.747C1254.92 898.679 1258.84 894.137 1263.73 891.12C1268.65 888.103 1274.04 886.595 1279.9 886.595C1284.37 886.595 1288.12 887.358 1291.14 888.884C1294.15 890.375 1296.58 892.247 1298.42 894.501C1300.29 896.72 1301.73 898.904 1302.73 901.054H1303.57V887.635H1325.57V968.304C1325.57 975.1 1323.9 980.787 1320.57 985.364C1317.25 989.941 1312.63 993.374 1306.74 995.662C1300.88 997.985 1294.13 999.147 1286.51 999.147ZM1286.97 949.736C1290.55 949.736 1293.56 948.852 1296.02 947.084C1298.52 945.281 1300.43 942.715 1301.75 939.386C1303.1 936.023 1303.77 932.001 1303.77 927.32C1303.77 922.639 1303.12 918.582 1301.8 915.149C1300.48 911.682 1298.57 908.995 1296.08 907.087C1293.58 905.18 1290.55 904.227 1286.97 904.227C1283.33 904.227 1280.27 905.215 1277.77 907.191C1275.27 909.133 1273.38 911.838 1272.1 915.305C1270.82 918.773 1270.18 922.777 1270.18 927.32C1270.18 931.931 1270.82 935.919 1272.1 939.282C1273.42 942.611 1275.31 945.194 1277.77 947.032C1280.27 948.835 1283.33 949.736 1286.97 949.736ZM1343.2 967.524V887.635H1365.36V967.524H1343.2ZM1354.33 877.337C1351.03 877.337 1348.21 876.245 1345.85 874.06C1343.53 871.841 1342.37 869.189 1342.37 866.103C1342.37 863.052 1343.53 860.434 1345.85 858.249C1348.21 856.03 1351.03 854.92 1354.33 854.92C1357.62 854.92 1360.43 856.03 1362.75 858.249C1365.11 860.434 1366.29 863.052 1366.29 866.103C1366.29 869.189 1365.11 871.841 1362.75 874.06C1360.43 876.245 1357.62 877.337 1354.33 877.337ZM1405.26 921.338V967.524H1383.1V887.635H1404.22V901.73H1405.16C1406.92 897.084 1409.89 893.409 1414.05 890.704C1418.21 887.965 1423.26 886.595 1429.19 886.595C1434.73 886.595 1439.57 887.809 1443.7 890.236C1447.82 892.663 1451.03 896.13 1453.32 900.638C1455.61 905.111 1456.75 910.451 1456.75 916.657V967.524H1434.59V920.61C1434.63 915.721 1433.38 911.907 1430.85 909.168C1428.32 906.394 1424.83 905.007 1420.4 905.007C1417.41 905.007 1414.78 905.648 1412.49 906.931C1410.24 908.214 1408.47 910.087 1407.19 912.549C1405.94 914.976 1405.3 917.906 1405.26 921.338ZM1474.21 967.524V887.635H1496.37V967.524H1474.21ZM1485.34 877.337C1482.05 877.337 1479.22 876.245 1476.87 874.06C1474.54 871.841 1473.38 869.189 1473.38 866.103C1473.38 863.052 1474.54 860.434 1476.87 858.249C1479.22 856.03 1482.05 854.92 1485.34 854.92C1488.64 854.92 1491.45 856.03 1493.77 858.249C1496.13 860.434 1497.31 863.052 1497.31 866.103C1497.31 869.189 1496.13 871.841 1493.77 874.06C1491.45 876.245 1488.64 877.337 1485.34 877.337ZM1536.28 921.338V967.524H1514.12V887.635H1535.24V901.73H1536.17C1537.94 897.084 1540.91 893.409 1545.07 890.704C1549.23 887.965 1554.27 886.595 1560.2 886.595C1565.75 886.595 1570.59 887.809 1574.71 890.236C1578.84 892.663 1582.05 896.13 1584.33 900.638C1586.62 905.111 1587.77 910.451 1587.77 916.657V967.524H1565.61V920.61C1565.65 915.721 1564.4 911.907 1561.87 909.168C1559.33 906.394 1555.85 905.007 1551.41 905.007C1548.43 905.007 1545.79 905.648 1543.51 906.931C1541.25 908.214 1539.48 910.087 1538.2 912.549C1536.95 914.976 1536.31 917.906 1536.28 921.338ZM1641.22 999.147C1634.04 999.147 1627.89 998.159 1622.76 996.182C1617.66 994.24 1613.6 991.588 1610.59 988.225C1607.57 984.861 1605.61 981.082 1604.71 976.886L1625.2 974.13C1625.83 975.725 1626.81 977.216 1628.17 978.603C1629.52 979.989 1631.3 981.099 1633.52 981.931C1635.78 982.798 1638.52 983.231 1641.74 983.231C1646.56 983.231 1650.53 982.053 1653.65 979.695C1656.81 977.372 1658.38 973.471 1658.38 967.992V953.377H1657.45C1656.48 955.596 1655.02 957.694 1653.08 959.671C1651.14 961.647 1648.64 963.259 1645.59 964.508C1642.54 965.756 1638.9 966.38 1634.67 966.38C1628.67 966.38 1623.21 964.993 1618.28 962.219C1613.4 959.41 1609.49 955.128 1606.58 949.372C1603.7 943.582 1602.27 936.266 1602.27 927.424C1602.27 918.374 1603.74 910.815 1606.69 904.747C1609.63 898.679 1613.55 894.137 1618.44 891.12C1623.36 888.103 1628.76 886.595 1634.62 886.595C1639.09 886.595 1642.83 887.358 1645.85 888.884C1648.87 890.375 1651.29 892.247 1653.13 894.501C1655 896.72 1656.44 898.904 1657.45 901.054H1658.28V887.635H1680.28V968.304C1680.28 975.1 1678.62 980.787 1675.29 985.364C1671.96 989.941 1667.35 993.374 1661.45 995.662C1655.59 997.985 1648.85 999.147 1641.22 999.147ZM1641.69 949.736C1645.26 949.736 1648.28 948.852 1650.74 947.084C1653.24 945.281 1655.14 942.715 1656.46 939.386C1657.81 936.023 1658.49 932.001 1658.49 927.32C1658.49 922.639 1657.83 918.582 1656.51 915.149C1655.19 911.682 1653.29 908.995 1650.79 907.087C1648.29 905.18 1645.26 904.227 1641.69 904.227C1638.05 904.227 1634.98 905.215 1632.48 907.191C1629.99 909.133 1628.1 911.838 1626.81 915.305C1625.53 918.773 1624.89 922.777 1624.89 927.32C1624.89 931.931 1625.53 935.919 1626.81 939.282C1628.13 942.611 1630.02 945.194 1632.48 947.032C1634.98 948.835 1638.05 949.736 1641.69 949.736Z" fill="#E579D3"/>
<rect x="2104.95" y="1126.81" width="1046.65" height="389.775" rx="194.887" fill="#F4FFEA"/>
<rect x="2104.95" y="1126.81" width="1046.65" height="389.775" rx="194.887" stroke="#C2ED9E" stroke-width="16.2737"/>
<path d="M2276.9 1375.19L2246.42 1268.67H2271.02L2288.65 1342.69H2289.54L2308.99 1268.67H2330.05L2349.45 1342.84H2350.39L2368.02 1268.67H2392.62L2362.15 1375.19H2340.2L2319.91 1305.55H2319.08L2298.85 1375.19H2276.9ZM2431.78 1376.75C2423.7 1376.75 2416.71 1375.04 2410.81 1371.6C2404.95 1368.14 2400.43 1363.32 2397.24 1357.15C2394.05 1350.94 2392.45 1343.74 2392.45 1335.56C2392.45 1327.31 2394.05 1320.1 2397.24 1313.92C2400.43 1307.72 2404.95 1302.9 2410.81 1299.47C2416.71 1296 2423.7 1294.26 2431.78 1294.26C2439.85 1294.26 2446.82 1296 2452.68 1299.47C2458.58 1302.9 2463.12 1307.72 2466.31 1313.92C2469.5 1320.1 2471.1 1327.31 2471.1 1335.56C2471.1 1343.74 2469.5 1350.94 2466.31 1357.15C2463.12 1363.32 2458.58 1368.14 2452.68 1371.6C2446.82 1375.04 2439.85 1376.75 2431.78 1376.75ZM2431.88 1359.59C2435.55 1359.59 2438.62 1358.55 2441.08 1356.47C2443.55 1354.35 2445.4 1351.48 2446.65 1347.84C2447.93 1344.19 2448.57 1340.05 2448.57 1335.4C2448.57 1330.76 2447.93 1326.61 2446.65 1322.97C2445.4 1319.33 2443.55 1316.46 2441.08 1314.34C2438.62 1312.23 2435.55 1311.17 2431.88 1311.17C2428.17 1311.17 2425.05 1312.23 2422.52 1314.34C2420.02 1316.46 2418.13 1319.33 2416.85 1322.97C2415.6 1326.61 2414.98 1330.76 2414.98 1335.4C2414.98 1340.05 2415.6 1344.19 2416.85 1347.84C2418.13 1351.48 2420.02 1354.35 2422.52 1356.47C2425.05 1358.55 2428.17 1359.59 2431.88 1359.59ZM2485.5 1375.19V1295.3H2506.98V1309.24H2507.82C2509.27 1304.28 2511.72 1300.54 2515.15 1298.01C2518.58 1295.44 2522.53 1294.16 2527.01 1294.16C2528.12 1294.16 2529.31 1294.23 2530.6 1294.37C2531.88 1294.51 2533.01 1294.7 2533.98 1294.94V1314.6C2532.94 1314.29 2531.5 1314.01 2529.66 1313.77C2527.82 1313.53 2526.14 1313.4 2524.61 1313.4C2521.36 1313.4 2518.44 1314.11 2515.88 1315.54C2513.35 1316.92 2511.33 1318.87 2509.84 1321.36C2508.39 1323.86 2507.66 1326.74 2507.66 1330V1375.19H2485.5ZM2565.51 1352.2L2565.56 1325.63H2568.78L2594.37 1295.3H2619.81L2585.43 1335.46H2580.18L2565.51 1352.2ZM2545.43 1375.19V1268.67H2567.59V1375.19H2545.43ZM2595.36 1375.19L2571.85 1340.4L2586.62 1324.74L2621.32 1375.19H2595.36ZM2630.68 1405.15V1295.3H2652.52V1308.72H2653.51C2654.48 1306.57 2655.89 1304.39 2657.72 1302.17C2659.6 1299.92 2662.02 1298.04 2665.01 1296.55C2668.02 1295.03 2671.77 1294.26 2676.24 1294.26C2682.06 1294.26 2687.44 1295.79 2692.36 1298.84C2697.29 1301.86 2701.22 1306.42 2704.17 1312.52C2707.12 1318.59 2708.59 1326.2 2708.59 1335.35C2708.59 1344.26 2707.15 1351.79 2704.27 1357.93C2701.43 1364.03 2697.55 1368.66 2692.62 1371.81C2687.73 1374.93 2682.26 1376.49 2676.19 1376.49C2671.89 1376.49 2668.23 1375.78 2665.21 1374.36C2662.23 1372.94 2659.79 1371.15 2657.88 1369C2655.97 1366.82 2654.52 1364.62 2653.51 1362.4H2652.83V1405.15H2630.68ZM2652.37 1335.25C2652.37 1340 2653.03 1344.14 2654.34 1347.68C2655.66 1351.22 2657.57 1353.97 2660.06 1355.95C2662.56 1357.89 2665.59 1358.86 2669.17 1358.86C2672.77 1358.86 2675.82 1357.87 2678.32 1355.9C2680.82 1353.89 2682.71 1351.11 2683.99 1347.58C2685.31 1344 2685.97 1339.9 2685.97 1335.25C2685.97 1330.64 2685.32 1326.58 2684.04 1323.08C2682.76 1319.58 2680.87 1316.84 2678.37 1314.86C2675.88 1312.88 2672.81 1311.9 2669.17 1311.9C2665.56 1311.9 2662.51 1312.85 2660.01 1314.76C2657.55 1316.66 2655.66 1319.37 2654.34 1322.87C2653.03 1326.37 2652.37 1330.5 2652.37 1335.25ZM2745.52 1268.67V1375.19H2723.36V1268.67H2745.52ZM2786.05 1376.7C2780.95 1376.7 2776.41 1375.82 2772.42 1374.05C2768.43 1372.25 2765.28 1369.59 2762.95 1366.09C2760.67 1362.55 2759.52 1358.15 2759.52 1352.88C2759.52 1348.44 2760.34 1344.71 2761.97 1341.7C2763.6 1338.68 2765.82 1336.25 2768.62 1334.42C2771.43 1332.58 2774.62 1331.19 2778.19 1330.26C2781.8 1329.32 2785.58 1328.66 2789.53 1328.28C2794.18 1327.79 2797.92 1327.34 2800.77 1326.93C2803.61 1326.48 2805.67 1325.82 2806.96 1324.95C2808.24 1324.08 2808.88 1322.8 2808.88 1321.1V1320.79C2808.88 1317.5 2807.84 1314.95 2805.76 1313.14C2803.71 1311.34 2800.8 1310.44 2797.02 1310.44C2793.03 1310.44 2789.86 1311.32 2787.5 1313.09C2785.15 1314.83 2783.59 1317.01 2782.82 1319.65L2762.33 1317.98C2763.37 1313.13 2765.42 1308.93 2768.47 1305.39C2771.52 1301.82 2775.45 1299.08 2780.27 1297.18C2785.13 1295.23 2790.75 1294.26 2797.13 1294.26C2801.56 1294.26 2805.81 1294.78 2809.87 1295.82C2813.96 1296.86 2817.58 1298.48 2820.74 1300.66C2823.93 1302.85 2826.44 1305.65 2828.28 1309.09C2830.12 1312.49 2831.04 1316.56 2831.04 1321.31V1375.19H2810.02V1364.11H2809.4C2808.12 1366.61 2806.4 1368.81 2804.25 1370.72C2802.1 1372.59 2799.52 1374.07 2796.5 1375.14C2793.49 1376.18 2790 1376.7 2786.05 1376.7ZM2792.39 1361.41C2795.65 1361.41 2798.53 1360.77 2801.03 1359.49C2803.52 1358.17 2805.48 1356.4 2806.9 1354.18C2808.33 1351.96 2809.04 1349.45 2809.04 1346.64V1338.16C2808.34 1338.61 2807.39 1339.03 2806.18 1339.41C2805 1339.76 2803.66 1340.09 2802.17 1340.4C2800.68 1340.68 2799.19 1340.94 2797.7 1341.18C2796.21 1341.39 2794.85 1341.58 2793.64 1341.75C2791.04 1342.13 2788.77 1342.74 2786.83 1343.57C2784.89 1344.4 2783.38 1345.53 2782.3 1346.95C2781.23 1348.34 2780.69 1350.07 2780.69 1352.15C2780.69 1355.17 2781.78 1357.47 2783.97 1359.07C2786.19 1360.63 2788.99 1361.41 2792.39 1361.41ZM2884.32 1376.75C2876.14 1376.75 2869.1 1375.02 2863.21 1371.55C2857.35 1368.05 2852.84 1363.2 2849.68 1356.99C2846.56 1350.78 2845 1343.64 2845 1335.56C2845 1327.38 2846.58 1320.2 2849.74 1314.03C2852.93 1307.82 2857.45 1302.98 2863.31 1299.52C2869.17 1296.02 2876.14 1294.26 2884.22 1294.26C2891.19 1294.26 2897.29 1295.53 2902.53 1298.06C2907.76 1300.59 2911.91 1304.15 2914.96 1308.72C2918.01 1313.3 2919.69 1318.67 2920 1324.85H2899.09C2898.5 1320.86 2896.94 1317.65 2894.41 1315.22C2891.92 1312.76 2888.64 1311.53 2884.58 1311.53C2881.15 1311.53 2878.15 1312.47 2875.58 1314.34C2873.05 1316.18 2871.08 1318.87 2869.66 1322.4C2868.23 1325.94 2867.52 1330.22 2867.52 1335.25C2867.52 1340.35 2868.22 1344.68 2869.6 1348.25C2871.02 1351.82 2873.02 1354.54 2875.58 1356.42C2878.15 1358.29 2881.15 1359.23 2884.58 1359.23C2887.11 1359.23 2889.38 1358.71 2891.4 1357.67C2893.44 1356.63 2895.12 1355.12 2896.44 1353.14C2897.79 1351.13 2898.68 1348.72 2899.09 1345.91H2920C2919.66 1352.01 2917.99 1357.39 2915.01 1362.03C2912.06 1366.65 2907.99 1370.25 2902.79 1372.85C2897.59 1375.45 2891.43 1376.75 2884.32 1376.75ZM2970.6 1376.75C2962.38 1376.75 2955.3 1375.09 2949.38 1371.76C2943.48 1368.4 2938.94 1363.65 2935.75 1357.51C2932.56 1351.34 2930.96 1344.04 2930.96 1335.61C2930.96 1327.4 2932.56 1320.18 2935.75 1313.98C2938.94 1307.77 2943.43 1302.93 2949.22 1299.47C2955.04 1296 2961.87 1294.26 2969.71 1294.26C2974.98 1294.26 2979.89 1295.11 2984.43 1296.81C2989.01 1298.48 2992.99 1300.99 2996.39 1304.35C2999.83 1307.72 3002.5 1311.95 3004.4 1317.04C3006.31 1322.11 3007.26 1328.04 3007.26 1334.83V1340.92H2939.8V1327.19H2986.41C2986.41 1324 2985.71 1321.17 2984.33 1318.71C2982.94 1316.25 2981.02 1314.32 2978.55 1312.94C2976.13 1311.51 2973.3 1310.8 2970.08 1310.8C2966.71 1310.8 2963.73 1311.58 2961.13 1313.14C2958.56 1314.67 2956.55 1316.73 2955.1 1319.33C2953.64 1321.9 2952.89 1324.76 2952.86 1327.92V1340.97C2952.86 1344.92 2953.59 1348.34 2955.04 1351.22C2956.54 1354.09 2958.63 1356.31 2961.34 1357.87C2964.04 1359.43 2967.25 1360.21 2970.96 1360.21C2973.42 1360.21 2975.68 1359.87 2977.72 1359.17C2979.77 1358.48 2981.52 1357.44 2982.97 1356.05C2984.43 1354.67 2985.54 1352.97 2986.3 1350.96L3006.8 1352.31C3005.75 1357.23 3003.62 1361.53 3000.4 1365.21C2997.21 1368.85 2993.08 1371.69 2988.02 1373.74C2982.99 1375.75 2977.18 1376.75 2970.6 1376.75Z" fill="#6CAB36"/>
<rect x="1845.69" y="719.137" width="907.652" height="389.775" rx="194.887" fill="#FFF8DE"/>
<rect x="1845.69" y="719.137" width="907.652" height="389.775" rx="194.887" stroke="#FFC908" stroke-width="16.2737"/>
<path d="M1993.61 967.524V861.006H2016.13V948.956H2061.79V967.524H1993.61ZM2112.7 969.084C2104.48 969.084 2097.41 967.42 2091.48 964.091C2085.59 960.728 2081.04 955.978 2077.85 949.84C2074.66 943.668 2073.07 936.37 2073.07 927.944C2073.07 919.726 2074.66 912.514 2077.85 906.307C2081.04 900.101 2085.53 895.264 2091.32 891.796C2097.15 888.329 2103.98 886.595 2111.82 886.595C2117.09 886.595 2121.99 887.445 2126.54 889.144C2131.11 890.808 2135.1 893.322 2138.5 896.685C2141.93 900.049 2144.6 904.279 2146.51 909.376C2148.41 914.438 2149.37 920.368 2149.37 927.164V933.249H2081.91V919.518H2128.51C2128.51 916.328 2127.82 913.502 2126.43 911.04C2125.04 908.578 2123.12 906.654 2120.66 905.267C2118.23 903.845 2115.41 903.135 2112.18 903.135C2108.82 903.135 2105.84 903.915 2103.23 905.475C2100.67 907.001 2098.66 909.064 2097.2 911.664C2095.75 914.23 2095 917.091 2094.96 920.246V933.301C2094.96 937.254 2095.69 940.669 2097.15 943.547C2098.64 946.425 2100.74 948.644 2103.44 950.205C2106.15 951.765 2109.35 952.545 2113.06 952.545C2115.53 952.545 2117.78 952.198 2119.83 951.505C2121.87 950.811 2123.62 949.771 2125.08 948.384C2126.54 946.997 2127.65 945.298 2128.41 943.287L2148.9 944.639C2147.86 949.563 2145.73 953.863 2142.5 957.538C2139.31 961.179 2135.19 964.022 2130.12 966.068C2125.1 968.079 2119.29 969.084 2112.7 969.084ZM2186.61 969.032C2181.51 969.032 2176.97 968.148 2172.98 966.38C2168.99 964.577 2165.84 961.924 2163.52 958.422C2161.23 954.886 2160.08 950.482 2160.08 945.211C2160.08 940.773 2160.9 937.046 2162.53 934.029C2164.16 931.012 2166.38 928.585 2169.18 926.748C2171.99 924.91 2175.18 923.523 2178.75 922.587C2182.36 921.651 2186.14 920.992 2190.09 920.61C2194.74 920.125 2198.48 919.674 2201.33 919.258C2204.17 918.807 2206.23 918.148 2207.52 917.282C2208.8 916.415 2209.44 915.132 2209.44 913.433V913.121C2209.44 909.827 2208.4 907.278 2206.32 905.475C2204.27 903.672 2201.36 902.771 2197.58 902.771C2193.6 902.771 2190.42 903.655 2188.06 905.423C2185.71 907.157 2184.15 909.341 2183.38 911.976L2162.89 910.312C2163.93 905.458 2165.98 901.262 2169.03 897.725C2172.08 894.154 2176.02 891.415 2180.84 889.508C2185.69 887.566 2191.31 886.595 2197.69 886.595C2202.12 886.595 2206.37 887.115 2210.43 888.155C2214.52 889.196 2218.14 890.808 2221.3 892.992C2224.49 895.177 2227 897.986 2228.84 901.418C2230.68 904.816 2231.6 908.89 2231.6 913.641V967.524H2210.59V956.446H2209.96C2208.68 958.942 2206.96 961.144 2204.81 963.051C2202.66 964.924 2200.08 966.397 2197.06 967.472C2194.05 968.512 2190.56 969.032 2186.61 969.032ZM2192.95 953.741C2196.21 953.741 2199.09 953.1 2201.59 951.817C2204.08 950.499 2206.04 948.731 2207.46 946.512C2208.89 944.293 2209.6 941.779 2209.6 938.97V930.492C2208.9 930.943 2207.95 931.359 2206.74 931.741C2205.56 932.087 2204.22 932.417 2202.73 932.729C2201.24 933.006 2199.75 933.266 2198.26 933.509C2196.77 933.717 2195.42 933.908 2194.2 934.081C2191.6 934.463 2189.33 935.069 2187.39 935.902C2185.45 936.734 2183.94 937.861 2182.86 939.282C2181.79 940.669 2181.25 942.403 2181.25 944.483C2181.25 947.5 2182.34 949.806 2184.53 951.401C2186.75 952.961 2189.56 953.741 2192.95 953.741ZM2248.79 967.524V887.635H2270.27V901.574H2271.1C2272.56 896.616 2275 892.871 2278.43 890.34C2281.87 887.774 2285.82 886.491 2290.29 886.491C2291.4 886.491 2292.6 886.56 2293.88 886.699C2295.16 886.838 2296.29 887.029 2297.26 887.271V906.931C2296.22 906.619 2294.78 906.342 2292.94 906.099C2291.11 905.857 2289.43 905.735 2287.9 905.735C2284.64 905.735 2281.73 906.446 2279.16 907.868C2276.63 909.255 2274.62 911.196 2273.13 913.693C2271.67 916.189 2270.94 919.067 2270.94 922.327V967.524H2248.79ZM2330.87 921.338V967.524H2308.72V887.635H2329.83V901.73H2330.77C2332.54 897.084 2335.5 893.409 2339.66 890.704C2343.82 887.965 2348.87 886.595 2354.8 886.595C2360.35 886.595 2365.18 887.809 2369.31 890.236C2373.44 892.663 2376.64 896.13 2378.93 900.638C2381.22 905.111 2382.36 910.451 2382.36 916.657V967.524H2360.21V920.61C2360.24 915.721 2358.99 911.907 2356.46 909.168C2353.93 906.394 2350.45 905.007 2346.01 905.007C2343.03 905.007 2340.39 905.648 2338.1 906.931C2335.85 908.214 2334.08 910.087 2332.8 912.549C2331.55 914.976 2330.91 917.906 2330.87 921.338ZM2399.83 967.524V887.635H2421.98V967.524H2399.83ZM2410.96 877.337C2407.66 877.337 2404.84 876.245 2402.48 874.06C2400.16 871.841 2398.99 869.189 2398.99 866.103C2398.99 863.052 2400.16 860.434 2402.48 858.249C2404.84 856.03 2407.66 854.92 2410.96 854.92C2414.25 854.92 2417.06 856.03 2419.38 858.249C2421.74 860.434 2422.92 863.052 2422.92 866.103C2422.92 869.189 2421.74 871.841 2419.38 874.06C2417.06 876.245 2414.25 877.337 2410.96 877.337ZM2461.89 921.338V967.524H2439.73V887.635H2460.85V901.73H2461.79C2463.55 897.084 2466.52 893.409 2470.68 890.704C2474.84 887.965 2479.88 886.595 2485.81 886.595C2491.36 886.595 2496.2 887.809 2500.33 890.236C2504.45 892.663 2507.66 896.13 2509.95 900.638C2512.24 905.111 2513.38 910.451 2513.38 916.657V967.524H2491.22V920.61C2491.26 915.721 2490.01 911.907 2487.48 909.168C2484.95 906.394 2481.46 905.007 2477.02 905.007C2474.04 905.007 2471.41 905.648 2469.12 906.931C2466.86 908.214 2465.1 910.087 2463.81 912.549C2462.57 914.976 2461.92 917.906 2461.89 921.338ZM2566.83 999.147C2559.66 999.147 2553.5 998.159 2548.37 996.182C2543.27 994.24 2539.22 991.588 2536.2 988.225C2533.18 984.861 2531.22 981.082 2530.32 976.886L2550.81 974.13C2551.44 975.725 2552.43 977.216 2553.78 978.603C2555.13 979.989 2556.92 981.099 2559.14 981.931C2561.39 982.798 2564.13 983.231 2567.35 983.231C2572.17 983.231 2576.14 982.053 2579.26 979.695C2582.42 977.372 2584 973.471 2584 967.992V953.377H2583.06C2582.09 955.596 2580.63 957.694 2578.69 959.671C2576.75 961.647 2574.25 963.259 2571.2 964.508C2568.15 965.756 2564.51 966.38 2560.28 966.38C2554.28 966.38 2548.82 964.993 2543.9 962.219C2539.01 959.41 2535.11 955.128 2532.19 949.372C2529.32 943.582 2527.88 936.266 2527.88 927.424C2527.88 918.374 2529.35 910.815 2532.3 904.747C2535.25 898.679 2539.16 894.137 2544.05 891.12C2548.98 888.103 2554.37 886.595 2560.23 886.595C2564.7 886.595 2568.45 887.358 2571.46 888.884C2574.48 890.375 2576.91 892.247 2578.74 894.501C2580.62 896.72 2582.06 898.904 2583.06 901.054H2583.89V887.635H2605.89V968.304C2605.89 975.1 2604.23 980.787 2600.9 985.364C2597.57 989.941 2592.96 993.374 2587.07 995.662C2581.21 997.985 2574.46 999.147 2566.83 999.147ZM2567.3 949.736C2570.87 949.736 2573.89 948.852 2576.35 947.084C2578.85 945.281 2580.76 942.715 2582.07 939.386C2583.43 936.023 2584.1 932.001 2584.1 927.32C2584.1 922.639 2583.44 918.582 2582.13 915.149C2580.81 911.682 2578.9 908.995 2576.4 907.087C2573.91 905.18 2570.87 904.227 2567.3 904.227C2563.66 904.227 2560.59 905.215 2558.1 907.191C2555.6 909.133 2553.71 911.838 2552.43 915.305C2551.14 918.773 2550.5 922.777 2550.5 927.32C2550.5 931.931 2551.14 935.919 2552.43 939.282C2553.74 942.611 2555.63 945.194 2558.1 947.032C2560.59 948.835 2563.66 949.736 2567.3 949.736Z" fill="#E5B300"/>
<rect x="662.137" y="1126.81" width="409.652" height="389.775" rx="194.887" fill="#F4FFEA"/>
<rect x="662.137" y="1126.81" width="409.652" height="389.775" rx="194.887" stroke="#C2ED9E" stroke-width="16.2737"/>
<path d="M832.662 1268.67V1375.19H810.141V1268.67H832.662ZM872.931 1329.01V1375.19H850.774V1295.3H871.891V1309.4H872.827C874.595 1304.75 877.56 1301.08 881.721 1298.37C885.882 1295.63 890.927 1294.26 896.856 1294.26C902.404 1294.26 907.241 1295.48 911.367 1297.9C915.493 1300.33 918.701 1303.8 920.989 1308.31C923.278 1312.78 924.422 1318.12 924.422 1324.33V1375.19H902.265V1328.28C902.3 1323.39 901.052 1319.58 898.521 1316.84C895.989 1314.06 892.505 1312.68 888.066 1312.68C885.084 1312.68 882.449 1313.32 880.161 1314.6C877.907 1315.88 876.138 1317.76 874.856 1320.22C873.607 1322.64 872.966 1325.57 872.931 1329.01Z" fill="#6CAB36"/>
<path fill-rule="evenodd" clip-rule="evenodd" d="M2960.81 892.718C2954.15 901.002 2946.34 908.318 2937.61 914.42C2946.34 920.523 2954.15 927.839 2960.81 936.123C2967.46 927.839 2975.27 920.523 2984 914.421C2975.27 908.318 2967.46 901.002 2960.81 892.718ZM3111.98 914.421C3140.86 894.214 3159.76 860.698 3159.76 822.77C3159.76 761.041 3109.72 711 3047.99 711C3012.73 711 2981.29 727.322 2960.81 752.822C2940.32 727.322 2908.88 711 2873.62 711C2811.9 711 2761.85 761.041 2761.85 822.77C2761.85 860.698 2780.75 894.214 2809.63 914.421C2780.75 934.627 2761.85 968.143 2761.85 1006.07C2761.85 1067.8 2811.9 1117.84 2873.62 1117.84C2908.88 1117.84 2940.32 1101.52 2960.81 1076.02C2981.29 1101.52 3012.73 1117.84 3047.99 1117.84C3109.72 1117.84 3159.76 1067.8 3159.76 1006.07C3159.76 968.143 3140.86 934.627 3111.98 914.421Z" fill="#E579D3"/>
<path d="M2046.8 1518.56C2070.39 1497.18 2011.74 1394.02 1915.8 1288.14C1819.85 1182.26 1722.94 1113.75 1699.35 1135.13C1675.76 1156.51 1734.41 1259.67 1830.35 1365.55C1926.3 1471.43 2023.21 1539.94 2046.8 1518.56Z" fill="#6FAAF8"/>
<path d="M2069.44 1371.74C2093.75 1349.71 2063.79 1277.04 2002.53 1209.43C1941.26 1141.81 1871.88 1104.86 1847.56 1126.89C1823.25 1148.92 1853.21 1221.59 1914.48 1289.2C1975.75 1356.82 2045.13 1393.77 2069.44 1371.74Z" fill="#6FAAF8"/>
<path d="M1889.99 1517.42C1913.8 1495.85 1883.43 1423.55 1822.16 1355.93C1760.89 1288.32 1691.92 1251 1668.11 1272.57C1644.3 1294.14 1674.67 1366.44 1735.94 1434.06C1797.21 1501.67 1866.18 1539 1889.99 1517.42Z" fill="#6FAAF8"/>
<path d="M2087.34 1251.41C2104.02 1237.46 2097.31 1201.95 2072.34 1172.09C2047.37 1142.23 2013.6 1129.33 1996.92 1143.28C1980.24 1157.22 1986.96 1192.74 2011.93 1222.6C2036.9 1252.46 2070.66 1265.36 2087.34 1251.41Z" fill="#6FAAF8"/>
<rect x="1089.14" y="1127.14" width="553.652" height="389.775" rx="194.887" fill="#EBF4FF"/>
<rect x="1089.14" y="1127.14" width="553.652" height="389.775" rx="194.887" stroke="#CFE4FE" stroke-width="16.2737"/>
<path d="M1232.78 1287.57V1269.01H1320.26V1287.57H1287.65V1375.52H1265.39V1287.57H1232.78ZM1356.41 1329.34V1375.52H1334.26V1269.01H1355.79V1309.73H1356.72C1358.53 1305.01 1361.44 1301.32 1365.46 1298.65C1369.48 1295.95 1374.53 1294.6 1380.6 1294.6C1386.15 1294.6 1390.98 1295.81 1395.11 1298.24C1399.27 1300.63 1402.49 1304.08 1404.78 1308.59C1407.11 1313.06 1408.25 1318.42 1408.22 1324.66V1375.52H1386.06V1328.61C1386.09 1323.69 1384.84 1319.86 1382.31 1317.12C1379.82 1314.38 1376.32 1313.01 1371.81 1313.01C1368.79 1313.01 1366.12 1313.65 1363.8 1314.93C1361.51 1316.21 1359.71 1318.09 1358.39 1320.55C1357.11 1322.98 1356.45 1325.91 1356.41 1329.34ZM1462.06 1377.08C1453.84 1377.08 1446.77 1375.42 1440.84 1372.09C1434.94 1368.73 1430.4 1363.98 1427.21 1357.84C1424.02 1351.67 1422.43 1344.37 1422.43 1335.94C1422.43 1327.73 1424.02 1320.51 1427.21 1314.31C1430.4 1308.1 1434.89 1303.26 1440.68 1299.8C1446.51 1296.33 1453.34 1294.6 1461.18 1294.6C1466.45 1294.6 1471.35 1295.44 1475.89 1297.14C1480.47 1298.81 1484.46 1301.32 1487.86 1304.69C1491.29 1308.05 1493.96 1312.28 1495.87 1317.38C1497.77 1322.44 1498.73 1328.37 1498.73 1335.16V1341.25H1431.27V1327.52H1477.87C1477.87 1324.33 1477.18 1321.5 1475.79 1319.04C1474.4 1316.58 1472.48 1314.65 1470.02 1313.27C1467.59 1311.85 1464.76 1311.13 1461.54 1311.13C1458.18 1311.13 1455.19 1311.91 1452.59 1313.48C1450.03 1315 1448.02 1317.06 1446.56 1319.66C1445.1 1322.23 1444.36 1325.09 1444.32 1328.25V1341.3C1444.32 1345.25 1445.05 1348.67 1446.51 1351.55C1448 1354.43 1450.1 1356.64 1452.8 1358.2C1455.51 1359.76 1458.71 1360.55 1462.42 1360.55C1464.89 1360.55 1467.14 1360.2 1469.19 1359.5C1471.23 1358.81 1472.98 1357.77 1474.44 1356.38C1475.89 1355 1477 1353.3 1477.77 1351.29L1498.26 1352.64C1497.22 1357.56 1495.09 1361.86 1491.86 1365.54C1488.67 1369.18 1484.55 1372.02 1479.48 1374.07C1474.46 1376.08 1468.65 1377.08 1462.06 1377.08Z" fill="#146199"/>
</g>
<defs>
<clipPath id="clip0_3_50">
<rect width="4032" height="2268" fill="white"/>
</clipPath>
</defs>
</svg>
