<svg width="157" height="48" viewBox="0 0 157 48" fill="none" xmlns="http://www.w3.org/2000/svg">
<rect x="0.5" y="0.5" width="156" height="47" rx="23.5" fill="#3D5A80"/>
<rect x="0.5" y="0.5" width="156" height="47" rx="23.5" stroke="white"/>
<path d="M43.7273 31H39.2912V17.9091H43.8168C45.1165 17.9091 46.233 18.1712 47.1662 18.6953C48.1037 19.2152 48.8239 19.9631 49.3267 20.9389C49.8295 21.9148 50.081 23.0824 50.081 24.4418C50.081 25.8054 49.8274 26.9773 49.3203 27.9574C48.8175 28.9375 48.0909 29.6896 47.1406 30.2138C46.1946 30.7379 45.0568 31 43.7273 31ZM41.6626 28.9482H43.6122C44.5241 28.9482 45.2848 28.782 45.8942 28.4496C46.5036 28.1129 46.9616 27.6122 47.2685 26.9474C47.5753 26.2784 47.7287 25.4432 47.7287 24.4418C47.7287 23.4403 47.5753 22.6094 47.2685 21.9489C46.9616 21.2841 46.5078 20.7876 45.907 20.4595C45.3104 20.1271 44.5689 19.9609 43.6825 19.9609H41.6626V28.9482ZM55.5785 31.1918C54.5941 31.1918 53.744 30.9872 53.0281 30.5781C52.3164 30.1648 51.7688 29.581 51.3853 28.8267C51.0018 28.0682 50.81 27.1754 50.81 26.1484C50.81 25.1385 51.0018 24.2521 51.3853 23.4893C51.7731 22.7223 52.3143 22.1257 53.0089 21.6996C53.7035 21.2692 54.5195 21.054 55.457 21.054C56.0621 21.054 56.6332 21.152 57.1701 21.348C57.7113 21.5398 58.1886 21.8381 58.6019 22.2429C59.0195 22.6477 59.3477 23.1634 59.5863 23.7898C59.8249 24.4119 59.9442 25.1534 59.9442 26.0142V26.7237H51.8967V25.1641H57.7262C57.7219 24.7209 57.6261 24.3267 57.4386 23.9815C57.2511 23.6321 56.989 23.3572 56.6523 23.157C56.32 22.9567 55.9322 22.8565 55.489 22.8565C55.016 22.8565 54.6005 22.9716 54.2425 23.2017C53.8846 23.4276 53.6055 23.7259 53.4052 24.0966C53.2092 24.4631 53.109 24.8658 53.1048 25.3047V26.6662C53.1048 27.2372 53.2092 27.7273 53.418 28.1364C53.6268 28.5412 53.9187 28.8523 54.2937 29.0696C54.6687 29.2827 55.1076 29.3892 55.6104 29.3892C55.9471 29.3892 56.2518 29.3423 56.5245 29.2486C56.7972 29.1506 57.0337 29.0078 57.234 28.8203C57.4343 28.6328 57.5856 28.4006 57.6879 28.1236L59.8484 28.3665C59.712 28.9375 59.4521 29.4361 59.0685 29.8622C58.6893 30.2841 58.2035 30.6122 57.6112 30.8466C57.0188 31.0767 56.3413 31.1918 55.5785 31.1918ZM69.3904 21.1818L65.894 31H63.3372L59.8407 21.1818H62.3081L64.5645 28.4751H64.6667L66.9295 21.1818H69.3904ZM74.0043 31.1918C73.0199 31.1918 72.1697 30.9872 71.4538 30.5781C70.7422 30.1648 70.1946 29.581 69.8111 28.8267C69.4276 28.0682 69.2358 27.1754 69.2358 26.1484C69.2358 25.1385 69.4276 24.2521 69.8111 23.4893C70.1989 22.7223 70.7401 22.1257 71.4347 21.6996C72.1293 21.2692 72.9453 21.054 73.8828 21.054C74.4879 21.054 75.0589 21.152 75.5959 21.348C76.1371 21.5398 76.6143 21.8381 77.0277 22.2429C77.4453 22.6477 77.7734 23.1634 78.0121 23.7898C78.2507 24.4119 78.37 25.1534 78.37 26.0142V26.7237H70.3224V25.1641H76.152C76.1477 24.7209 76.0518 24.3267 75.8643 23.9815C75.6768 23.6321 75.4148 23.3572 75.0781 23.157C74.7457 22.9567 74.358 22.8565 73.9148 22.8565C73.4418 22.8565 73.0263 22.9716 72.6683 23.2017C72.3104 23.4276 72.0313 23.7259 71.831 24.0966C71.6349 24.4631 71.5348 24.8658 71.5305 25.3047V26.6662C71.5305 27.2372 71.6349 27.7273 71.8438 28.1364C72.0526 28.5412 72.3445 28.8523 72.7195 29.0696C73.0945 29.2827 73.5334 29.3892 74.0362 29.3892C74.3729 29.3892 74.6776 29.3423 74.9503 29.2486C75.223 29.1506 75.4595 29.0078 75.6598 28.8203C75.8601 28.6328 76.0114 28.4006 76.1136 28.1236L78.2741 28.3665C78.1378 28.9375 77.8778 29.4361 77.4943 29.8622C77.1151 30.2841 76.6293 30.6122 76.0369 30.8466C75.4446 31.0767 74.767 31.1918 74.0043 31.1918ZM81.6415 17.9091V31H79.3276V17.9091H81.6415ZM87.3036 31.1918C86.3448 31.1918 85.5138 30.9808 84.8107 30.5589C84.1076 30.1371 83.5621 29.5469 83.1744 28.7884C82.7908 28.0298 82.5991 27.1435 82.5991 26.1293C82.5991 25.1151 82.7908 24.2266 83.1744 23.4638C83.5621 22.701 84.1076 22.1087 84.8107 21.6868C85.5138 21.2649 86.3448 21.054 87.3036 21.054C88.2624 21.054 89.0934 21.2649 89.7965 21.6868C90.4996 22.1087 91.043 22.701 91.4265 23.4638C91.8143 24.2266 92.0082 25.1151 92.0082 26.1293C92.0082 27.1435 91.8143 28.0298 91.4265 28.7884C91.043 29.5469 90.4996 30.1371 89.7965 30.5589C89.0934 30.9808 88.2624 31.1918 87.3036 31.1918ZM87.3164 29.3381C87.8363 29.3381 88.271 29.1953 88.6204 28.9098C88.9698 28.62 89.2298 28.2322 89.4002 27.7464C89.5749 27.2607 89.6623 26.7195 89.6623 26.1229C89.6623 25.522 89.5749 24.9787 89.4002 24.4929C89.2298 24.0028 88.9698 23.6129 88.6204 23.3232C88.271 23.0334 87.8363 22.8885 87.3164 22.8885C86.7837 22.8885 86.3406 23.0334 85.9869 23.3232C85.6374 23.6129 85.3754 24.0028 85.2006 24.4929C85.0302 24.9787 84.945 25.522 84.945 26.1229C84.945 26.7195 85.0302 27.2607 85.2006 27.7464C85.3754 28.2322 85.6374 28.62 85.9869 28.9098C86.3406 29.1953 86.7837 29.3381 87.3164 29.3381ZM92.9721 34.6818V21.1818H95.2477V22.8054H95.3819C95.5012 22.5668 95.6696 22.3132 95.8869 22.0447C96.1042 21.772 96.3983 21.5398 96.769 21.348C97.1397 21.152 97.6127 21.054 98.188 21.054C98.9466 21.054 99.6305 21.2479 100.24 21.6357C100.854 22.0192 101.339 22.5881 101.697 23.3423C102.059 24.0923 102.241 25.0128 102.241 26.1037C102.241 27.1818 102.064 28.098 101.71 28.8523C101.356 29.6065 100.875 30.1818 100.265 30.5781C99.6561 30.9744 98.9657 31.1726 98.1944 31.1726C97.6319 31.1726 97.1653 31.0788 96.7946 30.8913C96.4238 30.7038 96.1255 30.478 95.8997 30.2138C95.6781 29.9453 95.5055 29.6918 95.3819 29.4531H95.286V34.6818H92.9721ZM95.2413 26.0909C95.2413 26.7259 95.3308 27.282 95.5098 27.7592C95.693 28.2365 95.9551 28.6094 96.296 28.8778C96.6412 29.142 97.0588 29.2741 97.5488 29.2741C98.0602 29.2741 98.4885 29.1378 98.8336 28.8651C99.1788 28.5881 99.4387 28.2109 99.6135 27.7337C99.7924 27.2521 99.8819 26.7045 99.8819 26.0909C99.8819 25.4815 99.7946 24.9403 99.6199 24.4673C99.4451 23.9943 99.1852 23.6236 98.84 23.3551C98.4949 23.0866 98.0645 22.9524 97.5488 22.9524C97.0545 22.9524 96.6348 23.0824 96.2896 23.3423C95.9444 23.6023 95.6824 23.9666 95.5034 24.4354C95.3287 24.9041 95.2413 25.456 95.2413 26.0909ZM107.569 31.1918C106.584 31.1918 105.734 30.9872 105.018 30.5781C104.307 30.1648 103.759 29.581 103.376 28.8267C102.992 28.0682 102.8 27.1754 102.8 26.1484C102.8 25.1385 102.992 24.2521 103.376 23.4893C103.763 22.7223 104.305 22.1257 104.999 21.6996C105.694 21.2692 106.51 21.054 107.447 21.054C108.052 21.054 108.623 21.152 109.16 21.348C109.702 21.5398 110.179 21.8381 110.592 22.2429C111.01 22.6477 111.338 23.1634 111.577 23.7898C111.815 24.4119 111.934 25.1534 111.934 26.0142V26.7237H103.887V25.1641H109.716C109.712 24.7209 109.616 24.3267 109.429 23.9815C109.241 23.6321 108.979 23.3572 108.643 23.157C108.31 22.9567 107.922 22.8565 107.479 22.8565C107.006 22.8565 106.591 22.9716 106.233 23.2017C105.875 23.4276 105.596 23.7259 105.395 24.0966C105.199 24.4631 105.099 24.8658 105.095 25.3047V26.6662C105.095 27.2372 105.199 27.7273 105.408 28.1364C105.617 28.5412 105.909 28.8523 106.284 29.0696C106.659 29.2827 107.098 29.3892 107.601 29.3892C107.937 29.3892 108.242 29.3423 108.515 29.2486C108.787 29.1506 109.024 29.0078 109.224 28.8203C109.425 28.6328 109.576 28.4006 109.678 28.1236L111.839 28.3665C111.702 28.9375 111.442 29.4361 111.059 29.8622C110.68 30.2841 110.194 30.6122 109.601 30.8466C109.009 31.0767 108.331 31.1918 107.569 31.1918ZM112.892 31V21.1818H115.136V22.8182H115.238C115.417 22.2514 115.724 21.8146 116.158 21.5078C116.597 21.1967 117.098 21.0412 117.661 21.0412C117.788 21.0412 117.931 21.0476 118.089 21.0604C118.251 21.0689 118.385 21.0838 118.491 21.1051V23.2337C118.393 23.1996 118.238 23.1697 118.025 23.1442C117.816 23.1143 117.614 23.0994 117.418 23.0994C116.996 23.0994 116.616 23.1911 116.28 23.3743C115.947 23.5533 115.685 23.8026 115.494 24.1222C115.302 24.4418 115.206 24.8104 115.206 25.228V31H112.892Z" fill="#FBFBFB"/>
</svg>
