<svg width="148" height="48" viewBox="0 0 148 48" fill="none" xmlns="http://www.w3.org/2000/svg">
<rect x="0.5" y="0.5" width="147" height="47" rx="23.5" fill="#2E2E2E"/>
<rect x="0.5" y="0.5" width="147" height="47" rx="23.5" stroke="white"/>
<path d="M43.7273 31H39.2912V17.9091H43.8168C45.1165 17.9091 46.233 18.1712 47.1662 18.6953C48.1037 19.2152 48.8239 19.9631 49.3267 20.9389C49.8295 21.9148 50.081 23.0824 50.081 24.4418C50.081 25.8054 49.8274 26.9773 49.3203 27.9574C48.8175 28.9375 48.0909 29.6896 47.1406 30.2138C46.1946 30.7379 45.0568 31 43.7273 31ZM41.6626 28.9482H43.6122C44.5241 28.9482 45.2848 28.782 45.8942 28.4496C46.5036 28.1129 46.9616 27.6122 47.2685 26.9474C47.5753 26.2784 47.7287 25.4432 47.7287 24.4418C47.7287 23.4403 47.5753 22.6094 47.2685 21.9489C46.9616 21.2841 46.5078 20.7876 45.907 20.4595C45.3104 20.1271 44.5689 19.9609 43.6825 19.9609H41.6626V28.9482ZM55.5785 31.1918C54.5941 31.1918 53.744 30.9872 53.0281 30.5781C52.3164 30.1648 51.7688 29.581 51.3853 28.8267C51.0018 28.0682 50.81 27.1754 50.81 26.1484C50.81 25.1385 51.0018 24.2521 51.3853 23.4893C51.7731 22.7223 52.3143 22.1257 53.0089 21.6996C53.7035 21.2692 54.5195 21.054 55.457 21.054C56.0621 21.054 56.6332 21.152 57.1701 21.348C57.7113 21.5398 58.1886 21.8381 58.6019 22.2429C59.0195 22.6477 59.3477 23.1634 59.5863 23.7898C59.8249 24.4119 59.9442 25.1534 59.9442 26.0142V26.7237H51.8967V25.1641H57.7262C57.7219 24.7209 57.6261 24.3267 57.4386 23.9815C57.2511 23.6321 56.989 23.3572 56.6523 23.157C56.32 22.9567 55.9322 22.8565 55.489 22.8565C55.016 22.8565 54.6005 22.9716 54.2425 23.2017C53.8846 23.4276 53.6055 23.7259 53.4052 24.0966C53.2092 24.4631 53.109 24.8658 53.1048 25.3047V26.6662C53.1048 27.2372 53.2092 27.7273 53.418 28.1364C53.6268 28.5412 53.9187 28.8523 54.2937 29.0696C54.6687 29.2827 55.1076 29.3892 55.6104 29.3892C55.9471 29.3892 56.2518 29.3423 56.5245 29.2486C56.7972 29.1506 57.0337 29.0078 57.234 28.8203C57.4343 28.6328 57.5856 28.4006 57.6879 28.1236L59.8484 28.3665C59.712 28.9375 59.4521 29.4361 59.0685 29.8622C58.6893 30.2841 58.2035 30.6122 57.6112 30.8466C57.0188 31.0767 56.3413 31.1918 55.5785 31.1918ZM68.6618 23.777L66.5524 24.0071C66.4927 23.794 66.3883 23.5938 66.2392 23.4062C66.0943 23.2188 65.8983 23.0675 65.6511 22.9524C65.4039 22.8374 65.1014 22.7798 64.7434 22.7798C64.2619 22.7798 63.8571 22.8842 63.5289 23.093C63.2051 23.3018 63.0453 23.5724 63.0495 23.9048C63.0453 24.1903 63.1497 24.4226 63.3627 24.6016C63.5801 24.7805 63.938 24.9276 64.4366 25.0426L66.1113 25.4006C67.0403 25.6009 67.7306 25.9183 68.1824 26.353C68.6383 26.7876 68.8684 27.3565 68.8727 28.0597C68.8684 28.6776 68.6873 29.223 68.3294 29.696C67.9757 30.1648 67.4835 30.5312 66.8528 30.7955C66.2221 31.0597 65.4977 31.1918 64.6795 31.1918C63.4778 31.1918 62.5105 30.9403 61.7775 30.4375C61.0446 29.9304 60.6078 29.2251 60.4672 28.3217L62.7235 28.1044C62.8258 28.5476 63.0431 28.8821 63.3755 29.108C63.7079 29.3338 64.1404 29.4467 64.6731 29.4467C65.2228 29.4467 65.6639 29.3338 65.9963 29.108C66.3329 28.8821 66.5012 28.603 66.5012 28.2706C66.5012 27.9893 66.3926 27.7571 66.1752 27.5739C65.9622 27.3906 65.6298 27.25 65.1781 27.152L63.5034 26.8004C62.5616 26.6044 61.8649 26.2741 61.4132 25.8097C60.9615 25.3409 60.7377 24.7486 60.742 24.0327C60.7377 23.4276 60.9018 22.9034 61.2342 22.4602C61.5708 22.0128 62.0375 21.6676 62.6341 21.4247C63.2349 21.1776 63.9274 21.054 64.7115 21.054C65.862 21.054 66.7676 21.299 67.4281 21.7891C68.0929 22.2791 68.5041 22.9418 68.6618 23.777ZM69.7807 31V21.1818H72.0946V31H69.7807ZM70.9441 19.7884C70.5776 19.7884 70.2623 19.6669 69.998 19.424C69.7338 19.1768 69.6017 18.8807 69.6017 18.5355C69.6017 18.1861 69.7338 17.8899 69.998 17.647C70.2623 17.3999 70.5776 17.2763 70.9441 17.2763C71.3148 17.2763 71.6301 17.3999 71.8901 17.647C72.1543 17.8899 72.2864 18.1861 72.2864 18.5355C72.2864 18.8807 72.1543 19.1768 71.8901 19.424C71.6301 19.6669 71.3148 19.7884 70.9441 19.7884ZM77.744 34.8864C76.913 34.8864 76.1992 34.7734 75.6026 34.5476C75.006 34.326 74.5266 34.0277 74.1644 33.6527C73.8022 33.2777 73.5508 32.8622 73.4102 32.4062L75.494 31.9013C75.5877 32.093 75.7241 32.2827 75.9031 32.4702C76.082 32.6619 76.3228 32.8196 76.6254 32.9432C76.9322 33.071 77.3178 33.1349 77.7823 33.1349C78.4386 33.1349 78.9819 32.9751 79.4123 32.6555C79.8427 32.3402 80.0579 31.8203 80.0579 31.0959V29.2358H79.9428C79.8235 29.4744 79.6488 29.7195 79.4187 29.9709C79.1928 30.2223 78.8924 30.4332 78.5174 30.6037C78.1467 30.7741 77.68 30.8594 77.1175 30.8594C76.3633 30.8594 75.6793 30.6825 75.0657 30.3288C74.4563 29.9709 73.9705 29.4382 73.6083 28.7308C73.2504 28.0192 73.0714 27.1286 73.0714 26.0589C73.0714 24.9808 73.2504 24.071 73.6083 23.3295C73.9705 22.5838 74.4585 22.0192 75.0721 21.6357C75.6857 21.2479 76.3697 21.054 77.1239 21.054C77.6992 21.054 78.1722 21.152 78.543 21.348C78.918 21.5398 79.2163 21.772 79.4379 22.0447C79.6594 22.3132 79.8278 22.5668 79.9428 22.8054H80.0707V21.1818H82.3526V31.1598C82.3526 31.9993 82.1523 32.6939 81.7518 33.2436C81.3512 33.7933 80.8036 34.2045 80.109 34.4773C79.4144 34.75 78.6261 34.8864 77.744 34.8864ZM77.7631 29.044C78.2532 29.044 78.6708 28.9247 79.016 28.6861C79.3612 28.4474 79.6232 28.1044 79.8022 27.657C79.9812 27.2095 80.0707 26.6726 80.0707 26.0462C80.0707 25.4283 79.9812 24.8871 79.8022 24.4226C79.6275 23.9581 79.3675 23.598 79.0224 23.3423C78.6815 23.0824 78.2617 22.9524 77.7631 22.9524C77.2475 22.9524 76.8171 23.0866 76.4719 23.3551C76.1268 23.6236 75.8668 23.9922 75.6921 24.4609C75.5174 24.9254 75.43 25.4538 75.43 26.0462C75.43 26.647 75.5174 27.1733 75.6921 27.625C75.8711 28.0724 76.1332 28.4219 76.4783 28.6733C76.8278 28.9205 77.256 29.044 77.7631 29.044ZM86.038 25.2472V31H83.7241V21.1818H85.9357V22.8501H86.0508C86.2766 22.3004 86.6367 21.8636 87.131 21.5398C87.6296 21.2159 88.2454 21.054 88.9783 21.054C89.6559 21.054 90.2461 21.1989 90.7489 21.4886C91.256 21.7784 91.6481 22.1982 91.9251 22.7479C92.2063 23.2976 92.3448 23.9645 92.3406 24.7486V31H90.0266V25.1065C90.0266 24.4503 89.8562 23.9368 89.5153 23.5661C89.1786 23.1953 88.712 23.0099 88.1154 23.0099C87.7106 23.0099 87.3505 23.0994 87.0352 23.2784C86.7241 23.4531 86.479 23.7067 86.3001 24.0391C86.1254 24.3714 86.038 24.7741 86.038 25.2472ZM98.0394 31.1918C97.055 31.1918 96.2049 30.9872 95.489 30.5781C94.7773 30.1648 94.2298 29.581 93.8462 28.8267C93.4627 28.0682 93.271 27.1754 93.271 26.1484C93.271 25.1385 93.4627 24.2521 93.8462 23.4893C94.234 22.7223 94.7752 22.1257 95.4698 21.6996C96.1644 21.2692 96.9805 21.054 97.918 21.054C98.5231 21.054 99.0941 21.152 99.631 21.348C100.172 21.5398 100.65 21.8381 101.063 22.2429C101.48 22.6477 101.809 23.1634 102.047 23.7898C102.286 24.4119 102.405 25.1534 102.405 26.0142V26.7237H94.3576V25.1641H100.187C100.183 24.7209 100.087 24.3267 99.8995 23.9815C99.712 23.6321 99.4499 23.3572 99.1133 23.157C98.7809 22.9567 98.3931 22.8565 97.9499 22.8565C97.4769 22.8565 97.0614 22.9716 96.7035 23.2017C96.3455 23.4276 96.0664 23.7259 95.8661 24.0966C95.6701 24.4631 95.57 24.8658 95.5657 25.3047V26.6662C95.5657 27.2372 95.6701 27.7273 95.8789 28.1364C96.0877 28.5412 96.3796 28.8523 96.7546 29.0696C97.1296 29.2827 97.5685 29.3892 98.0714 29.3892C98.408 29.3892 98.7127 29.3423 98.9854 29.2486C99.2582 29.1506 99.4947 29.0078 99.695 28.8203C99.8952 28.6328 100.047 28.4006 100.149 28.1236L102.309 28.3665C102.173 28.9375 101.913 29.4361 101.529 29.8622C101.15 30.2841 100.664 30.6122 100.072 30.8466C99.4798 31.0767 98.8022 31.1918 98.0394 31.1918ZM103.363 31V21.1818H105.606V22.8182H105.709C105.888 22.2514 106.194 21.8146 106.629 21.5078C107.068 21.1967 107.569 21.0412 108.131 21.0412C108.259 21.0412 108.402 21.0476 108.559 21.0604C108.721 21.0689 108.856 21.0838 108.962 21.1051V23.2337C108.864 23.1996 108.709 23.1697 108.496 23.1442C108.287 23.1143 108.084 23.0994 107.888 23.0994C107.466 23.0994 107.087 23.1911 106.751 23.3743C106.418 23.5533 106.156 23.8026 105.964 24.1222C105.773 24.4418 105.677 24.8104 105.677 25.228V31H103.363Z" fill="#FBFBFB"/>
</svg>
