<svg width="800" height="800" viewBox="0 0 800 800" fill="none" xmlns="http://www.w3.org/2000/svg">
<path d="M800 196.25V357.25L400 518.25L0 357.25V196.25C0 185.575 4.21427 175.337 11.7157 167.789C19.2172 160.241 29.3913 156 40 156H760C770.609 156 780.783 160.241 788.284 167.789C795.786 175.337 800 185.575 800 196.25ZM0 443.949V759.75C0 770.425 4.21427 780.663 11.7157 788.211C19.2172 795.759 29.3913 800 40 800H760C770.609 800 780.783 795.759 788.284 788.211C795.786 780.663 800 770.425 800 759.75V443.949L400 604.949L0 443.949Z" fill="#EE6C4D"/>
</svg>
