<svg width="121" height="48" viewBox="0 0 121 48" fill="none" xmlns="http://www.w3.org/2000/svg">
<rect x="0.5" y="0.5" width="120" height="47" rx="23.5" fill="#EE6C4D"/>
<rect x="0.5" y="0.5" width="120" height="47" rx="23.5" stroke="white"/>
<path d="M26.2912 31V17.9091H34.8054V19.897H28.6626V23.451H34.3643V25.4389H28.6626V29.0121H34.8565V31H26.2912ZM38.4364 25.2472V31H36.1225V21.1818H38.3342V22.8501H38.4492C38.6751 22.3004 39.0352 21.8636 39.5295 21.5398C40.0281 21.2159 40.6438 21.054 41.3768 21.054C42.0543 21.054 42.6445 21.1989 43.1474 21.4886C43.6545 21.7784 44.0465 22.1982 44.3235 22.7479C44.6048 23.2976 44.7433 23.9645 44.739 24.7486V31H42.4251V25.1065C42.4251 24.4503 42.2546 23.9368 41.9137 23.5661C41.5771 23.1953 41.1104 23.0099 40.5138 23.0099C40.109 23.0099 39.7489 23.0994 39.4336 23.2784C39.1225 23.4531 38.8775 23.7067 38.6985 24.0391C38.5238 24.3714 38.4364 24.7741 38.4364 25.2472ZM50.3612 34.8864C49.5302 34.8864 48.8164 34.7734 48.2198 34.5476C47.6232 34.326 47.1438 34.0277 46.7816 33.6527C46.4194 33.2777 46.168 32.8622 46.0273 32.4062L48.1112 31.9013C48.2049 32.093 48.3413 32.2827 48.5202 32.4702C48.6992 32.6619 48.94 32.8196 49.2425 32.9432C49.5494 33.071 49.935 33.1349 50.3995 33.1349C51.0558 33.1349 51.5991 32.9751 52.0295 32.6555C52.4599 32.3402 52.6751 31.8203 52.6751 31.0959V29.2358H52.56C52.4407 29.4744 52.266 29.7195 52.0359 29.9709C51.81 30.2223 51.5096 30.4332 51.1346 30.6037C50.7638 30.7741 50.2972 30.8594 49.7347 30.8594C48.9805 30.8594 48.2965 30.6825 47.6829 30.3288C47.0735 29.9709 46.5877 29.4382 46.2255 28.7308C45.8675 28.0192 45.6886 27.1286 45.6886 26.0589C45.6886 24.9808 45.8675 24.071 46.2255 23.3295C46.5877 22.5838 47.0756 22.0192 47.6893 21.6357C48.3029 21.2479 48.9869 21.054 49.7411 21.054C50.3164 21.054 50.7894 21.152 51.1602 21.348C51.5352 21.5398 51.8335 21.772 52.055 22.0447C52.2766 22.3132 52.445 22.5668 52.56 22.8054H52.6879V21.1818H54.9698V31.1598C54.9698 31.9993 54.7695 32.6939 54.369 33.2436C53.9684 33.7933 53.4208 34.2045 52.7262 34.4773C52.0316 34.75 51.2433 34.8864 50.3612 34.8864ZM50.3803 29.044C50.8704 29.044 51.288 28.9247 51.6332 28.6861C51.9783 28.4474 52.2404 28.1044 52.4194 27.657C52.5984 27.2095 52.6879 26.6726 52.6879 26.0462C52.6879 25.4283 52.5984 24.8871 52.4194 24.4226C52.2447 23.9581 51.9847 23.598 51.6396 23.3423C51.2987 23.0824 50.8789 22.9524 50.3803 22.9524C49.8647 22.9524 49.4343 23.0866 49.0891 23.3551C48.744 23.6236 48.484 23.9922 48.3093 24.4609C48.1346 24.9254 48.0472 25.4538 48.0472 26.0462C48.0472 26.647 48.1346 27.1733 48.3093 27.625C48.4883 28.0724 48.7504 28.4219 49.0955 28.6733C49.445 28.9205 49.8732 29.044 50.3803 29.044ZM56.3413 31V21.1818H58.6552V31H56.3413ZM57.5046 19.7884C57.1381 19.7884 56.8228 19.6669 56.5586 19.424C56.2944 19.1768 56.1623 18.8807 56.1623 18.5355C56.1623 18.1861 56.2944 17.8899 56.5586 17.647C56.8228 17.3999 57.1381 17.2763 57.5046 17.2763C57.8754 17.2763 58.1907 17.3999 58.4506 17.647C58.7148 17.8899 58.8469 18.1861 58.8469 18.5355C58.8469 18.8807 58.7148 19.1768 58.4506 19.424C58.1907 19.6669 57.8754 19.7884 57.5046 19.7884ZM62.3485 25.2472V31H60.0346V21.1818H62.2463V22.8501H62.3613C62.5872 22.3004 62.9473 21.8636 63.4416 21.5398C63.9402 21.2159 64.5559 21.054 65.2889 21.054C65.9664 21.054 66.5566 21.1989 67.0595 21.4886C67.5666 21.7784 67.9586 22.1982 68.2356 22.7479C68.5169 23.2976 68.6554 23.9645 68.6511 24.7486V31H66.3372V25.1065C66.3372 24.4503 66.1667 23.9368 65.8258 23.5661C65.4892 23.1953 65.0225 23.0099 64.426 23.0099C64.0211 23.0099 63.661 23.0994 63.3457 23.2784C63.0346 23.4531 62.7896 23.7067 62.6106 24.0391C62.4359 24.3714 62.3485 24.7741 62.3485 25.2472ZM74.35 31.1918C73.3656 31.1918 72.5154 30.9872 71.7995 30.5781C71.0879 30.1648 70.5403 29.581 70.1568 28.8267C69.7733 28.0682 69.5815 27.1754 69.5815 26.1484C69.5815 25.1385 69.7733 24.2521 70.1568 23.4893C70.5446 22.7223 71.0858 22.1257 71.7804 21.6996C72.475 21.2692 73.291 21.054 74.2285 21.054C74.8336 21.054 75.4047 21.152 75.9416 21.348C76.4828 21.5398 76.9601 21.8381 77.3734 22.2429C77.791 22.6477 78.1191 23.1634 78.3578 23.7898C78.5964 24.4119 78.7157 25.1534 78.7157 26.0142V26.7237H70.6681V25.1641H76.4977C76.4934 24.7209 76.3976 24.3267 76.2101 23.9815C76.0226 23.6321 75.7605 23.3572 75.4238 23.157C75.0914 22.9567 74.7037 22.8565 74.2605 22.8565C73.7875 22.8565 73.372 22.9716 73.014 23.2017C72.6561 23.4276 72.377 23.7259 72.1767 24.0966C71.9806 24.4631 71.8805 24.8658 71.8762 25.3047V26.6662C71.8762 27.2372 71.9806 27.7273 72.1895 28.1364C72.3983 28.5412 72.6902 28.8523 73.0652 29.0696C73.4402 29.2827 73.8791 29.3892 74.3819 29.3892C74.7186 29.3892 75.0233 29.3423 75.296 29.2486C75.5687 29.1506 75.8052 29.0078 76.0055 28.8203C76.2058 28.6328 76.3571 28.4006 76.4593 28.1236L78.6199 28.3665C78.4835 28.9375 78.2235 29.4361 77.84 29.8622C77.4608 30.2841 76.975 30.6122 76.3826 30.8466C75.7903 31.0767 75.1127 31.1918 74.35 31.1918ZM84.0199 31.1918C83.0355 31.1918 82.1854 30.9872 81.4695 30.5781C80.7578 30.1648 80.2102 29.581 79.8267 28.8267C79.4432 28.0682 79.2514 27.1754 79.2514 26.1484C79.2514 25.1385 79.4432 24.2521 79.8267 23.4893C80.2145 22.7223 80.7557 22.1257 81.4503 21.6996C82.1449 21.2692 82.9609 21.054 83.8984 21.054C84.5036 21.054 85.0746 21.152 85.6115 21.348C86.1527 21.5398 86.63 21.8381 87.0433 22.2429C87.4609 22.6477 87.7891 23.1634 88.0277 23.7898C88.2663 24.4119 88.3857 25.1534 88.3857 26.0142V26.7237H80.3381V25.1641H86.1676C86.1634 24.7209 86.0675 24.3267 85.88 23.9815C85.6925 23.6321 85.4304 23.3572 85.0938 23.157C84.7614 22.9567 84.3736 22.8565 83.9304 22.8565C83.4574 22.8565 83.0419 22.9716 82.6839 23.2017C82.326 23.4276 82.0469 23.7259 81.8466 24.0966C81.6506 24.4631 81.5504 24.8658 81.5462 25.3047V26.6662C81.5462 27.2372 81.6506 27.7273 81.8594 28.1364C82.0682 28.5412 82.3601 28.8523 82.7351 29.0696C83.1101 29.2827 83.549 29.3892 84.0518 29.3892C84.3885 29.3892 84.6932 29.3423 84.9659 29.2486C85.2386 29.1506 85.4751 29.0078 85.6754 28.8203C85.8757 28.6328 86.027 28.4006 86.1293 28.1236L88.2898 28.3665C88.1534 28.9375 87.8935 29.4361 87.5099 29.8622C87.1307 30.2841 86.6449 30.6122 86.0526 30.8466C85.4602 31.0767 84.7827 31.1918 84.0199 31.1918ZM89.3432 31V21.1818H91.5868V22.8182H91.6891C91.8681 22.2514 92.1749 21.8146 92.6096 21.5078C93.0485 21.1967 93.5492 21.0412 94.1117 21.0412C94.2395 21.0412 94.3823 21.0476 94.54 21.0604C94.7019 21.0689 94.8361 21.0838 94.9426 21.1051V23.2337C94.8446 23.1996 94.6891 23.1697 94.476 23.1442C94.2672 23.1143 94.0648 23.0994 93.8688 23.0994C93.4469 23.0994 93.0676 23.1911 92.731 23.3743C92.3986 23.5533 92.1365 23.8026 91.9448 24.1222C91.753 24.4418 91.6571 24.8104 91.6571 25.228V31H89.3432Z" fill="#FBFBFB"/>
</svg>
