<svg width="800" height="800" viewBox="0 0 800 800" fill="none" xmlns="http://www.w3.org/2000/svg">
<g clip-path="url(#clip0_132_618)">
<path d="M221.686 13.2012C246.398 21.6081 276.966 35.0068 306.574 54.9811C342.456 45.7274 380.773 40.7507 420.48 40.7507C460.143 40.7507 498.424 45.7174 534.276 54.9531C563.877 34.9888 594.44 21.5969 619.143 13.1944C646.982 3.72614 686.661 -11.6483 710.217 14.4583C726.212 32.1824 730.179 61.929 733.031 84.6078C736.219 109.95 736.961 142.984 728.577 175.736C760.65 217.167 780 266.625 780 320.474C780 402.081 735.815 472.915 670.418 521.979C640.319 544.561 605.325 562.926 566.949 576.173C575.513 595.766 580.267 617.409 580.267 640.158V760.039C580.267 782.11 562.379 800 540.32 800H300.638C278.577 800 260.692 782.11 260.692 760.039V720.427C222.53 725.102 190.549 720.966 163.324 709.414C134.89 697.346 115.072 678.628 100.176 660.746C86.0473 643.786 70.6435 605.588 48.3253 598.148C27.3956 591.166 16.0843 568.537 23.0606 547.602C30.0373 526.662 52.6599 515.349 73.5895 522.327C100.185 531.194 117.502 550.383 129.393 565.776C148.529 590.547 164.164 622.955 194.526 635.838C207.012 641.137 225.355 644.654 253.991 640.706L260.694 639.367C260.803 616.905 265.543 595.538 274.008 576.173C235.632 562.926 200.636 544.561 170.538 521.979C105.14 472.915 60.9584 402.081 60.9584 320.474C60.9584 266.688 80.2622 217.282 112.267 175.881C103.851 143.103 104.585 110.034 107.771 84.6661C107.835 84.1566 107.899 83.6451 107.963 83.1316C110.874 59.8954 114.305 32.5121 130.586 14.4627C154.138 -11.6455 193.849 3.73173 221.686 13.2012Z" fill="#EE6C4D"/>
</g>
<defs>
<clipPath id="clip0_132_618">
<rect width="800" height="800" fill="white"/>
</clipPath>
</defs>
</svg>
