<?xml version="1.0" ?>
<!-- Uploaded to: SVG Repo, www.svgrepo.com, Generator: SVG Repo Mixer Tools -->
<svg width="800px" height="800px" viewBox="0 0 113.4 113.4" id="Capa_1" version="1.1" xml:space="preserve" xmlns="http://www.w3.org/2000/svg" xmlns:xlink="http://www.w3.org/1999/xlink">
<style type="text/css">
	.st0{fill:#FFFFFF;stroke:#000000;stroke-linecap:round;stroke-linejoin:round;stroke-miterlimit:10;}
	.st1{fill:#B67F6F;stroke:#000000;stroke-linecap:round;stroke-linejoin:round;stroke-miterlimit:10;}
	.st2{fill:#EEBFB2;stroke:#000000;stroke-linecap:round;stroke-linejoin:round;stroke-miterlimit:10;}
	.st3{fill:none;stroke:#000000;stroke-linecap:round;stroke-linejoin:round;stroke-miterlimit:10;}
</style>
<g>
<path class="st1" d="M46.7,88.8h-1.7c-1.1,0-2-0.9-2-2V26.7c0-1.1,0.9-2,2-2h1.7c1.1,0,2,0.9,2,2v60.1   C48.7,87.9,47.8,88.8,46.7,88.8z"/>
<path class="st1" d="M68.3,88.8h-1.7c-1.1,0-2-0.9-2-2V26.7c0-1.1,0.9-2,2-2h1.7c1.1,0,2,0.9,2,2v60.1   C70.4,87.9,69.5,88.8,68.3,88.8z"/>
<rect class="st2" height="2.7" width="20.2" x="46.6" y="32.5"/>
<rect class="st2" height="2.7" width="20.2" x="46.6" y="38.7"/>
<rect class="st2" height="2.7" width="20.2" x="46.6" y="44.8"/>
<rect class="st2" height="2.7" width="20.2" x="46.6" y="51"/>
<rect class="st2" height="2.7" width="20.2" x="46.6" y="57.2"/>
<rect class="st2" height="2.7" width="20.2" x="46.6" y="63.3"/>
<rect class="st2" height="2.7" width="20.2" x="46.6" y="69.5"/>
<rect class="st2" height="2.7" width="20.2" x="46.6" y="75.7"/>
</g>
</svg>