<svg width="384" height="380" viewBox="0 0 384 380" fill="none" xmlns="http://www.w3.org/2000/svg">
<path d="M73.1429 22.8571L77.7144 347.428L187.429 237.714L192 379.428L347.429 224C361.143 210.286 347.429 196.571 333.714 210.286L251.429 292.571L246.857 150.857L169.143 228.571L164.572 22.8571H73.1429Z" fill="#3D5A80"/>
<path d="M36.5714 22.8571C41.1428 20.5714 45.7148 20.5716 45.7148 20.5716H196.572C196.572 20.5716 201.143 20.5716 205.714 18.2856" stroke="#3D5A80" stroke-width="20.5714" stroke-linecap="round" stroke-linejoin="round"/>
<path d="M68.5715 18.2856L73.143 342.857L182.857 233.143L187.429 374.857L342.857 219.428C356.572 205.714 342.857 192 329.143 205.714L246.857 288L242.286 146.286L164.572 224L160 18.2856H68.5715Z" fill="#EE6C4D"/>
<path d="M32 18.2857C36.5714 15.9999 41.1434 16.0002 41.1434 16.0002H192.001C192.001 16.0002 196.571 16.0002 201.143 13.7142" stroke="#EE6C4D" stroke-width="20.5714" stroke-linecap="round" stroke-linejoin="round"/>
</svg>
