<svg width="141" height="48" viewBox="0 0 141 48" fill="none" xmlns="http://www.w3.org/2000/svg">
<rect x="0.5" y="0.5" width="140" height="47" rx="23.5" fill="#98C1D9"/>
<rect x="0.5" y="0.5" width="140" height="47" rx="23.5" stroke="white"/>
<path d="M26.2912 31V17.9091H31.2003C32.206 17.9091 33.0497 18.0838 33.7315 18.4332C34.4176 18.7827 34.9354 19.2727 35.2848 19.9034C35.6385 20.5298 35.8153 21.2607 35.8153 22.0959C35.8153 22.9354 35.6364 23.6641 35.2784 24.282C34.9247 24.8956 34.4027 25.3707 33.7124 25.7074C33.022 26.0398 32.174 26.206 31.1683 26.206H27.6719V24.2372H30.8487C31.4368 24.2372 31.9183 24.1562 32.2933 23.9943C32.6683 23.8281 32.9453 23.5874 33.1243 23.272C33.3075 22.9524 33.3991 22.5604 33.3991 22.0959C33.3991 21.6314 33.3075 21.2351 33.1243 20.907C32.9411 20.5746 32.6619 20.3232 32.2869 20.1527C31.9119 19.978 31.4283 19.8906 30.8359 19.8906H28.6626V31H26.2912ZM33.054 25.0682L36.2947 31H33.6484L30.4652 25.0682H33.054ZM41.1019 31.1918C40.1175 31.1918 39.2674 30.9872 38.5515 30.5781C37.8398 30.1648 37.2923 29.581 36.9087 28.8267C36.5252 28.0682 36.3335 27.1754 36.3335 26.1484C36.3335 25.1385 36.5252 24.2521 36.9087 23.4893C37.2965 22.7223 37.8377 22.1257 38.5323 21.6996C39.2269 21.2692 40.043 21.054 40.9805 21.054C41.5856 21.054 42.1566 21.152 42.6935 21.348C43.2347 21.5398 43.712 21.8381 44.1254 22.2429C44.543 22.6477 44.8711 23.1634 45.1097 23.7898C45.3484 24.4119 45.4677 25.1534 45.4677 26.0142V26.7237H37.4201V25.1641H43.2496C43.2454 24.7209 43.1495 24.3267 42.962 23.9815C42.7745 23.6321 42.5124 23.3572 42.1758 23.157C41.8434 22.9567 41.4556 22.8565 41.0124 22.8565C40.5394 22.8565 40.1239 22.9716 39.766 23.2017C39.408 23.4276 39.1289 23.7259 38.9286 24.0966C38.7326 24.4631 38.6325 24.8658 38.6282 25.3047V26.6662C38.6282 27.2372 38.7326 27.7273 38.9414 28.1364C39.1502 28.5412 39.4421 28.8523 39.8171 29.0696C40.1921 29.2827 40.631 29.3892 41.1339 29.3892C41.4705 29.3892 41.7752 29.3423 42.0479 29.2486C42.3207 29.1506 42.5572 29.0078 42.7575 28.8203C42.9577 28.6328 43.109 28.4006 43.2113 28.1236L45.3718 28.3665C45.2354 28.9375 44.9755 29.4361 44.592 29.8622C44.2127 30.2841 43.7269 30.6122 43.1346 30.8466C42.5423 31.0767 41.8647 31.1918 41.1019 31.1918ZM54.1852 23.777L52.0758 24.0071C52.0162 23.794 51.9118 23.5938 51.7626 23.4062C51.6177 23.2188 51.4217 23.0675 51.1745 22.9524C50.9274 22.8374 50.6248 22.7798 50.2669 22.7798C49.7853 22.7798 49.3805 22.8842 49.0524 23.093C48.7285 23.3018 48.5687 23.5724 48.573 23.9048C48.5687 24.1903 48.6731 24.4226 48.8862 24.6016C49.1035 24.7805 49.4615 24.9276 49.9601 25.0426L51.6348 25.4006C52.5637 25.6009 53.2541 25.9183 53.7058 26.353C54.1618 26.7876 54.3919 27.3565 54.3961 28.0597C54.3919 28.6776 54.2108 29.223 53.8528 29.696C53.4991 30.1648 53.0069 30.5312 52.3762 30.7955C51.7456 31.0597 51.0211 31.1918 50.2029 31.1918C49.0012 31.1918 48.0339 30.9403 47.301 30.4375C46.568 29.9304 46.1312 29.2251 45.9906 28.3217L48.247 28.1044C48.3493 28.5476 48.5666 28.8821 48.899 29.108C49.2314 29.3338 49.6639 29.4467 50.1966 29.4467C50.7463 29.4467 51.1873 29.3338 51.5197 29.108C51.8564 28.8821 52.0247 28.603 52.0247 28.2706C52.0247 27.9893 51.916 27.7571 51.6987 27.5739C51.4856 27.3906 51.1532 27.25 50.7015 27.152L49.0268 26.8004C48.085 26.6044 47.3883 26.2741 46.9366 25.8097C46.4849 25.3409 46.2612 24.7486 46.2654 24.0327C46.2612 23.4276 46.4252 22.9034 46.7576 22.4602C47.0943 22.0128 47.5609 21.6676 48.1575 21.4247C48.7583 21.1776 49.4508 21.054 50.2349 21.054C51.3855 21.054 52.291 21.299 52.9515 21.7891C53.6163 22.2791 54.0275 22.9418 54.1852 23.777ZM59.6507 31.1918C58.6664 31.1918 57.8162 30.9872 57.1003 30.5781C56.3887 30.1648 55.8411 29.581 55.4576 28.8267C55.074 28.0682 54.8823 27.1754 54.8823 26.1484C54.8823 25.1385 55.074 24.2521 55.4576 23.4893C55.8453 22.7223 56.3865 22.1257 57.0811 21.6996C57.7757 21.2692 58.5918 21.054 59.5293 21.054C60.1344 21.054 60.7054 21.152 61.2424 21.348C61.7836 21.5398 62.2608 21.8381 62.6742 22.2429C63.0918 22.6477 63.4199 23.1634 63.6586 23.7898C63.8972 24.4119 64.0165 25.1534 64.0165 26.0142V26.7237H55.9689V25.1641H61.7985C61.7942 24.7209 61.6983 24.3267 61.5108 23.9815C61.3233 23.6321 61.0613 23.3572 60.7246 23.157C60.3922 22.9567 60.0044 22.8565 59.5613 22.8565C59.0882 22.8565 58.6728 22.9716 58.3148 23.2017C57.9569 23.4276 57.6777 23.7259 57.4775 24.0966C57.2814 24.4631 57.1813 24.8658 57.177 25.3047V26.6662C57.177 27.2372 57.2814 27.7273 57.4902 28.1364C57.699 28.5412 57.9909 28.8523 58.3659 29.0696C58.7409 29.2827 59.1799 29.3892 59.6827 29.3892C60.0194 29.3892 60.324 29.3423 60.5968 29.2486C60.8695 29.1506 61.106 29.0078 61.3063 28.8203C61.5066 28.6328 61.6578 28.4006 61.7601 28.1236L63.9206 28.3665C63.7843 28.9375 63.5243 29.4361 63.1408 29.8622C62.7615 30.2841 62.2757 30.6122 61.6834 30.8466C61.0911 31.0767 60.4135 31.1918 59.6507 31.1918ZM67.7994 31.1982C67.1772 31.1982 66.6168 31.0874 66.1183 30.8658C65.6239 30.6399 65.2319 30.3075 64.9421 29.8686C64.6566 29.4297 64.5138 28.8885 64.5138 28.245C64.5138 27.6911 64.6161 27.233 64.8207 26.8707C65.0252 26.5085 65.3043 26.2188 65.658 26.0014C66.0117 25.7841 66.4102 25.62 66.8533 25.5092C67.3008 25.3942 67.7631 25.3111 68.2404 25.2599C68.8157 25.2003 69.2823 25.147 69.6403 25.1001C69.9982 25.049 70.2582 24.9723 70.4201 24.87C70.5863 24.7635 70.6694 24.5994 70.6694 24.3778V24.3395C70.6694 23.858 70.5266 23.4851 70.2411 23.2209C69.9556 22.9567 69.5444 22.8246 69.0075 22.8246C68.4407 22.8246 67.9911 22.9482 67.6587 23.1953C67.3306 23.4425 67.109 23.7344 66.994 24.071L64.8335 23.7642C65.0039 23.1676 65.2852 22.669 65.6772 22.2685C66.0692 21.8636 66.5487 21.5611 67.1154 21.3608C67.6822 21.1562 68.3086 21.054 68.9947 21.054C69.4677 21.054 69.9386 21.1094 70.4073 21.2202C70.8761 21.331 71.3043 21.5142 71.6921 21.7699C72.0799 22.0213 72.391 22.3643 72.6254 22.799C72.864 23.2337 72.9833 23.777 72.9833 24.429V31H70.7589V29.6513H70.6822C70.5415 29.924 70.3434 30.1797 70.0877 30.4183C69.8363 30.6527 69.5188 30.8423 69.1353 30.9872C68.756 31.1278 68.3107 31.1982 67.7994 31.1982ZM68.4002 29.4979C68.8647 29.4979 69.2674 29.4062 69.6083 29.223C69.9492 29.0355 70.2113 28.7884 70.3945 28.4815C70.582 28.1747 70.6758 27.8402 70.6758 27.478V26.321C70.6033 26.3807 70.4798 26.4361 70.305 26.4872C70.1346 26.5384 69.9428 26.5831 69.7298 26.6214C69.5167 26.6598 69.3058 26.6939 69.0969 26.7237C68.8881 26.7536 68.707 26.7791 68.5536 26.8004C68.2085 26.8473 67.8995 26.924 67.6268 27.0305C67.354 27.1371 67.1388 27.2862 66.9812 27.478C66.8235 27.6655 66.7447 27.9084 66.7447 28.2067C66.7447 28.6328 66.9002 28.9545 67.2113 29.1719C67.5224 29.3892 67.9187 29.4979 68.4002 29.4979ZM74.31 31V21.1818H76.5536V22.8182H76.6559C76.8349 22.2514 77.1417 21.8146 77.5763 21.5078C78.0153 21.1967 78.516 21.0412 79.0785 21.0412C79.2063 21.0412 79.3491 21.0476 79.5067 21.0604C79.6687 21.0689 79.8029 21.0838 79.9094 21.1051V23.2337C79.8114 23.1996 79.6559 23.1697 79.4428 23.1442C79.234 23.1143 79.0316 23.0994 78.8356 23.0994C78.4137 23.0994 78.0344 23.1911 77.6978 23.3743C77.3654 23.5533 77.1033 23.8026 76.9116 24.1222C76.7198 24.4418 76.6239 24.8104 76.6239 25.228V31H74.31ZM84.3251 31.1918C83.345 31.1918 82.5034 30.9766 81.8002 30.5462C81.1014 30.1158 80.5623 29.5213 80.1831 28.7628C79.8081 28 79.6206 27.1222 79.6206 26.1293C79.6206 25.1321 79.8123 24.2521 80.1958 23.4893C80.5794 22.7223 81.1206 22.1257 81.8194 21.6996C82.5225 21.2692 83.3535 21.054 84.3123 21.054C85.1092 21.054 85.8145 21.201 86.4281 21.495C87.046 21.7848 87.5382 22.196 87.9047 22.7287C88.2711 23.2571 88.4799 23.875 88.5311 24.5824H86.3194C86.2299 24.1094 86.0169 23.7152 85.6802 23.3999C85.3478 23.0803 84.9025 22.9205 84.3443 22.9205C83.8713 22.9205 83.4558 23.0483 83.0978 23.304C82.7399 23.5554 82.4608 23.9176 82.2605 24.3906C82.0645 24.8636 81.9664 25.4304 81.9664 26.0909C81.9664 26.7599 82.0645 27.3352 82.2605 27.8168C82.4565 28.294 82.7314 28.6626 83.085 28.9226C83.443 29.1783 83.8627 29.3061 84.3443 29.3061C84.6852 29.3061 84.9899 29.2422 85.2583 29.1143C85.5311 28.9822 85.7591 28.7926 85.9423 28.5455C86.1255 28.2983 86.2512 27.9979 86.3194 27.6442H88.5311C88.4757 28.3388 88.2711 28.9545 87.9174 29.4915C87.5637 30.0241 87.0822 30.4418 86.4728 30.7443C85.8635 31.0426 85.1475 31.1918 84.3251 31.1918ZM91.745 25.2472V31H89.4311V17.9091H91.6939V22.8501H91.8089C92.0391 22.2962 92.3949 21.8594 92.8764 21.5398C93.3622 21.2159 93.9801 21.054 94.7301 21.054C95.4119 21.054 96.0064 21.1967 96.5135 21.4822C97.0206 21.7678 97.4126 22.1854 97.6896 22.7351C97.9709 23.2848 98.1115 23.956 98.1115 24.7486V31H95.7976V25.1065C95.7976 24.446 95.6271 23.9325 95.2862 23.5661C94.9496 23.1953 94.4766 23.0099 93.8672 23.0099C93.4581 23.0099 93.0916 23.0994 92.7678 23.2784C92.4482 23.4531 92.1967 23.7067 92.0135 24.0391C91.8345 24.3714 91.745 24.7741 91.745 25.2472ZM103.817 31.1918C102.832 31.1918 101.982 30.9872 101.266 30.5781C100.555 30.1648 100.007 29.581 99.6236 28.8267C99.2401 28.0682 99.0483 27.1754 99.0483 26.1484C99.0483 25.1385 99.2401 24.2521 99.6236 23.4893C100.011 22.7223 100.553 22.1257 101.247 21.6996C101.942 21.2692 102.758 21.054 103.695 21.054C104.3 21.054 104.871 21.152 105.408 21.348C105.95 21.5398 106.427 21.8381 106.84 22.2429C107.258 22.6477 107.586 23.1634 107.825 23.7898C108.063 24.4119 108.183 25.1534 108.183 26.0142V26.7237H100.135V25.1641H105.964C105.96 24.7209 105.864 24.3267 105.677 23.9815C105.489 23.6321 105.227 23.3572 104.891 23.157C104.558 22.9567 104.17 22.8565 103.727 22.8565C103.254 22.8565 102.839 22.9716 102.481 23.2017C102.123 23.4276 101.844 23.7259 101.643 24.0966C101.447 24.4631 101.347 24.8658 101.343 25.3047V26.6662C101.343 27.2372 101.447 27.7273 101.656 28.1364C101.865 28.5412 102.157 28.8523 102.532 29.0696C102.907 29.2827 103.346 29.3892 103.849 29.3892C104.185 29.3892 104.49 29.3423 104.763 29.2486C105.036 29.1506 105.272 29.0078 105.472 28.8203C105.673 28.6328 105.824 28.4006 105.926 28.1236L108.087 28.3665C107.95 28.9375 107.69 29.4361 107.307 29.8622C106.928 30.2841 106.442 30.6122 105.849 30.8466C105.257 31.0767 104.58 31.1918 103.817 31.1918ZM109.14 31V21.1818H111.384V22.8182H111.486C111.665 22.2514 111.972 21.8146 112.406 21.5078C112.845 21.1967 113.346 21.0412 113.909 21.0412C114.036 21.0412 114.179 21.0476 114.337 21.0604C114.499 21.0689 114.633 21.0838 114.74 21.1051V23.2337C114.642 23.1996 114.486 23.1697 114.273 23.1442C114.064 23.1143 113.862 23.0994 113.666 23.0994C113.244 23.0994 112.865 23.1911 112.528 23.3743C112.195 23.5533 111.933 23.8026 111.742 24.1222C111.55 24.4418 111.454 24.8104 111.454 25.228V31H109.14Z" fill="#FBFBFB"/>
</svg>
