<svg width="4032" height="2268" viewBox="0 0 4032 2268" fill="none" xmlns="http://www.w3.org/2000/svg">
<g clip-path="url(#clip0_9_114)">
<g clip-path="url(#clip1_9_114)">
<circle cx="2016.43" cy="2121.43" r="1856.43" stroke="#E5B300" stroke-width="30"/>
<circle cx="2052.89" cy="2095.28" r="1299.13" stroke="#E5B300" stroke-width="30" stroke-linecap="round" stroke-dasharray="47.86 47.86"/>
<path d="M1821.49 443.636C1821.49 451.402 1820.07 458.078 1817.23 463.665C1814.39 469.228 1810.5 473.513 1805.55 476.52C1800.63 479.503 1795.03 480.994 1788.75 480.994C1782.46 480.994 1776.83 479.503 1771.89 476.52C1766.96 473.513 1763.08 469.216 1760.24 463.629C1757.4 458.042 1755.98 451.378 1755.98 443.636C1755.98 435.871 1757.4 429.207 1760.24 423.643C1763.08 418.056 1766.96 413.771 1771.89 410.788C1776.83 407.782 1782.46 406.278 1788.75 406.278C1795.03 406.278 1800.63 407.782 1805.55 410.788C1810.5 413.771 1814.39 418.056 1817.23 423.643C1820.07 429.207 1821.49 435.871 1821.49 443.636ZM1810.63 443.636C1810.63 437.718 1809.67 432.734 1807.75 428.686C1805.86 424.614 1803.25 421.536 1799.94 419.453C1796.65 417.346 1792.92 416.293 1788.75 416.293C1784.56 416.293 1780.82 417.346 1777.53 419.453C1774.24 421.536 1771.64 424.614 1769.72 428.686C1767.83 432.734 1766.88 437.718 1766.88 443.636C1766.88 449.555 1767.83 454.55 1769.72 458.622C1771.64 462.67 1774.24 465.748 1777.53 467.855C1780.82 469.938 1784.56 470.98 1788.75 470.98C1792.92 470.98 1796.65 469.938 1799.94 467.855C1803.25 465.748 1805.86 462.67 1807.75 458.622C1809.67 454.55 1810.63 449.555 1810.63 443.636ZM1833.82 480V425.455H1844.09V434.119H1844.65C1845.65 431.184 1847.4 428.875 1849.91 427.195C1852.44 425.49 1855.31 424.638 1858.5 424.638C1859.17 424.638 1859.95 424.661 1860.85 424.709C1861.77 424.756 1862.49 424.815 1863.01 424.886V435.043C1862.59 434.924 1861.83 434.794 1860.74 434.652C1859.65 434.486 1858.56 434.403 1857.47 434.403C1854.96 434.403 1852.73 434.936 1850.76 436.001C1848.82 437.043 1847.28 438.499 1846.15 440.369C1845.01 442.216 1844.44 444.323 1844.44 446.69V480H1833.82ZM1892.62 501.591C1888.29 501.591 1884.56 501.023 1881.43 499.886C1878.33 498.75 1875.8 497.247 1873.83 495.376C1871.87 493.506 1870.4 491.458 1869.43 489.233L1878.56 485.469C1879.2 486.51 1880.05 487.611 1881.11 488.771C1882.2 489.955 1883.67 490.961 1885.52 491.79C1887.39 492.618 1889.79 493.033 1892.72 493.033C1896.75 493.033 1900.08 492.05 1902.7 490.085C1905.33 488.144 1906.65 485.043 1906.65 480.781V470.057H1905.97C1905.33 471.217 1904.41 472.507 1903.2 473.928C1902.02 475.348 1900.38 476.579 1898.3 477.621C1896.22 478.662 1893.51 479.183 1890.17 479.183C1885.86 479.183 1881.98 478.177 1878.52 476.165C1875.09 474.129 1872.37 471.134 1870.35 467.18C1868.36 463.203 1867.37 458.314 1867.37 452.514C1867.37 446.714 1868.35 441.742 1870.32 437.599C1872.31 433.456 1875.03 430.284 1878.48 428.082C1881.94 425.857 1885.86 424.744 1890.24 424.744C1893.62 424.744 1896.36 425.312 1898.44 426.449C1900.53 427.562 1902.15 428.864 1903.31 430.355C1904.49 431.847 1905.4 433.161 1906.04 434.297H1906.82V425.455H1917.23V481.207C1917.23 485.895 1916.14 489.742 1913.96 492.749C1911.78 495.755 1908.84 497.981 1905.12 499.425C1901.43 500.869 1897.26 501.591 1892.62 501.591ZM1892.51 470.376C1895.57 470.376 1898.15 469.666 1900.25 468.246C1902.38 466.802 1903.99 464.742 1905.08 462.067C1906.2 459.368 1906.75 456.136 1906.75 452.372C1906.75 448.703 1906.21 445.471 1905.12 442.678C1904.03 439.884 1902.43 437.706 1900.32 436.143C1898.22 434.557 1895.61 433.764 1892.51 433.764C1889.32 433.764 1886.65 434.593 1884.52 436.25C1882.39 437.884 1880.78 440.109 1879.69 442.926C1878.63 445.743 1878.09 448.892 1878.09 452.372C1878.09 455.947 1878.64 459.084 1879.73 461.783C1880.82 464.482 1882.43 466.589 1884.56 468.104C1886.71 469.619 1889.36 470.376 1892.51 470.376ZM1946.84 481.207C1943.39 481.207 1940.26 480.568 1937.47 479.29C1934.67 477.988 1932.46 476.106 1930.83 473.643C1929.22 471.181 1928.41 468.163 1928.41 464.588C1928.41 461.51 1929 458.977 1930.19 456.989C1931.37 455 1932.97 453.426 1934.98 452.266C1936.99 451.106 1939.24 450.23 1941.73 449.638C1944.21 449.046 1946.75 448.596 1949.33 448.288C1952.59 447.91 1955.25 447.602 1957.28 447.365C1959.32 447.105 1960.8 446.69 1961.72 446.122C1962.64 445.554 1963.11 444.631 1963.11 443.352V443.104C1963.11 440.002 1962.23 437.599 1960.48 435.895C1958.75 434.19 1956.17 433.338 1952.74 433.338C1949.16 433.338 1946.34 434.131 1944.28 435.717C1942.25 437.28 1940.84 439.02 1940.06 440.938L1930.08 438.665C1931.26 435.35 1932.99 432.675 1935.26 430.639C1937.56 428.58 1940.2 427.088 1943.18 426.165C1946.17 425.218 1949.3 424.744 1952.59 424.744C1954.77 424.744 1957.08 425.005 1959.52 425.526C1961.98 426.023 1964.28 426.946 1966.41 428.295C1968.56 429.645 1970.33 431.574 1971.7 434.084C1973.07 436.57 1973.76 439.801 1973.76 443.778V480H1963.39V472.543H1962.96C1962.28 473.916 1961.25 475.265 1959.87 476.591C1958.5 477.917 1956.74 479.018 1954.58 479.893C1952.43 480.769 1949.85 481.207 1946.84 481.207ZM1949.15 472.685C1952.09 472.685 1954.59 472.105 1956.68 470.945C1958.79 469.785 1960.38 468.269 1961.47 466.399C1962.58 464.505 1963.14 462.481 1963.14 460.327V453.295C1962.76 453.674 1962.03 454.029 1960.94 454.361C1959.87 454.669 1958.65 454.941 1957.28 455.178C1955.91 455.391 1954.57 455.592 1953.27 455.781C1951.97 455.947 1950.88 456.089 1950 456.207C1947.94 456.468 1946.06 456.906 1944.36 457.521C1942.67 458.137 1941.33 459.025 1940.31 460.185C1939.31 461.321 1938.82 462.836 1938.82 464.73C1938.82 467.358 1939.79 469.347 1941.73 470.696C1943.67 472.022 1946.14 472.685 1949.15 472.685ZM1998.02 447.614V480H1987.4V425.455H1997.59V434.332H1998.27C1999.52 431.444 2001.49 429.124 2004.16 427.372C2006.86 425.62 2010.26 424.744 2014.35 424.744C2018.07 424.744 2021.33 425.526 2024.12 427.088C2026.91 428.627 2029.08 430.923 2030.62 433.977C2032.16 437.031 2032.93 440.807 2032.93 445.305V480H2022.31V446.584C2022.31 442.63 2021.28 439.541 2019.22 437.315C2017.16 435.066 2014.33 433.942 2010.73 433.942C2008.27 433.942 2006.08 434.474 2004.16 435.54C2002.27 436.605 2000.77 438.168 1999.65 440.227C1998.56 442.263 1998.02 444.725 1998.02 447.614ZM2046.67 480V425.455H2057.28V480H2046.67ZM2052.03 417.038C2050.18 417.038 2048.6 416.423 2047.27 415.192C2045.97 413.937 2045.32 412.446 2045.32 410.717C2045.32 408.965 2045.97 407.474 2047.27 406.243C2048.6 404.988 2050.18 404.361 2052.03 404.361C2053.88 404.361 2055.45 404.988 2056.75 406.243C2058.08 407.474 2058.74 408.965 2058.74 410.717C2058.74 412.446 2058.08 413.937 2056.75 415.192C2055.45 416.423 2053.88 417.038 2052.03 417.038ZM2069.93 480V472.72L2099.48 435.185V434.688H2070.89V425.455H2112.72V433.196L2084.32 470.27V470.767H2113.72V480H2069.93ZM2141.62 481.207C2138.16 481.207 2135.04 480.568 2132.24 479.29C2129.45 477.988 2127.24 476.106 2125.6 473.643C2123.99 471.181 2123.19 468.163 2123.19 464.588C2123.19 461.51 2123.78 458.977 2124.96 456.989C2126.15 455 2127.75 453.426 2129.76 452.266C2131.77 451.106 2134.02 450.23 2136.51 449.638C2138.99 449.046 2141.52 448.596 2144.1 448.288C2147.37 447.91 2150.02 447.602 2152.06 447.365C2154.1 447.105 2155.57 446.69 2156.5 446.122C2157.42 445.554 2157.88 444.631 2157.88 443.352V443.104C2157.88 440.002 2157.01 437.599 2155.26 435.895C2153.53 434.19 2150.95 433.338 2147.51 433.338C2143.94 433.338 2141.12 434.131 2139.06 435.717C2137.03 437.28 2135.62 439.02 2134.84 440.938L2124.86 438.665C2126.04 435.35 2127.77 432.675 2130.04 430.639C2132.34 428.58 2134.98 427.088 2137.96 426.165C2140.94 425.218 2144.08 424.744 2147.37 424.744C2149.55 424.744 2151.86 425.005 2154.3 425.526C2156.76 426.023 2159.05 426.946 2161.19 428.295C2163.34 429.645 2165.1 431.574 2166.48 434.084C2167.85 436.57 2168.54 439.801 2168.54 443.778V480H2158.17V472.543H2157.74C2157.05 473.916 2156.02 475.265 2154.65 476.591C2153.28 477.917 2151.51 479.018 2149.36 479.893C2147.21 480.769 2144.63 481.207 2141.62 481.207ZM2143.93 472.685C2146.86 472.685 2149.37 472.105 2151.46 470.945C2153.56 469.785 2155.16 468.269 2156.25 466.399C2157.36 464.505 2157.92 462.481 2157.92 460.327V453.295C2157.54 453.674 2156.81 454.029 2155.72 454.361C2154.65 454.669 2153.43 454.941 2152.06 455.178C2150.69 455.391 2149.35 455.592 2148.05 455.781C2146.74 455.947 2145.66 456.089 2144.78 456.207C2142.72 456.468 2140.84 456.906 2139.13 457.521C2137.45 458.137 2136.1 459.025 2135.08 460.185C2134.09 461.321 2133.59 462.836 2133.59 464.73C2133.59 467.358 2134.56 469.347 2136.51 470.696C2138.45 472.022 2140.92 472.685 2143.93 472.685ZM2207.64 425.455V433.977H2177.85V425.455H2207.64ZM2185.84 412.386H2196.45V463.984C2196.45 466.044 2196.76 467.595 2197.38 468.636C2197.99 469.654 2198.79 470.353 2199.76 470.732C2200.75 471.087 2201.83 471.264 2202.99 471.264C2203.84 471.264 2204.59 471.205 2205.23 471.087C2205.86 470.968 2206.36 470.874 2206.72 470.803L2208.63 479.574C2208.02 479.811 2207.14 480.047 2206.01 480.284C2204.87 480.545 2203.45 480.687 2201.75 480.71C2198.95 480.758 2196.35 480.26 2193.93 479.219C2191.52 478.177 2189.57 476.567 2188.07 474.389C2186.58 472.211 2185.84 469.477 2185.84 466.186V412.386ZM2218.89 480V425.455H2229.5V480H2218.89ZM2224.25 417.038C2222.4 417.038 2220.82 416.423 2219.49 415.192C2218.19 413.937 2217.54 412.446 2217.54 410.717C2217.54 408.965 2218.19 407.474 2219.49 406.243C2220.82 404.988 2222.4 404.361 2224.25 404.361C2226.09 404.361 2227.67 404.988 2228.97 406.243C2230.3 407.474 2230.96 408.965 2230.96 410.717C2230.96 412.446 2230.3 413.937 2228.97 415.192C2227.67 416.423 2226.09 417.038 2224.25 417.038ZM2266.26 481.101C2261.15 481.101 2256.69 479.929 2252.88 477.585C2249.06 475.241 2246.11 471.963 2244 467.749C2241.89 463.535 2240.84 458.61 2240.84 452.976C2240.84 447.318 2241.89 442.37 2244 438.132C2246.11 433.894 2249.06 430.604 2252.88 428.26C2256.69 425.916 2261.15 424.744 2266.26 424.744C2271.38 424.744 2275.84 425.916 2279.65 428.26C2283.46 430.604 2286.42 433.894 2288.53 438.132C2290.64 442.37 2291.69 447.318 2291.69 452.976C2291.69 458.61 2290.64 463.535 2288.53 467.749C2286.42 471.963 2283.46 475.241 2279.65 477.585C2275.84 479.929 2271.38 481.101 2266.26 481.101ZM2266.3 472.188C2269.61 472.188 2272.36 471.312 2274.54 469.56C2276.72 467.808 2278.33 465.476 2279.37 462.564C2280.43 459.652 2280.97 456.444 2280.97 452.94C2280.97 449.46 2280.43 446.264 2279.37 443.352C2278.33 440.417 2276.72 438.061 2274.54 436.286C2272.36 434.51 2269.61 433.622 2266.3 433.622C2262.96 433.622 2260.19 434.51 2257.99 436.286C2255.81 438.061 2254.19 440.417 2253.12 443.352C2252.08 446.264 2251.56 449.46 2251.56 452.94C2251.56 456.444 2252.08 459.652 2253.12 462.564C2254.19 465.476 2255.81 467.808 2257.99 469.56C2260.19 471.312 2262.96 472.188 2266.3 472.188ZM2313.66 447.614V480H2303.04V425.455H2313.23V434.332H2313.91C2315.16 431.444 2317.13 429.124 2319.8 427.372C2322.5 425.62 2325.9 424.744 2330 424.744C2333.71 424.744 2336.97 425.526 2339.76 427.088C2342.55 428.627 2344.72 430.923 2346.26 433.977C2347.8 437.031 2348.57 440.807 2348.57 445.305V480H2337.95V446.584C2337.95 442.63 2336.92 439.541 2334.86 437.315C2332.8 435.066 2329.97 433.942 2326.37 433.942C2323.91 433.942 2321.72 434.474 2319.8 435.54C2317.91 436.605 2316.41 438.168 2315.29 440.227C2314.2 442.263 2313.66 444.725 2313.66 447.614Z" fill="#146199"/>
<path d="M1800.6 980H1777.06V907.273H1801.35C1808.47 907.273 1814.59 908.729 1819.71 911.641C1824.82 914.529 1828.74 918.684 1831.46 924.105C1834.21 929.503 1835.58 935.978 1835.58 943.53C1835.58 951.106 1834.2 957.616 1831.43 963.061C1828.68 968.506 1824.7 972.696 1819.49 975.632C1814.29 978.544 1807.99 980 1800.6 980ZM1788.03 970.412H1800C1805.54 970.412 1810.14 969.37 1813.81 967.287C1817.48 965.18 1820.23 962.138 1822.05 958.161C1823.87 954.16 1824.79 949.283 1824.79 943.53C1824.79 937.824 1823.87 932.983 1822.05 929.006C1820.25 925.028 1817.57 922.01 1813.99 919.95C1810.42 917.891 1805.98 916.861 1800.67 916.861H1788.03V970.412ZM1871.38 981.101C1866.01 981.101 1861.38 979.953 1857.5 977.656C1853.64 975.336 1850.66 972.081 1848.55 967.891C1846.47 963.677 1845.42 958.741 1845.42 953.082C1845.42 947.495 1846.47 942.571 1848.55 938.31C1850.66 934.048 1853.59 930.722 1857.36 928.331C1861.14 925.94 1865.57 924.744 1870.64 924.744C1873.71 924.744 1876.7 925.253 1879.59 926.271C1882.47 927.289 1885.07 928.887 1887.36 931.065C1889.66 933.243 1891.47 936.072 1892.8 939.553C1894.12 943.009 1894.78 947.211 1894.78 952.159V955.923H1851.43V947.969H1884.38C1884.38 945.175 1883.81 942.701 1882.68 940.547C1881.54 938.369 1879.94 936.652 1877.88 935.398C1875.85 934.143 1873.45 933.516 1870.71 933.516C1867.72 933.516 1865.12 934.25 1862.9 935.717C1860.69 937.161 1858.99 939.055 1857.78 941.399C1856.6 943.719 1856.01 946.241 1856.01 948.963V955.178C1856.01 958.823 1856.65 961.925 1857.92 964.482C1859.23 967.038 1861.04 968.991 1863.36 970.341C1865.68 971.667 1868.39 972.33 1871.49 972.33C1873.5 972.33 1875.34 972.045 1876.99 971.477C1878.65 970.885 1880.08 970.009 1881.29 968.849C1882.5 967.689 1883.42 966.257 1884.06 964.553L1894.11 966.364C1893.3 969.323 1891.86 971.915 1889.78 974.141C1887.72 976.342 1885.13 978.059 1882 979.29C1878.9 980.497 1875.36 981.101 1871.38 981.101ZM1906.07 1000.45V925.455H1916.43V934.297H1917.32C1917.94 933.161 1918.83 931.847 1919.99 930.355C1921.15 928.864 1922.76 927.562 1924.82 926.449C1926.88 925.312 1929.6 924.744 1932.98 924.744C1937.39 924.744 1941.32 925.857 1944.77 928.082C1948.23 930.308 1950.94 933.516 1952.91 937.706C1954.89 941.896 1955.89 946.939 1955.89 952.834C1955.89 958.729 1954.91 963.783 1952.94 967.997C1950.98 972.187 1948.28 975.419 1944.84 977.692C1941.41 979.941 1937.49 981.065 1933.09 981.065C1929.78 981.065 1927.06 980.509 1924.96 979.396C1922.87 978.284 1921.24 976.982 1920.06 975.49C1918.87 973.999 1917.96 972.673 1917.32 971.513H1916.68V1000.45H1906.07ZM1916.47 952.727C1916.47 956.562 1917.03 959.924 1918.14 962.812C1919.25 965.701 1920.86 967.962 1922.97 969.595C1925.08 971.205 1927.66 972.01 1930.71 972.01C1933.88 972.01 1936.53 971.17 1938.66 969.489C1940.8 967.784 1942.41 965.476 1943.49 962.564C1944.61 959.652 1945.16 956.373 1945.16 952.727C1945.16 949.129 1944.62 945.897 1943.53 943.033C1942.46 940.168 1940.85 937.907 1938.7 936.25C1936.57 934.593 1933.91 933.764 1930.71 933.764C1927.63 933.764 1925.03 934.557 1922.9 936.143C1920.79 937.73 1919.19 939.943 1918.1 942.784C1917.01 945.625 1916.47 948.939 1916.47 952.727ZM1983.16 981.207C1979.7 981.207 1976.58 980.568 1973.78 979.29C1970.99 977.988 1968.78 976.106 1967.14 973.643C1965.53 971.181 1964.73 968.163 1964.73 964.588C1964.73 961.51 1965.32 958.977 1966.5 956.989C1967.69 955 1969.28 953.426 1971.3 952.266C1973.31 951.106 1975.56 950.23 1978.04 949.638C1980.53 949.046 1983.06 948.596 1985.64 948.288C1988.91 947.91 1991.56 947.602 1993.6 947.365C1995.63 947.105 1997.11 946.69 1998.04 946.122C1998.96 945.554 1999.42 944.631 1999.42 943.352V943.104C1999.42 940.002 1998.55 937.599 1996.79 935.895C1995.07 934.19 1992.49 933.338 1989.05 933.338C1985.48 933.338 1982.66 934.131 1980.6 935.717C1978.57 937.28 1977.16 939.02 1976.38 940.938L1966.4 938.665C1967.58 935.35 1969.31 932.675 1971.58 930.639C1973.88 928.58 1976.52 927.088 1979.5 926.165C1982.48 925.218 1985.62 924.744 1988.91 924.744C1991.09 924.744 1993.4 925.005 1995.84 925.526C1998.3 926.023 2000.59 926.946 2002.72 928.295C2004.88 929.645 2006.64 931.574 2008.02 934.084C2009.39 936.57 2010.08 939.801 2010.08 943.778V980H1999.71V972.543H1999.28C1998.59 973.916 1997.56 975.265 1996.19 976.591C1994.82 977.917 1993.05 979.018 1990.9 979.893C1988.74 980.769 1986.16 981.207 1983.16 981.207ZM1985.47 972.685C1988.4 972.685 1990.91 972.105 1992.99 970.945C1995.1 969.785 1996.7 968.269 1997.79 966.399C1998.9 964.505 1999.46 962.481 1999.46 960.327V953.295C1999.08 953.674 1998.34 954.029 1997.26 954.361C1996.19 954.669 1994.97 954.941 1993.6 955.178C1992.23 955.391 1990.89 955.592 1989.59 955.781C1988.28 955.947 1987.19 956.089 1986.32 956.207C1984.26 956.468 1982.38 956.906 1980.67 957.521C1978.99 958.137 1977.64 959.025 1976.62 960.185C1975.63 961.321 1975.13 962.836 1975.13 964.73C1975.13 967.358 1976.1 969.347 1978.04 970.696C1979.99 972.022 1982.46 972.685 1985.47 972.685ZM2023.72 980V925.455H2033.98V934.119H2034.55C2035.54 931.184 2037.3 928.875 2039.8 927.195C2042.34 925.49 2045.2 924.638 2048.4 924.638C2049.06 924.638 2049.84 924.661 2050.74 924.709C2051.67 924.756 2052.39 924.815 2052.91 924.886V935.043C2052.48 934.924 2051.72 934.794 2050.64 934.652C2049.55 934.486 2048.46 934.403 2047.37 934.403C2044.86 934.403 2042.62 934.936 2040.66 936.001C2038.72 937.043 2037.18 938.499 2036.04 940.369C2034.9 942.216 2034.34 944.323 2034.34 946.69V980H2023.72ZM2090.28 925.455V933.977H2060.49V925.455H2090.28ZM2068.48 912.386H2079.09V963.984C2079.09 966.044 2079.4 967.595 2080.02 968.636C2080.63 969.654 2081.43 970.353 2082.4 970.732C2083.39 971.087 2084.47 971.264 2085.63 971.264C2086.48 971.264 2087.23 971.205 2087.87 971.087C2088.51 970.968 2089 970.874 2089.36 970.803L2091.28 979.574C2090.66 979.811 2089.78 980.047 2088.65 980.284C2087.51 980.545 2086.09 980.687 2084.39 980.71C2081.59 980.758 2078.99 980.26 2076.57 979.219C2074.16 978.177 2072.21 976.567 2070.71 974.389C2069.22 972.211 2068.48 969.477 2068.48 966.186V912.386ZM2101.53 980V925.455H2111.72V934.332H2112.39C2113.53 931.326 2115.39 928.982 2117.97 927.301C2120.55 925.597 2123.64 924.744 2127.24 924.744C2130.88 924.744 2133.94 925.597 2136.4 927.301C2138.88 929.006 2140.72 931.349 2141.9 934.332H2142.47C2143.77 931.42 2145.84 929.1 2148.69 927.372C2151.53 925.62 2154.91 924.744 2158.84 924.744C2163.79 924.744 2167.83 926.295 2170.95 929.396C2174.1 932.498 2175.67 937.173 2175.67 943.423V980H2165.06V944.418C2165.06 940.724 2164.05 938.049 2162.04 936.392C2160.03 934.735 2157.62 933.906 2154.83 933.906C2151.37 933.906 2148.69 934.972 2146.77 937.102C2144.85 939.209 2143.89 941.92 2143.89 945.234V980H2133.31V943.743C2133.31 940.784 2132.39 938.404 2130.54 936.605C2128.69 934.806 2126.29 933.906 2123.33 933.906C2121.32 933.906 2119.46 934.439 2117.76 935.504C2116.07 936.546 2114.71 938.002 2113.67 939.872C2112.65 941.742 2112.14 943.909 2112.14 946.371V980H2101.53ZM2212.91 981.101C2207.54 981.101 2202.91 979.953 2199.03 977.656C2195.17 975.336 2192.19 972.081 2190.08 967.891C2188 963.677 2186.96 958.741 2186.96 953.082C2186.96 947.495 2188 942.571 2190.08 938.31C2192.19 934.048 2195.12 930.722 2198.89 928.331C2202.67 925.94 2207.1 924.744 2212.17 924.744C2215.25 924.744 2218.23 925.253 2221.12 926.271C2224.01 927.289 2226.6 928.887 2228.89 931.065C2231.19 933.243 2233 936.072 2234.33 939.553C2235.65 943.009 2236.32 947.211 2236.32 952.159V955.923H2192.96V947.969H2225.91C2225.91 945.175 2225.34 942.701 2224.21 940.547C2223.07 938.369 2221.47 936.652 2219.41 935.398C2217.38 934.143 2214.99 933.516 2212.24 933.516C2209.26 933.516 2206.65 934.25 2204.43 935.717C2202.22 937.161 2200.52 939.055 2199.31 941.399C2198.13 943.719 2197.54 946.241 2197.54 948.963V955.178C2197.54 958.823 2198.18 961.925 2199.46 964.482C2200.76 967.038 2202.57 968.991 2204.89 970.341C2207.21 971.667 2209.92 972.33 2213.02 972.33C2215.03 972.33 2216.87 972.045 2218.52 971.477C2220.18 970.885 2221.61 970.009 2222.82 968.849C2224.03 967.689 2224.95 966.257 2225.59 964.553L2235.64 966.364C2234.84 969.323 2233.39 971.915 2231.31 974.141C2229.25 976.342 2226.66 978.059 2223.53 979.29C2220.43 980.497 2216.89 981.101 2212.91 981.101ZM2258.21 947.614V980H2247.6V925.455H2257.79V934.332H2258.46C2259.72 931.444 2261.68 929.124 2264.36 927.372C2267.06 925.62 2270.45 924.744 2274.55 924.744C2278.27 924.744 2281.52 925.526 2284.32 927.088C2287.11 928.627 2289.28 930.923 2290.81 933.977C2292.35 937.031 2293.12 940.807 2293.12 945.305V980H2282.5V946.584C2282.5 942.63 2281.47 939.541 2279.41 937.315C2277.36 935.066 2274.53 933.942 2270.93 933.942C2268.47 933.942 2266.28 934.474 2264.36 935.54C2262.46 936.605 2260.96 938.168 2259.85 940.227C2258.76 942.263 2258.21 944.725 2258.21 947.614ZM2332.32 925.455V933.977H2302.53V925.455H2332.32ZM2310.52 912.386H2321.14V963.984C2321.14 966.044 2321.45 967.595 2322.06 968.636C2322.68 969.654 2323.47 970.353 2324.44 970.732C2325.43 971.087 2326.51 971.264 2327.67 971.264C2328.52 971.264 2329.27 971.205 2329.91 971.087C2330.55 970.968 2331.05 970.874 2331.4 970.803L2333.32 979.574C2332.7 979.811 2331.83 980.047 2330.69 980.284C2329.55 980.545 2328.13 980.687 2326.43 980.71C2323.64 980.758 2321.03 980.26 2318.62 979.219C2316.2 978.177 2314.25 976.567 2312.76 974.389C2311.27 972.211 2310.52 969.477 2310.52 966.186V912.386Z" fill="#146199"/>
<circle cx="494.528" cy="1781.22" r="209.377" fill="#EBF4FF" stroke="#CFE4FE" stroke-width="15.9525"/>
<path d="M381.994 1720.64V1715.96H414.625V1720.64H400.944V1759.47H395.675V1720.64H381.994ZM418.089 1759.47V1726.84H422.933V1731.77H423.273C423.867 1730.15 424.944 1728.84 426.502 1727.84C428.06 1726.83 429.816 1726.33 431.77 1726.33C432.138 1726.33 432.599 1726.34 433.151 1726.35C433.703 1726.36 434.121 1726.39 434.404 1726.41V1731.51C434.234 1731.47 433.845 1731.41 433.236 1731.32C432.641 1731.22 432.011 1731.17 431.345 1731.17C429.759 1731.17 428.343 1731.51 427.096 1732.17C425.864 1732.82 424.887 1733.73 424.165 1734.89C423.457 1736.04 423.103 1737.35 423.103 1738.82V1759.47H418.089ZM449.351 1760.23C447.283 1760.23 445.407 1759.84 443.722 1759.07C442.036 1758.27 440.698 1757.13 439.706 1755.64C438.715 1754.14 438.219 1752.33 438.219 1750.21C438.219 1748.34 438.588 1746.82 439.324 1745.66C440.061 1744.48 441.045 1743.56 442.277 1742.9C443.509 1742.23 444.869 1741.74 446.356 1741.41C447.857 1741.07 449.365 1740.8 450.881 1740.6C452.863 1740.35 454.471 1740.16 455.703 1740.03C456.949 1739.89 457.856 1739.66 458.422 1739.33C459.003 1739 459.293 1738.44 459.293 1737.63V1737.46C459.293 1735.36 458.719 1733.74 457.572 1732.57C456.439 1731.41 454.719 1730.83 452.41 1730.83C450.017 1730.83 448.14 1731.36 446.781 1732.4C445.421 1733.45 444.465 1734.57 443.913 1735.76L439.154 1734.06C440.004 1732.08 441.137 1730.53 442.553 1729.43C443.984 1728.31 445.541 1727.53 447.227 1727.09C448.926 1726.64 450.597 1726.41 452.24 1726.41C453.288 1726.41 454.492 1726.54 455.852 1726.8C457.225 1727.04 458.55 1727.54 459.824 1728.3C461.113 1729.07 462.182 1730.22 463.032 1731.77C463.882 1733.31 464.307 1735.38 464.307 1737.97V1759.47H459.293V1755.05H459.038C458.698 1755.76 458.132 1756.52 457.339 1757.32C456.546 1758.13 455.49 1758.82 454.173 1759.38C452.856 1759.95 451.249 1760.23 449.351 1760.23ZM450.116 1755.73C452.099 1755.73 453.77 1755.34 455.129 1754.56C456.503 1753.78 457.537 1752.78 458.231 1751.54C458.939 1750.31 459.293 1749.02 459.293 1747.66V1743.07C459.081 1743.32 458.613 1743.56 457.891 1743.77C457.183 1743.97 456.361 1744.15 455.427 1744.3C454.506 1744.44 453.607 1744.57 452.729 1744.68C451.865 1744.78 451.164 1744.87 450.626 1744.94C449.323 1745.11 448.105 1745.38 446.972 1745.77C445.853 1746.13 444.947 1746.69 444.253 1747.44C443.573 1748.18 443.233 1749.19 443.233 1750.46C443.233 1752.2 443.877 1753.52 445.166 1754.41C446.469 1755.29 448.119 1755.73 450.116 1755.73ZM472.859 1759.47V1726.84H477.873V1759.47H472.859ZM475.408 1721.4C474.431 1721.4 473.588 1721.07 472.88 1720.4C472.186 1719.74 471.839 1718.94 471.839 1718C471.839 1717.07 472.186 1716.27 472.88 1715.6C473.588 1714.94 474.431 1714.6 475.408 1714.6C476.385 1714.6 477.221 1714.94 477.915 1715.6C478.623 1716.27 478.977 1717.07 478.977 1718C478.977 1718.94 478.623 1719.74 477.915 1720.4C477.221 1721.07 476.385 1721.4 475.408 1721.4ZM491.47 1739.84V1759.47H486.457V1726.84H491.3V1731.94H491.725C492.49 1730.28 493.651 1728.95 495.209 1727.94C496.767 1726.92 498.778 1726.41 501.242 1726.41C503.452 1726.41 505.385 1726.87 507.042 1727.77C508.699 1728.67 509.988 1730.03 510.908 1731.85C511.829 1733.66 512.289 1735.96 512.289 1738.74V1759.47H507.276V1739.07C507.276 1736.51 506.61 1734.51 505.279 1733.08C503.947 1731.64 502.12 1730.92 499.798 1730.92C498.197 1730.92 496.767 1731.26 495.507 1731.96C494.26 1732.65 493.276 1733.66 492.554 1735C491.831 1736.33 491.47 1737.94 491.47 1739.84ZM520.852 1759.47V1726.84H525.866V1759.47H520.852ZM523.401 1721.4C522.424 1721.4 521.581 1721.07 520.873 1720.4C520.179 1719.74 519.832 1718.94 519.832 1718C519.832 1717.07 520.179 1716.27 520.873 1715.6C521.581 1714.94 522.424 1714.6 523.401 1714.6C524.379 1714.6 525.214 1714.94 525.908 1715.6C526.616 1716.27 526.97 1717.07 526.97 1718C526.97 1718.94 526.616 1719.74 525.908 1720.4C525.214 1721.07 524.379 1721.4 523.401 1721.4ZM539.463 1739.84V1759.47H534.45V1726.84H539.293V1731.94H539.718C540.483 1730.28 541.644 1728.95 543.202 1727.94C544.76 1726.92 546.771 1726.41 549.235 1726.41C551.445 1726.41 553.378 1726.87 555.035 1727.77C556.692 1728.67 557.981 1730.03 558.901 1731.85C559.822 1733.66 560.282 1735.96 560.282 1738.74V1759.47H555.269V1739.07C555.269 1736.51 554.603 1734.51 553.272 1733.08C551.94 1731.64 550.114 1730.92 547.791 1730.92C546.191 1730.92 544.76 1731.26 543.5 1731.96C542.253 1732.65 541.269 1733.66 540.547 1735C539.825 1736.33 539.463 1737.94 539.463 1739.84ZM582.016 1772.38C579.594 1772.38 577.513 1772.07 575.771 1771.45C574.029 1770.84 572.577 1770.03 571.416 1769.03C570.269 1768.04 569.355 1766.97 568.675 1765.84L572.669 1763.04C573.122 1763.63 573.696 1764.31 574.39 1765.08C575.084 1765.86 576.033 1766.53 577.236 1767.1C578.454 1767.68 580.048 1767.97 582.016 1767.97C584.65 1767.97 586.824 1767.33 588.538 1766.05C590.252 1764.78 591.109 1762.78 591.109 1760.06V1753.44H590.684C590.315 1754.03 589.791 1754.77 589.112 1755.64C588.446 1756.51 587.483 1757.28 586.222 1757.96C584.976 1758.63 583.291 1758.96 581.167 1758.96C578.532 1758.96 576.167 1758.34 574.071 1757.09C571.989 1755.84 570.339 1754.03 569.121 1751.65C567.918 1749.27 567.316 1746.38 567.316 1742.98C567.316 1739.64 567.903 1736.73 569.079 1734.25C570.254 1731.76 571.89 1729.83 573.986 1728.47C576.082 1727.1 578.504 1726.41 581.251 1726.41C583.376 1726.41 585.061 1726.77 586.307 1727.48C587.568 1728.17 588.531 1728.96 589.197 1729.86C589.876 1730.73 590.4 1731.46 590.769 1732.02H591.278V1726.84H596.122V1760.4C596.122 1763.21 595.485 1765.49 594.21 1767.24C592.95 1769.01 591.25 1770.31 589.112 1771.13C586.987 1771.97 584.622 1772.38 582.016 1772.38ZM581.846 1754.46C583.857 1754.46 585.557 1753.99 586.945 1753.07C588.333 1752.15 589.388 1750.83 590.11 1749.1C590.832 1747.37 591.193 1745.31 591.193 1742.9C591.193 1740.55 590.839 1738.47 590.131 1736.67C589.423 1734.88 588.375 1733.47 586.987 1732.45C585.599 1731.43 583.886 1730.92 581.846 1730.92C579.722 1730.92 577.952 1731.46 576.535 1732.53C575.133 1733.61 574.078 1735.05 573.37 1736.87C572.676 1738.68 572.329 1740.69 572.329 1742.9C572.329 1745.16 572.683 1747.17 573.391 1748.91C574.114 1750.64 575.176 1752 576.578 1752.99C577.994 1753.97 579.75 1754.46 581.846 1754.46ZM372.391 1796.96H378.679L393.464 1833.08H393.974L408.76 1796.96H415.048V1840.47H410.119V1807.41H409.694L396.098 1840.47H391.34L377.744 1807.41H377.319V1840.47H372.391V1796.96ZM433.935 1841.23C431.868 1841.23 429.991 1840.84 428.306 1840.07C426.62 1839.27 425.282 1838.13 424.291 1836.64C423.299 1835.14 422.804 1833.33 422.804 1831.21C422.804 1829.34 423.172 1827.82 423.908 1826.66C424.645 1825.48 425.629 1824.56 426.861 1823.9C428.093 1823.23 429.453 1822.74 430.94 1822.41C432.441 1822.07 433.949 1821.8 435.465 1821.6C437.448 1821.35 439.055 1821.16 440.287 1821.03C441.533 1820.89 442.44 1820.66 443.006 1820.33C443.587 1820 443.877 1819.44 443.877 1818.63V1818.46C443.877 1816.36 443.304 1814.74 442.157 1813.57C441.024 1812.41 439.303 1811.83 436.994 1811.83C434.601 1811.83 432.724 1812.36 431.365 1813.4C430.005 1814.45 429.049 1815.57 428.497 1816.76L423.738 1815.06C424.588 1813.08 425.721 1811.53 427.137 1810.43C428.568 1809.31 430.126 1808.53 431.811 1808.09C433.51 1807.64 435.182 1807.41 436.824 1807.41C437.872 1807.41 439.076 1807.54 440.436 1807.8C441.81 1808.04 443.134 1808.54 444.408 1809.3C445.697 1810.07 446.766 1811.22 447.616 1812.77C448.466 1814.31 448.891 1816.38 448.891 1818.97V1840.47H443.877V1836.05H443.622C443.282 1836.76 442.716 1837.52 441.923 1838.32C441.13 1839.13 440.075 1839.82 438.758 1840.38C437.44 1840.95 435.833 1841.23 433.935 1841.23ZM434.7 1836.73C436.683 1836.73 438.354 1836.34 439.713 1835.56C441.087 1834.78 442.121 1833.78 442.815 1832.54C443.523 1831.31 443.877 1830.02 443.877 1828.66V1824.07C443.665 1824.32 443.197 1824.56 442.475 1824.77C441.767 1824.97 440.946 1825.15 440.011 1825.3C439.09 1825.44 438.191 1825.57 437.313 1825.68C436.449 1825.78 435.748 1825.87 435.21 1825.94C433.907 1826.11 432.689 1826.38 431.556 1826.77C430.437 1827.13 429.531 1827.69 428.837 1828.44C428.157 1829.18 427.817 1830.19 427.817 1831.46C427.817 1833.2 428.461 1834.52 429.75 1835.41C431.053 1836.29 432.703 1836.73 434.7 1836.73ZM462.457 1820.84V1840.47H457.443V1807.84H462.287V1812.94H462.712C463.476 1811.28 464.638 1809.95 466.196 1808.94C467.753 1807.92 469.764 1807.41 472.229 1807.41C474.438 1807.41 476.371 1807.87 478.028 1808.77C479.685 1809.67 480.974 1811.03 481.895 1812.85C482.815 1814.66 483.275 1816.96 483.275 1819.74V1840.47H478.262V1820.07C478.262 1817.51 477.596 1815.51 476.265 1814.08C474.934 1812.64 473.107 1811.92 470.784 1811.92C469.184 1811.92 467.753 1812.26 466.493 1812.96C465.247 1813.65 464.262 1814.66 463.54 1816C462.818 1817.33 462.457 1818.94 462.457 1820.84ZM501.441 1841.23C499.373 1841.23 497.496 1840.84 495.811 1840.07C494.126 1839.27 492.787 1838.13 491.796 1836.64C490.805 1835.14 490.309 1833.33 490.309 1831.21C490.309 1829.34 490.677 1827.82 491.414 1826.66C492.15 1825.48 493.134 1824.56 494.366 1823.9C495.599 1823.23 496.958 1822.74 498.445 1822.41C499.946 1822.07 501.455 1821.8 502.97 1821.6C504.953 1821.35 506.56 1821.16 507.792 1821.03C509.039 1820.89 509.945 1820.66 510.512 1820.33C511.092 1820 511.383 1819.44 511.383 1818.63V1818.46C511.383 1816.36 510.809 1814.74 509.662 1813.57C508.529 1812.41 506.808 1811.83 504.5 1811.83C502.106 1811.83 500.23 1812.36 498.87 1813.4C497.511 1814.45 496.555 1815.57 496.002 1816.76L491.244 1815.06C492.093 1813.08 493.226 1811.53 494.643 1810.43C496.073 1809.31 497.631 1808.53 499.316 1808.09C501.016 1807.64 502.687 1807.41 504.33 1807.41C505.378 1807.41 506.582 1807.54 507.941 1807.8C509.315 1808.04 510.639 1808.54 511.914 1809.3C513.202 1810.07 514.272 1811.22 515.121 1812.77C515.971 1814.31 516.396 1816.38 516.396 1818.97V1840.47H511.383V1836.05H511.128C510.788 1836.76 510.221 1837.52 509.428 1838.32C508.635 1839.13 507.58 1839.82 506.263 1840.38C504.946 1840.95 503.338 1841.23 501.441 1841.23ZM502.205 1836.73C504.188 1836.73 505.859 1836.34 507.219 1835.56C508.593 1834.78 509.626 1833.78 510.32 1832.54C511.029 1831.31 511.383 1830.02 511.383 1828.66V1824.07C511.17 1824.32 510.703 1824.56 509.981 1824.77C509.272 1824.97 508.451 1825.15 507.516 1825.3C506.596 1825.44 505.696 1825.57 504.818 1825.68C503.954 1825.78 503.253 1825.87 502.715 1825.94C501.412 1826.11 500.194 1826.38 499.061 1826.77C497.942 1827.13 497.036 1827.69 496.342 1828.44C495.662 1829.18 495.322 1830.19 495.322 1831.46C495.322 1833.2 495.967 1834.52 497.256 1835.41C498.559 1836.29 500.208 1836.73 502.205 1836.73ZM538.12 1853.38C535.698 1853.38 533.616 1853.07 531.874 1852.45C530.132 1851.84 528.68 1851.03 527.519 1850.03C526.372 1849.04 525.458 1847.97 524.779 1846.84L528.772 1844.04C529.226 1844.63 529.799 1845.31 530.493 1846.08C531.187 1846.86 532.136 1847.53 533.34 1848.1C534.558 1848.68 536.151 1848.97 538.12 1848.97C540.754 1848.97 542.928 1848.33 544.641 1847.05C546.355 1845.78 547.212 1843.78 547.212 1841.06V1834.44H546.787C546.419 1835.03 545.895 1835.77 545.215 1836.64C544.549 1837.51 543.586 1838.28 542.326 1838.96C541.079 1839.63 539.394 1839.96 537.27 1839.96C534.636 1839.96 532.27 1839.34 530.174 1838.09C528.093 1836.84 526.443 1835.03 525.225 1832.65C524.021 1830.27 523.419 1827.38 523.419 1823.98C523.419 1820.64 524.007 1817.73 525.182 1815.25C526.358 1812.76 527.993 1810.83 530.089 1809.47C532.186 1808.1 534.607 1807.41 537.355 1807.41C539.479 1807.41 541.164 1807.77 542.411 1808.48C543.671 1809.17 544.634 1809.96 545.3 1810.86C545.98 1811.73 546.504 1812.46 546.872 1813.02H547.382V1807.84H552.225V1841.4C552.225 1844.21 551.588 1846.49 550.313 1848.24C549.053 1850.01 547.353 1851.31 545.215 1852.13C543.091 1852.97 540.725 1853.38 538.12 1853.38ZM537.95 1835.46C539.961 1835.46 541.66 1834.99 543.048 1834.07C544.436 1833.15 545.491 1831.83 546.213 1830.1C546.936 1828.37 547.297 1826.31 547.297 1823.9C547.297 1821.55 546.943 1819.47 546.235 1817.67C545.526 1815.88 544.478 1814.47 543.091 1813.45C541.703 1812.43 539.989 1811.92 537.95 1811.92C535.825 1811.92 534.055 1812.46 532.639 1813.53C531.237 1814.61 530.182 1816.05 529.473 1817.87C528.779 1819.68 528.432 1821.69 528.432 1823.9C528.432 1826.16 528.787 1828.17 529.495 1829.91C530.217 1831.64 531.279 1833 532.681 1833.99C534.097 1834.97 535.854 1835.46 537.95 1835.46ZM574.485 1841.15C571.341 1841.15 568.629 1840.45 566.349 1839.07C564.083 1837.66 562.334 1835.71 561.102 1833.2C559.884 1830.68 559.275 1827.75 559.275 1824.41C559.275 1821.07 559.884 1818.12 561.102 1815.57C562.334 1813.01 564.048 1811.01 566.243 1809.58C568.452 1808.14 571.03 1807.41 573.975 1807.41C575.675 1807.41 577.353 1807.7 579.01 1808.26C580.667 1808.83 582.175 1809.75 583.535 1811.03C584.895 1812.29 585.978 1813.96 586.785 1816.04C587.592 1818.12 587.996 1820.68 587.996 1823.73V1825.85H562.844V1821.52H582.898C582.898 1819.68 582.529 1818.04 581.793 1816.59C581.071 1815.15 580.037 1814.01 578.691 1813.17C577.36 1812.34 575.788 1811.92 573.975 1811.92C571.978 1811.92 570.251 1812.41 568.792 1813.4C567.347 1814.38 566.236 1815.66 565.457 1817.23C564.678 1818.8 564.288 1820.49 564.288 1822.28V1825.17C564.288 1827.64 564.713 1829.73 565.563 1831.44C566.427 1833.14 567.624 1834.44 569.153 1835.33C570.683 1836.21 572.46 1836.64 574.485 1836.64C575.802 1836.64 576.992 1836.46 578.054 1836.09C579.13 1835.71 580.058 1835.14 580.837 1834.39C581.616 1833.63 582.218 1832.68 582.643 1831.55L587.486 1832.91C586.976 1834.55 586.12 1835.99 584.916 1837.24C583.712 1838.47 582.225 1839.43 580.455 1840.13C578.684 1840.81 576.695 1841.15 574.485 1841.15ZM595.024 1840.47V1807.84H599.868V1812.77H600.208C600.803 1811.15 601.879 1809.84 603.437 1808.84C604.995 1807.83 606.751 1807.33 608.705 1807.33C609.073 1807.33 609.534 1807.34 610.086 1807.35C610.638 1807.36 611.056 1807.39 611.339 1807.41V1812.51C611.169 1812.47 610.78 1812.41 610.171 1812.32C609.576 1812.22 608.946 1812.17 608.28 1812.17C606.694 1812.17 605.278 1812.51 604.032 1813.17C602.8 1813.82 601.822 1814.73 601.1 1815.89C600.392 1817.04 600.038 1818.35 600.038 1819.82V1840.47H595.024Z" fill="#3D77C2"/>
<circle cx="2845.53" cy="1781.22" r="209.377" fill="#EBF4FF" stroke="#CFE4FE" stroke-width="15.9525"/>
<path d="M2724.77 1771.43H2719.5C2719.19 1769.92 2718.64 1768.59 2717.87 1767.44C2717.1 1766.29 2716.17 1765.33 2715.06 1764.55C2713.97 1763.76 2712.76 1763.16 2711.43 1762.77C2710.1 1762.37 2708.71 1762.17 2707.27 1762.17C2704.63 1762.17 2702.24 1762.84 2700.11 1764.17C2697.98 1765.5 2696.29 1767.46 2695.03 1770.05C2693.78 1772.64 2693.16 1775.82 2693.16 1779.59C2693.16 1783.36 2693.78 1786.54 2695.03 1789.13C2696.29 1791.72 2697.98 1793.68 2700.11 1795.01C2702.24 1796.34 2704.63 1797.01 2707.27 1797.01C2708.71 1797.01 2710.1 1796.81 2711.43 1796.42C2712.76 1796.02 2713.97 1795.43 2715.06 1794.65C2716.17 1793.86 2717.1 1792.89 2717.87 1791.74C2718.64 1790.58 2719.19 1789.25 2719.5 1787.75H2724.77C2724.37 1789.97 2723.65 1791.96 2722.6 1793.72C2721.56 1795.47 2720.25 1796.97 2718.69 1798.2C2717.14 1799.42 2715.39 1800.35 2713.45 1800.98C2711.52 1801.62 2709.46 1801.94 2707.27 1801.94C2703.55 1801.94 2700.26 1801.03 2697.37 1799.22C2694.48 1797.41 2692.2 1794.83 2690.55 1791.49C2688.89 1788.14 2688.06 1784.18 2688.06 1779.59C2688.06 1775 2688.89 1771.04 2690.55 1767.69C2692.2 1764.35 2694.48 1761.77 2697.37 1759.96C2700.26 1758.15 2703.55 1757.24 2707.27 1757.24C2709.46 1757.24 2711.52 1757.56 2713.45 1758.2C2715.39 1758.84 2717.14 1759.77 2718.69 1761C2720.25 1762.22 2721.56 1763.71 2722.6 1765.46C2723.65 1767.21 2724.37 1769.2 2724.77 1771.43ZM2745.26 1802.02C2742.32 1802.02 2739.73 1801.32 2737.51 1799.92C2735.3 1798.52 2733.57 1796.56 2732.32 1794.04C2731.09 1791.52 2730.48 1788.57 2730.48 1785.2C2730.48 1781.8 2731.09 1778.83 2732.32 1776.3C2733.57 1773.76 2735.3 1771.79 2737.51 1770.39C2739.73 1768.99 2742.32 1768.29 2745.26 1768.29C2748.21 1768.29 2750.78 1768.99 2752.99 1770.39C2755.22 1771.79 2756.95 1773.76 2758.18 1776.3C2759.42 1778.83 2760.05 1781.8 2760.05 1785.2C2760.05 1788.57 2759.42 1791.52 2758.18 1794.04C2756.95 1796.56 2755.22 1798.52 2752.99 1799.92C2750.78 1801.32 2748.21 1802.02 2745.26 1802.02ZM2745.26 1797.52C2747.5 1797.52 2749.34 1796.95 2750.78 1795.8C2752.23 1794.65 2753.3 1793.14 2753.99 1791.27C2754.69 1789.41 2755.03 1787.38 2755.03 1785.2C2755.03 1783.02 2754.69 1780.99 2753.99 1779.1C2753.3 1777.22 2752.23 1775.7 2750.78 1774.53C2749.34 1773.37 2747.5 1772.79 2745.26 1772.79C2743.02 1772.79 2741.18 1773.37 2739.74 1774.53C2738.29 1775.7 2737.22 1777.22 2736.53 1779.1C2735.84 1780.99 2735.49 1783.02 2735.49 1785.2C2735.49 1787.38 2735.84 1789.41 2736.53 1791.27C2737.22 1793.14 2738.29 1794.65 2739.74 1795.8C2741.18 1796.95 2743.02 1797.52 2745.26 1797.52ZM2772.12 1757.84V1801.34H2767.1V1757.84H2772.12ZM2785.71 1757.84V1801.34H2780.7V1757.84H2785.71ZM2807.98 1802.02C2804.83 1802.02 2802.12 1801.33 2799.84 1799.94C2797.58 1798.54 2795.83 1796.59 2794.59 1794.08C2793.38 1791.56 2792.77 1788.63 2792.77 1785.28C2792.77 1781.94 2793.38 1779 2794.59 1776.45C2795.83 1773.88 2797.54 1771.89 2799.74 1770.46C2801.95 1769.01 2804.52 1768.29 2807.47 1768.29C2809.17 1768.29 2810.85 1768.57 2812.5 1769.14C2814.16 1769.71 2815.67 1770.63 2817.03 1771.9C2818.39 1773.16 2819.47 1774.83 2820.28 1776.91C2821.09 1779 2821.49 1781.56 2821.49 1784.6V1786.73H2796.34V1782.39H2816.39C2816.39 1780.55 2816.02 1778.91 2815.29 1777.47C2814.56 1776.02 2813.53 1774.88 2812.18 1774.05C2810.85 1773.21 2809.28 1772.79 2807.47 1772.79C2805.47 1772.79 2803.74 1773.29 2802.29 1774.28C2800.84 1775.26 2799.73 1776.53 2798.95 1778.1C2798.17 1779.68 2797.78 1781.36 2797.78 1783.16V1786.05C2797.78 1788.51 2798.21 1790.6 2799.06 1792.32C2799.92 1794.02 2801.12 1795.31 2802.65 1796.2C2804.18 1797.08 2805.95 1797.52 2807.98 1797.52C2809.3 1797.52 2810.49 1797.34 2811.55 1796.97C2812.62 1796.59 2813.55 1796.02 2814.33 1795.27C2815.11 1794.5 2815.71 1793.55 2816.14 1792.42L2820.98 1793.78C2820.47 1795.42 2819.61 1796.87 2818.41 1798.12C2817.21 1799.35 2815.72 1800.31 2813.95 1801C2812.18 1801.68 2810.19 1802.02 2807.98 1802.02ZM2838.12 1802.11C2836.05 1802.11 2834.18 1801.72 2832.49 1800.94C2830.8 1800.15 2829.47 1799.01 2828.48 1797.52C2827.48 1796.02 2826.99 1794.21 2826.99 1792.08C2826.99 1790.21 2827.36 1788.7 2828.09 1787.54C2828.83 1786.36 2829.81 1785.44 2831.05 1784.77C2832.28 1784.11 2833.64 1783.61 2835.12 1783.29C2836.63 1782.95 2838.13 1782.68 2839.65 1782.48C2841.63 1782.23 2843.24 1782.03 2844.47 1781.91C2845.72 1781.76 2846.62 1781.53 2847.19 1781.21C2847.77 1780.88 2848.06 1780.31 2848.06 1779.51V1779.34C2848.06 1777.24 2847.49 1775.61 2846.34 1774.45C2845.21 1773.29 2843.49 1772.71 2841.18 1772.71C2838.79 1772.71 2836.91 1773.23 2835.55 1774.28C2834.19 1775.33 2833.23 1776.45 2832.68 1777.64L2827.92 1775.94C2828.77 1773.95 2829.91 1772.41 2831.32 1771.31C2832.75 1770.19 2834.31 1769.41 2836 1768.97C2837.69 1768.52 2839.37 1768.29 2841.01 1768.29C2842.06 1768.29 2843.26 1768.42 2844.62 1768.67C2845.99 1768.91 2847.32 1769.42 2848.59 1770.18C2849.88 1770.94 2850.95 1772.1 2851.8 1773.64C2852.65 1775.19 2853.08 1777.25 2853.08 1779.85V1801.34H2848.06V1796.93H2847.81C2847.47 1797.63 2846.9 1798.39 2846.11 1799.2C2845.31 1800.01 2844.26 1800.69 2842.94 1801.26C2841.62 1801.83 2840.02 1802.11 2838.12 1802.11ZM2838.88 1797.61C2840.87 1797.61 2842.54 1797.22 2843.9 1796.44C2845.27 1795.66 2846.31 1794.65 2847 1793.42C2847.71 1792.19 2848.06 1790.89 2848.06 1789.53V1784.94C2847.85 1785.2 2847.38 1785.43 2846.66 1785.65C2845.95 1785.84 2845.13 1786.02 2844.2 1786.18C2843.27 1786.32 2842.38 1786.45 2841.5 1786.56C2840.63 1786.66 2839.93 1786.74 2839.39 1786.81C2838.09 1786.98 2836.87 1787.26 2835.74 1787.64C2834.62 1788.01 2833.72 1788.57 2833.02 1789.32C2832.34 1790.06 2832 1791.06 2832 1792.34C2832 1794.08 2832.65 1795.4 2833.93 1796.29C2835.24 1797.17 2836.89 1797.61 2838.88 1797.61ZM2874.8 1814.26C2872.38 1814.26 2870.3 1813.95 2868.55 1813.33C2866.81 1812.72 2865.36 1811.91 2864.2 1810.9C2863.05 1809.91 2862.14 1808.85 2861.46 1807.72L2865.45 1804.91C2865.9 1805.51 2866.48 1806.19 2867.17 1806.95C2867.87 1807.73 2868.82 1808.4 2870.02 1808.97C2871.24 1809.55 2872.83 1809.84 2874.8 1809.84C2877.43 1809.84 2879.61 1809.2 2881.32 1807.93C2883.03 1806.66 2883.89 1804.66 2883.89 1801.94V1795.31H2883.47C2883.1 1795.91 2882.57 1796.64 2881.89 1797.52C2881.23 1798.38 2880.27 1799.16 2879 1799.84C2877.76 1800.5 2876.07 1800.83 2873.95 1800.83C2871.31 1800.83 2868.95 1800.21 2866.85 1798.96C2864.77 1797.72 2863.12 1795.91 2861.9 1793.53C2860.7 1791.15 2860.1 1788.26 2860.1 1784.86C2860.1 1781.52 2860.69 1778.61 2861.86 1776.13C2863.04 1773.64 2864.67 1771.71 2866.77 1770.35C2868.86 1768.98 2871.29 1768.29 2874.03 1768.29C2876.16 1768.29 2877.84 1768.64 2879.09 1769.35C2880.35 1770.05 2881.31 1770.84 2881.98 1771.73C2882.66 1772.61 2883.18 1773.33 2883.55 1773.9H2884.06V1768.71H2888.9V1802.28C2888.9 1805.08 2888.27 1807.36 2886.99 1809.12C2885.73 1810.89 2884.03 1812.19 2881.89 1813.01C2879.77 1813.84 2877.4 1814.26 2874.8 1814.26ZM2874.63 1796.33C2876.64 1796.33 2878.34 1795.87 2879.73 1794.95C2881.12 1794.03 2882.17 1792.71 2882.89 1790.98C2883.61 1789.25 2883.98 1787.18 2883.98 1784.77C2883.98 1782.42 2883.62 1780.35 2882.91 1778.55C2882.21 1776.75 2881.16 1775.34 2879.77 1774.32C2878.38 1773.3 2876.67 1772.79 2874.63 1772.79C2872.5 1772.79 2870.73 1773.33 2869.32 1774.41C2867.92 1775.48 2866.86 1776.93 2866.15 1778.74C2865.46 1780.55 2865.11 1782.56 2865.11 1784.77C2865.11 1787.04 2865.47 1789.04 2866.17 1790.79C2866.9 1792.51 2867.96 1793.87 2869.36 1794.86C2870.78 1795.84 2872.53 1796.33 2874.63 1796.33ZM2918.05 1788V1768.71H2923.06V1801.34H2918.05V1795.82H2917.71C2916.94 1797.48 2915.75 1798.89 2914.14 1800.05C2912.52 1801.2 2910.48 1801.77 2908.02 1801.77C2905.98 1801.77 2904.17 1801.32 2902.58 1800.43C2901 1799.52 2899.75 1798.16 2898.84 1796.35C2897.94 1794.53 2897.48 1792.22 2897.48 1789.45V1768.71H2902.5V1789.11C2902.5 1791.49 2903.16 1793.38 2904.49 1794.8C2905.84 1796.22 2907.55 1796.93 2909.63 1796.93C2910.88 1796.93 2912.15 1796.61 2913.44 1795.97C2914.74 1795.33 2915.83 1794.36 2916.71 1793.04C2917.6 1791.72 2918.05 1790.04 2918.05 1788ZM2945.33 1802.02C2942.18 1802.02 2939.47 1801.33 2937.19 1799.94C2934.92 1798.54 2933.17 1796.59 2931.94 1794.08C2930.72 1791.56 2930.12 1788.63 2930.12 1785.28C2930.12 1781.94 2930.72 1779 2931.94 1776.45C2933.17 1773.88 2934.89 1771.89 2937.08 1770.46C2939.29 1769.01 2941.87 1768.29 2944.82 1768.29C2946.52 1768.29 2948.19 1768.57 2949.85 1769.14C2951.51 1769.71 2953.02 1770.63 2954.38 1771.9C2955.74 1773.16 2956.82 1774.83 2957.63 1776.91C2958.43 1779 2958.84 1781.56 2958.84 1784.6V1786.73H2933.68V1782.39H2953.74C2953.74 1780.55 2953.37 1778.91 2952.63 1777.47C2951.91 1776.02 2950.88 1774.88 2949.53 1774.05C2948.2 1773.21 2946.63 1772.79 2944.82 1772.79C2942.82 1772.79 2941.09 1773.29 2939.63 1774.28C2938.19 1775.26 2937.08 1776.53 2936.3 1778.1C2935.52 1779.68 2935.13 1781.36 2935.13 1783.16V1786.05C2935.13 1788.51 2935.55 1790.6 2936.4 1792.32C2937.27 1794.02 2938.46 1795.31 2939.99 1796.2C2941.52 1797.08 2943.3 1797.52 2945.33 1797.52C2946.64 1797.52 2947.83 1797.34 2948.89 1796.97C2949.97 1796.59 2950.9 1796.02 2951.68 1795.27C2952.46 1794.5 2953.06 1793.55 2953.48 1792.42L2958.33 1793.78C2957.82 1795.42 2956.96 1796.87 2955.76 1798.12C2954.55 1799.35 2953.07 1800.31 2951.3 1801C2949.53 1801.68 2947.54 1802.02 2945.33 1802.02ZM2988.98 1776.02L2984.47 1777.3C2984.19 1776.55 2983.77 1775.82 2983.22 1775.11C2982.68 1774.39 2981.95 1773.79 2981.01 1773.32C2980.08 1772.86 2978.88 1772.62 2977.42 1772.62C2975.42 1772.62 2973.76 1773.08 2972.43 1774C2971.11 1774.91 2970.45 1776.06 2970.45 1777.47C2970.45 1778.71 2970.91 1779.7 2971.81 1780.42C2972.72 1781.14 2974.14 1781.74 2976.06 1782.23L2980.91 1783.41C2983.82 1784.12 2986 1785.21 2987.43 1786.66C2988.86 1788.11 2989.57 1789.97 2989.57 1792.25C2989.57 1794.12 2989.03 1795.79 2987.96 1797.27C2986.9 1798.74 2985.41 1799.9 2983.5 1800.75C2981.59 1801.6 2979.36 1802.02 2976.83 1802.02C2973.5 1802.02 2970.74 1801.3 2968.56 1799.86C2966.38 1798.41 2965 1796.3 2964.42 1793.53L2969.18 1792.34C2969.63 1794.09 2970.49 1795.41 2971.75 1796.29C2973.02 1797.17 2974.69 1797.61 2976.74 1797.61C2979.08 1797.61 2980.93 1797.11 2982.31 1796.12C2983.7 1795.11 2984.39 1793.91 2984.39 1792.51C2984.39 1791.37 2983.99 1790.43 2983.2 1789.66C2982.41 1788.88 2981.19 1788.3 2979.55 1787.92L2974.11 1786.64C2971.12 1785.94 2968.92 1784.84 2967.52 1783.35C2966.13 1781.85 2965.44 1779.97 2965.44 1777.72C2965.44 1775.88 2965.96 1774.25 2966.99 1772.84C2968.04 1771.42 2969.46 1770.31 2971.26 1769.5C2973.07 1768.69 2975.13 1768.29 2977.42 1768.29C2980.65 1768.29 2983.19 1769 2985.03 1770.41C2986.88 1771.83 2988.2 1773.7 2988.98 1776.02Z" fill="#3D77C2"/>
<circle cx="2052.35" cy="1781.35" r="209.377" fill="#F4FFEA" stroke="#C2ED9E" stroke-width="15.9525"/>
<path d="M1915.83 1801.34V1757.84H1942.09V1762.51H1921.1V1777.21H1940.73V1781.89H1921.1V1796.67H1942.43V1801.34H1915.83ZM1950.31 1801.34V1768.71H1955.15V1773.81H1955.57C1956.25 1772.07 1957.35 1770.72 1958.87 1769.76C1960.38 1768.78 1962.2 1768.29 1964.33 1768.29C1966.48 1768.29 1968.27 1768.78 1969.7 1769.76C1971.15 1770.72 1972.27 1772.07 1973.08 1773.81H1973.42C1974.26 1772.13 1975.51 1770.79 1977.18 1769.8C1978.85 1768.79 1980.85 1768.29 1983.19 1768.29C1986.11 1768.29 1988.5 1769.2 1990.35 1771.03C1992.21 1772.84 1993.13 1775.67 1993.13 1779.51V1801.34H1988.12V1779.51C1988.12 1777.1 1987.46 1775.38 1986.14 1774.34C1984.83 1773.31 1983.28 1772.79 1981.49 1772.79C1979.2 1772.79 1977.42 1773.49 1976.16 1774.87C1974.9 1776.25 1974.27 1777.99 1974.27 1780.1V1801.34H1969.17V1779C1969.17 1777.14 1968.57 1775.65 1967.37 1774.51C1966.16 1773.37 1964.61 1772.79 1962.71 1772.79C1961.41 1772.79 1960.19 1773.14 1959.06 1773.83C1957.94 1774.53 1957.03 1775.49 1956.34 1776.72C1955.66 1777.94 1955.32 1779.35 1955.32 1780.95V1801.34H1950.31ZM2001.7 1813.58V1768.71H2006.55V1773.9H2007.14C2007.51 1773.33 2008.02 1772.61 2008.67 1771.73C2009.34 1770.84 2010.28 1770.05 2011.52 1769.35C2012.76 1768.64 2014.45 1768.29 2016.57 1768.29C2019.32 1768.29 2021.74 1768.98 2023.84 1770.35C2025.93 1771.72 2027.57 1773.67 2028.75 1776.19C2029.92 1778.71 2030.51 1781.69 2030.51 1785.11C2030.51 1788.57 2029.92 1791.57 2028.75 1794.1C2027.57 1796.62 2025.94 1798.58 2023.86 1799.96C2021.78 1801.34 2019.38 1802.02 2016.66 1802.02C2014.56 1802.02 2012.88 1801.68 2011.62 1800.98C2010.36 1800.27 2009.39 1799.47 2008.71 1798.58C2008.03 1797.68 2007.51 1796.93 2007.14 1796.33H2006.72V1813.58H2001.7ZM2006.63 1785.03C2006.63 1787.49 2006.99 1789.67 2007.71 1791.55C2008.44 1793.42 2009.49 1794.89 2010.88 1795.95C2012.27 1797 2013.97 1797.52 2015.98 1797.52C2018.07 1797.52 2019.82 1796.97 2021.22 1795.86C2022.64 1794.74 2023.7 1793.24 2024.41 1791.36C2025.13 1789.46 2025.49 1787.35 2025.49 1785.03C2025.49 1782.73 2025.14 1780.67 2024.43 1778.83C2023.74 1776.97 2022.68 1775.5 2021.27 1774.43C2019.87 1773.34 2018.1 1772.79 2015.98 1772.79C2013.94 1772.79 2012.22 1773.31 2010.84 1774.34C2009.45 1775.36 2008.4 1776.79 2007.69 1778.63C2006.98 1780.46 2006.63 1782.59 2006.63 1785.03ZM2042.57 1757.84V1801.34H2037.56V1757.84H2042.57ZM2064.41 1802.02C2061.47 1802.02 2058.88 1801.32 2056.66 1799.92C2054.45 1798.52 2052.72 1796.56 2051.47 1794.04C2050.24 1791.52 2049.63 1788.57 2049.63 1785.2C2049.63 1781.8 2050.24 1778.83 2051.47 1776.3C2052.72 1773.76 2054.45 1771.79 2056.66 1770.39C2058.88 1768.99 2061.47 1768.29 2064.41 1768.29C2067.36 1768.29 2069.93 1768.99 2072.14 1770.39C2074.37 1771.79 2076.1 1773.76 2077.33 1776.3C2078.57 1778.83 2079.2 1781.8 2079.2 1785.2C2079.2 1788.57 2078.57 1791.52 2077.33 1794.04C2076.1 1796.56 2074.37 1798.52 2072.14 1799.92C2069.93 1801.32 2067.36 1802.02 2064.41 1802.02ZM2064.41 1797.52C2066.65 1797.52 2068.49 1796.95 2069.93 1795.8C2071.38 1794.65 2072.45 1793.14 2073.14 1791.27C2073.84 1789.41 2074.18 1787.38 2074.18 1785.2C2074.18 1783.02 2073.84 1780.99 2073.14 1779.1C2072.45 1777.22 2071.38 1775.7 2069.93 1774.53C2068.49 1773.37 2066.65 1772.79 2064.41 1772.79C2062.17 1772.79 2060.33 1773.37 2058.89 1774.53C2057.44 1775.7 2056.37 1777.22 2055.68 1779.1C2054.99 1780.99 2054.64 1783.02 2054.64 1785.2C2054.64 1787.38 2054.99 1789.41 2055.68 1791.27C2056.37 1793.14 2057.44 1794.65 2058.89 1795.8C2060.33 1796.95 2062.17 1797.52 2064.41 1797.52ZM2088.31 1813.58C2087.46 1813.58 2086.71 1813.51 2086.04 1813.37C2085.37 1813.24 2084.91 1813.11 2084.66 1812.99L2085.93 1808.57C2087.15 1808.88 2088.23 1808.99 2089.16 1808.91C2090.1 1808.82 2090.93 1808.4 2091.65 1807.65C2092.38 1806.92 2093.06 1805.72 2093.67 1804.06L2094.6 1801.51L2082.53 1768.71H2087.97L2096.98 1794.72H2097.32L2106.33 1768.71H2111.77L2097.91 1806.1C2097.29 1807.79 2096.52 1809.18 2095.6 1810.29C2094.68 1811.41 2093.61 1812.24 2092.39 1812.77C2091.19 1813.31 2089.83 1813.58 2088.31 1813.58ZM2130.3 1802.02C2127.15 1802.02 2124.44 1801.33 2122.16 1799.94C2119.89 1798.54 2118.15 1796.59 2116.91 1794.08C2115.7 1791.56 2115.09 1788.63 2115.09 1785.28C2115.09 1781.94 2115.7 1779 2116.91 1776.45C2118.15 1773.88 2119.86 1771.89 2122.05 1770.46C2124.26 1769.01 2126.84 1768.29 2129.79 1768.29C2131.49 1768.29 2133.16 1768.57 2134.82 1769.14C2136.48 1769.71 2137.99 1770.63 2139.35 1771.9C2140.71 1773.16 2141.79 1774.83 2142.6 1776.91C2143.4 1779 2143.81 1781.56 2143.81 1784.6V1786.73H2118.66V1782.39H2138.71C2138.71 1780.55 2138.34 1778.91 2137.6 1777.47C2136.88 1776.02 2135.85 1774.88 2134.5 1774.05C2133.17 1773.21 2131.6 1772.79 2129.79 1772.79C2127.79 1772.79 2126.06 1773.29 2124.6 1774.28C2123.16 1775.26 2122.05 1776.53 2121.27 1778.1C2120.49 1779.68 2120.1 1781.36 2120.1 1783.16V1786.05C2120.1 1788.51 2120.52 1790.6 2121.37 1792.32C2122.24 1794.02 2123.44 1795.31 2124.96 1796.2C2126.49 1797.08 2128.27 1797.52 2130.3 1797.52C2131.61 1797.52 2132.8 1797.34 2133.87 1796.97C2134.94 1796.59 2135.87 1796.02 2136.65 1795.27C2137.43 1794.5 2138.03 1793.55 2138.45 1792.42L2143.3 1793.78C2142.79 1795.42 2141.93 1796.87 2140.73 1798.12C2139.52 1799.35 2138.04 1800.31 2136.27 1801C2134.5 1801.68 2132.51 1802.02 2130.3 1802.02ZM2164.52 1802.02C2161.37 1802.02 2158.66 1801.33 2156.38 1799.94C2154.11 1798.54 2152.37 1796.59 2151.13 1794.08C2149.92 1791.56 2149.31 1788.63 2149.31 1785.28C2149.31 1781.94 2149.92 1779 2151.13 1776.45C2152.37 1773.88 2154.08 1771.89 2156.27 1770.46C2158.48 1769.01 2161.06 1768.29 2164.01 1768.29C2165.71 1768.29 2167.38 1768.57 2169.04 1769.14C2170.7 1769.71 2172.21 1770.63 2173.57 1771.9C2174.93 1773.16 2176.01 1774.83 2176.82 1776.91C2177.62 1779 2178.03 1781.56 2178.03 1784.6V1786.73H2152.88V1782.39H2172.93C2172.93 1780.55 2172.56 1778.91 2171.82 1777.47C2171.1 1776.02 2170.07 1774.88 2168.72 1774.05C2167.39 1773.21 2165.82 1772.79 2164.01 1772.79C2162.01 1772.79 2160.28 1773.29 2158.82 1774.28C2157.38 1775.26 2156.27 1776.53 2155.49 1778.1C2154.71 1779.68 2154.32 1781.36 2154.32 1783.16V1786.05C2154.32 1788.51 2154.75 1790.6 2155.59 1792.32C2156.46 1794.02 2157.66 1795.31 2159.18 1796.2C2160.71 1797.08 2162.49 1797.52 2164.52 1797.52C2165.83 1797.52 2167.02 1797.34 2168.09 1796.97C2169.16 1796.59 2170.09 1796.02 2170.87 1795.27C2171.65 1794.5 2172.25 1793.55 2172.67 1792.42L2177.52 1793.78C2177.01 1795.42 2176.15 1796.87 2174.95 1798.12C2173.74 1799.35 2172.26 1800.31 2170.49 1801C2168.72 1801.68 2166.73 1802.02 2164.52 1802.02Z" fill="#6CAB36"/>
<circle cx="711.881" cy="1270.74" r="209.377" fill="#EBF4FF" stroke="#CFE4FE" stroke-width="15.9525"/>
<path d="M671.555 1248.99V1205.48H676.824V1224.86H700.022V1205.48H705.29V1248.99H700.022V1229.53H676.824V1248.99H671.555ZM715.239 1248.99V1205.48H729.94C733.339 1205.48 736.129 1206.06 738.31 1207.22C740.491 1208.37 742.105 1209.95 743.153 1211.96C744.201 1213.97 744.725 1216.26 744.725 1218.82C744.725 1221.39 744.201 1223.66 743.153 1225.64C742.105 1227.62 740.498 1229.18 738.331 1230.31C736.164 1231.43 733.395 1231.99 730.025 1231.99H718.128V1227.23H729.855C732.177 1227.23 734.047 1226.89 735.463 1226.21C736.893 1225.54 737.927 1224.57 738.565 1223.33C739.216 1222.07 739.542 1220.56 739.542 1218.82C739.542 1217.08 739.216 1215.56 738.565 1214.25C737.913 1212.95 736.872 1211.95 735.442 1211.24C734.011 1210.52 732.121 1210.15 729.77 1210.15H720.508V1248.99H715.239ZM735.718 1229.44L746.425 1248.99H740.307L729.77 1229.44H735.718ZM589.744 1286.48H596.032L610.818 1322.6H611.327L626.113 1286.48H632.401V1329.99H627.473V1296.93H627.048L613.452 1329.99H608.693L595.097 1296.93H594.672V1329.99H589.744V1286.48ZM651.289 1330.75C649.221 1330.75 647.344 1330.36 645.659 1329.58C643.974 1328.79 642.635 1327.65 641.644 1326.16C640.653 1324.66 640.157 1322.85 640.157 1320.73C640.157 1318.86 640.525 1317.34 641.262 1316.18C641.998 1315 642.982 1314.08 644.214 1313.42C645.447 1312.75 646.806 1312.26 648.293 1311.93C649.794 1311.59 651.303 1311.32 652.818 1311.12C654.801 1310.87 656.408 1310.68 657.64 1310.55C658.887 1310.41 659.793 1310.17 660.36 1309.85C660.94 1309.52 661.231 1308.96 661.231 1308.15V1307.98C661.231 1305.88 660.657 1304.25 659.51 1303.09C658.377 1301.93 656.656 1301.35 654.348 1301.35C651.954 1301.35 650.078 1301.88 648.718 1302.92C647.358 1303.97 646.402 1305.09 645.85 1306.28L641.092 1304.58C641.941 1302.6 643.074 1301.05 644.491 1299.95C645.921 1298.83 647.479 1298.05 649.164 1297.61C650.864 1297.16 652.535 1296.93 654.178 1296.93C655.226 1296.93 656.429 1297.06 657.789 1297.32C659.163 1297.56 660.487 1298.06 661.762 1298.82C663.05 1299.59 664.12 1300.74 664.969 1302.29C665.819 1303.83 666.244 1305.9 666.244 1308.49V1329.99H661.231V1325.57H660.976C660.636 1326.28 660.069 1327.04 659.276 1327.84C658.483 1328.65 657.428 1329.34 656.111 1329.9C654.794 1330.47 653.186 1330.75 651.289 1330.75ZM652.053 1326.25C654.036 1326.25 655.707 1325.86 657.067 1325.08C658.441 1324.3 659.474 1323.3 660.168 1322.06C660.876 1320.83 661.231 1319.54 661.231 1318.18V1313.59C661.018 1313.84 660.551 1314.08 659.828 1314.29C659.12 1314.49 658.299 1314.66 657.364 1314.82C656.444 1314.96 655.544 1315.09 654.666 1315.2C653.802 1315.3 653.101 1315.39 652.563 1315.46C651.26 1315.63 650.042 1315.9 648.909 1316.29C647.79 1316.65 646.884 1317.21 646.19 1317.96C645.51 1318.7 645.17 1319.71 645.17 1320.98C645.17 1322.72 645.815 1324.04 647.104 1324.93C648.406 1325.81 650.056 1326.25 652.053 1326.25ZM679.81 1310.36V1329.99H674.796V1297.36H679.64V1302.46H680.065C680.83 1300.8 681.991 1299.47 683.549 1298.46C685.107 1297.44 687.118 1296.93 689.582 1296.93C691.791 1296.93 693.724 1297.39 695.382 1298.29C697.039 1299.18 698.327 1300.54 699.248 1302.37C700.168 1304.18 700.629 1306.48 700.629 1309.25V1329.99H695.615V1309.59C695.615 1307.03 694.95 1305.03 693.618 1303.6C692.287 1302.16 690.46 1301.44 688.137 1301.44C686.537 1301.44 685.107 1301.78 683.846 1302.48C682.6 1303.17 681.616 1304.18 680.893 1305.52C680.171 1306.85 679.81 1308.46 679.81 1310.36ZM718.794 1330.75C716.726 1330.75 714.85 1330.36 713.164 1329.58C711.479 1328.79 710.141 1327.65 709.149 1326.16C708.158 1324.66 707.662 1322.85 707.662 1320.73C707.662 1318.86 708.03 1317.34 708.767 1316.18C709.503 1315 710.488 1314.08 711.72 1313.42C712.952 1312.75 714.311 1312.26 715.799 1311.93C717.3 1311.59 718.808 1311.32 720.323 1311.12C722.306 1310.87 723.914 1310.68 725.146 1310.55C726.392 1310.41 727.298 1310.17 727.865 1309.85C728.446 1309.52 728.736 1308.96 728.736 1308.15V1307.98C728.736 1305.88 728.162 1304.25 727.015 1303.09C725.882 1301.93 724.161 1301.35 721.853 1301.35C719.459 1301.35 717.583 1301.88 716.223 1302.92C714.864 1303.97 713.908 1305.09 713.355 1306.28L708.597 1304.58C709.447 1302.6 710.58 1301.05 711.996 1299.95C713.426 1298.83 714.984 1298.05 716.669 1297.61C718.369 1297.16 720.04 1296.93 721.683 1296.93C722.731 1296.93 723.935 1297.06 725.294 1297.32C726.668 1297.56 727.992 1298.06 729.267 1298.82C730.556 1299.59 731.625 1300.74 732.475 1302.29C733.324 1303.83 733.749 1305.9 733.749 1308.49V1329.99H728.736V1325.57H728.481C728.141 1326.28 727.575 1327.04 726.781 1327.84C725.988 1328.65 724.933 1329.34 723.616 1329.9C722.299 1330.47 720.692 1330.75 718.794 1330.75ZM719.559 1326.25C721.541 1326.25 723.213 1325.86 724.572 1325.08C725.946 1324.3 726.98 1323.3 727.674 1322.06C728.382 1320.83 728.736 1319.54 728.736 1318.18V1313.59C728.523 1313.84 728.056 1314.08 727.334 1314.29C726.626 1314.49 725.804 1314.66 724.87 1314.82C723.949 1314.96 723.05 1315.09 722.172 1315.2C721.308 1315.3 720.607 1315.39 720.068 1315.46C718.766 1315.63 717.548 1315.9 716.415 1316.29C715.296 1316.65 714.389 1317.21 713.695 1317.96C713.016 1318.7 712.676 1319.71 712.676 1320.98C712.676 1322.72 713.32 1324.04 714.609 1324.93C715.912 1325.81 717.562 1326.25 719.559 1326.25ZM755.473 1342.9C753.051 1342.9 750.969 1342.59 749.227 1341.97C747.485 1341.36 746.034 1340.55 744.872 1339.55C743.725 1338.56 742.812 1337.49 742.132 1336.36L746.126 1333.56C746.579 1334.15 747.152 1334.83 747.846 1335.6C748.54 1336.38 749.489 1337.05 750.693 1337.61C751.911 1338.2 753.504 1338.49 755.473 1338.49C758.107 1338.49 760.281 1337.85 761.995 1336.57C763.708 1335.3 764.565 1333.3 764.565 1330.58V1323.95H764.14C763.772 1324.55 763.248 1325.29 762.568 1326.16C761.903 1327.03 760.94 1327.8 759.679 1328.48C758.433 1329.15 756.747 1329.48 754.623 1329.48C751.989 1329.48 749.624 1328.86 747.528 1327.61C745.446 1326.36 743.796 1324.55 742.578 1322.17C741.374 1319.79 740.772 1316.9 740.772 1313.5C740.772 1310.16 741.36 1307.25 742.535 1304.77C743.711 1302.28 745.347 1300.35 747.443 1298.99C749.539 1297.62 751.961 1296.93 754.708 1296.93C756.832 1296.93 758.518 1297.29 759.764 1298C761.024 1298.69 761.988 1299.48 762.653 1300.37C763.333 1301.25 763.857 1301.97 764.225 1302.54H764.735V1297.36H769.579V1330.92C769.579 1333.73 768.941 1336.01 767.667 1337.76C766.406 1339.53 764.707 1340.83 762.568 1341.65C760.444 1342.49 758.079 1342.9 755.473 1342.9ZM755.303 1324.97C757.314 1324.97 759.013 1324.51 760.401 1323.59C761.789 1322.67 762.844 1321.35 763.567 1319.62C764.289 1317.89 764.65 1315.83 764.65 1313.42C764.65 1311.07 764.296 1308.99 763.588 1307.19C762.88 1305.4 761.832 1303.99 760.444 1302.97C759.056 1301.95 757.342 1301.44 755.303 1301.44C753.179 1301.44 751.408 1301.97 749.992 1303.05C748.59 1304.13 747.535 1305.57 746.827 1307.38C746.133 1309.2 745.786 1311.21 745.786 1313.42C745.786 1315.68 746.14 1317.69 746.848 1319.43C747.57 1321.16 748.632 1322.52 750.034 1323.51C751.451 1324.49 753.207 1324.97 755.303 1324.97ZM791.838 1330.67C788.694 1330.67 785.982 1329.97 783.702 1328.59C781.436 1327.18 779.687 1325.23 778.455 1322.72C777.237 1320.2 776.628 1317.27 776.628 1313.93C776.628 1310.59 777.237 1307.64 778.455 1305.09C779.687 1302.53 781.401 1300.53 783.596 1299.1C785.805 1297.66 788.383 1296.93 791.329 1296.93C793.028 1296.93 794.706 1297.22 796.363 1297.78C798.02 1298.35 799.529 1299.27 800.888 1300.54C802.248 1301.8 803.331 1303.48 804.139 1305.56C804.946 1307.64 805.349 1310.2 805.349 1313.25V1315.37H780.197V1311.04H800.251C800.251 1309.2 799.883 1307.55 799.146 1306.11C798.424 1304.67 797.39 1303.53 796.045 1302.69C794.713 1301.85 793.141 1301.44 791.329 1301.44C789.332 1301.44 787.604 1301.93 786.145 1302.92C784.701 1303.9 783.589 1305.18 782.81 1306.75C782.031 1308.32 781.642 1310 781.642 1311.8V1314.69C781.642 1317.16 782.066 1319.25 782.916 1320.96C783.78 1322.66 784.977 1323.95 786.506 1324.85C788.036 1325.73 789.813 1326.16 791.838 1326.16C793.156 1326.16 794.345 1325.98 795.407 1325.61C796.484 1325.23 797.411 1324.66 798.19 1323.91C798.969 1323.15 799.571 1322.2 799.996 1321.07L804.84 1322.43C804.33 1324.07 803.473 1325.51 802.269 1326.76C801.065 1327.99 799.578 1328.95 797.808 1329.65C796.038 1330.33 794.048 1330.67 791.838 1330.67ZM812.378 1329.99V1297.36H817.221V1302.29H817.561C818.156 1300.67 819.232 1299.36 820.79 1298.36C822.348 1297.35 824.104 1296.85 826.058 1296.85C826.427 1296.85 826.887 1296.86 827.439 1296.87C827.992 1296.88 828.409 1296.9 828.693 1296.93V1302.03C828.523 1301.99 828.133 1301.93 827.524 1301.84C826.929 1301.74 826.299 1301.69 825.634 1301.69C824.047 1301.69 822.631 1302.02 821.385 1302.69C820.153 1303.34 819.176 1304.25 818.453 1305.41C817.745 1306.56 817.391 1307.87 817.391 1309.34V1329.99H812.378Z" fill="#3D77C2"/>
<circle cx="2053.35" cy="1242.35" r="209.377" fill="#EBF4FF" stroke="#CFE4FE" stroke-width="15.9525"/>
<path d="M1907.23 1229.85C1906.98 1227.69 1905.94 1226.02 1904.13 1224.83C1902.32 1223.64 1900.1 1223.05 1897.46 1223.05C1895.54 1223.05 1893.85 1223.36 1892.41 1223.98C1890.98 1224.61 1889.86 1225.46 1889.05 1226.55C1888.26 1227.65 1887.86 1228.88 1887.86 1230.27C1887.86 1231.43 1888.14 1232.43 1888.69 1233.27C1889.25 1234.09 1889.98 1234.78 1890.85 1235.33C1891.73 1235.87 1892.65 1236.31 1893.62 1236.67C1894.58 1237.01 1895.46 1237.28 1896.27 1237.5L1900.69 1238.68C1901.82 1238.98 1903.08 1239.39 1904.47 1239.92C1905.87 1240.44 1907.21 1241.16 1908.49 1242.06C1909.78 1242.95 1910.84 1244.1 1911.67 1245.5C1912.51 1246.91 1912.93 1248.63 1912.93 1250.67C1912.93 1253.02 1912.31 1255.14 1911.08 1257.04C1909.86 1258.94 1908.08 1260.45 1905.73 1261.56C1903.39 1262.68 1900.55 1263.24 1897.21 1263.24C1894.09 1263.24 1891.39 1262.74 1889.11 1261.73C1886.85 1260.73 1885.06 1259.33 1883.76 1257.53C1882.47 1255.73 1881.74 1253.64 1881.57 1251.26H1887.01C1887.15 1252.9 1887.7 1254.26 1888.67 1255.34C1889.64 1256.4 1890.88 1257.2 1892.36 1257.72C1893.86 1258.23 1895.48 1258.48 1897.21 1258.48C1899.22 1258.48 1901.02 1258.16 1902.62 1257.51C1904.22 1256.84 1905.49 1255.92 1906.43 1254.75C1907.36 1253.56 1907.83 1252.17 1907.83 1250.58C1907.83 1249.14 1907.42 1247.96 1906.62 1247.05C1905.81 1246.15 1904.75 1245.41 1903.43 1244.85C1902.11 1244.28 1900.69 1243.78 1899.16 1243.36L1893.81 1241.83C1890.41 1240.85 1887.72 1239.46 1885.74 1237.64C1883.75 1235.83 1882.76 1233.46 1882.76 1230.53C1882.76 1228.09 1883.42 1225.97 1884.74 1224.15C1886.07 1222.33 1887.85 1220.91 1890.09 1219.91C1892.34 1218.89 1894.86 1218.38 1897.63 1218.38C1900.44 1218.38 1902.93 1218.88 1905.11 1219.88C1907.29 1220.88 1909.02 1222.24 1910.29 1223.96C1911.58 1225.69 1912.26 1227.65 1912.33 1229.85H1907.23ZM1940.87 1249.14V1229.85H1945.89V1262.48H1940.87V1256.95H1940.53C1939.77 1258.61 1938.58 1260.02 1936.97 1261.18C1935.35 1262.33 1933.31 1262.9 1930.85 1262.9C1928.81 1262.9 1927 1262.46 1925.41 1261.56C1923.82 1260.66 1922.58 1259.3 1921.67 1257.49C1920.76 1255.66 1920.31 1253.36 1920.31 1250.58V1229.85H1925.32V1250.24C1925.32 1252.62 1925.99 1254.52 1927.32 1255.93C1928.67 1257.35 1930.38 1258.06 1932.46 1258.06C1933.71 1258.06 1934.98 1257.74 1936.26 1257.1C1937.57 1256.47 1938.66 1255.49 1939.54 1254.17C1940.43 1252.85 1940.87 1251.18 1940.87 1249.14ZM1954.47 1274.71V1229.85H1959.32V1235.03H1959.91C1960.28 1234.46 1960.79 1233.74 1961.44 1232.86C1962.11 1231.97 1963.05 1231.18 1964.29 1230.48C1965.53 1229.78 1967.22 1229.42 1969.34 1229.42C1972.09 1229.42 1974.51 1230.11 1976.61 1231.48C1978.7 1232.86 1980.34 1234.8 1981.52 1237.33C1982.69 1239.85 1983.28 1242.82 1983.28 1246.25C1983.28 1249.7 1982.69 1252.7 1981.52 1255.23C1980.34 1257.75 1978.71 1259.71 1976.63 1261.1C1974.55 1262.47 1972.15 1263.16 1969.43 1263.16C1967.33 1263.16 1965.65 1262.81 1964.39 1262.12C1963.13 1261.41 1962.16 1260.61 1961.48 1259.72C1960.8 1258.81 1960.28 1258.06 1959.91 1257.46H1959.49V1274.71H1954.47ZM1959.4 1246.16C1959.4 1248.63 1959.76 1250.8 1960.48 1252.68C1961.21 1254.55 1962.26 1256.02 1963.65 1257.08C1965.04 1258.13 1966.74 1258.65 1968.75 1258.65C1970.84 1258.65 1972.59 1258.1 1974 1257C1975.41 1255.88 1976.47 1254.38 1977.18 1252.49C1977.9 1250.6 1978.27 1248.49 1978.27 1246.16C1978.27 1243.87 1977.91 1241.8 1977.2 1239.96C1976.51 1238.1 1975.45 1236.64 1974.04 1235.56C1972.64 1234.47 1970.87 1233.93 1968.75 1233.93C1966.71 1233.93 1965 1234.44 1963.61 1235.48C1962.22 1236.5 1961.17 1237.93 1960.46 1239.77C1959.76 1241.6 1959.4 1243.73 1959.4 1246.16ZM2004.01 1263.16C2000.87 1263.16 1998.15 1262.46 1995.87 1261.08C1993.61 1259.67 1991.86 1257.72 1990.63 1255.21C1989.41 1252.69 1988.8 1249.76 1988.8 1246.42C1988.8 1243.08 1989.41 1240.13 1990.63 1237.58C1991.86 1235.02 1993.57 1233.02 1995.77 1231.59C1997.98 1230.15 2000.55 1229.42 2003.5 1229.42C2005.2 1229.42 2006.88 1229.71 2008.53 1230.27C2010.19 1230.84 2011.7 1231.76 2013.06 1233.03C2014.42 1234.29 2015.5 1235.97 2016.31 1238.05C2017.12 1240.13 2017.52 1242.69 2017.52 1245.74V1247.86H1992.37V1243.53H2012.42C2012.42 1241.69 2012.05 1240.04 2011.32 1238.6C2010.59 1237.16 2009.56 1236.02 2008.22 1235.18C2006.88 1234.34 2005.31 1233.93 2003.5 1233.93C2001.5 1233.93 1999.77 1234.42 1998.32 1235.41C1996.87 1236.39 1995.76 1237.67 1994.98 1239.24C1994.2 1240.81 1993.81 1242.49 1993.81 1244.29V1247.18C1993.81 1249.65 1994.24 1251.74 1995.09 1253.45C1995.95 1255.15 1997.15 1256.44 1998.68 1257.34C2000.21 1258.21 2001.98 1258.65 2004.01 1258.65C2005.33 1258.65 2006.52 1258.47 2007.58 1258.1C2008.65 1257.72 2009.58 1257.15 2010.36 1256.4C2011.14 1255.64 2011.74 1254.69 2012.17 1253.56L2017.01 1254.92C2016.5 1256.56 2015.64 1258 2014.44 1259.25C2013.24 1260.48 2011.75 1261.44 2009.98 1262.14C2008.21 1262.82 2006.22 1263.16 2004.01 1263.16ZM2024.55 1262.48V1229.85H2029.39V1234.78H2029.73C2030.33 1233.16 2031.4 1231.85 2032.96 1230.85C2034.52 1229.84 2036.27 1229.34 2038.23 1229.34C2038.6 1229.34 2039.06 1229.34 2039.61 1229.36C2040.16 1229.37 2040.58 1229.39 2040.86 1229.42V1234.52C2040.69 1234.48 2040.3 1234.41 2039.7 1234.33C2039.1 1234.23 2038.47 1234.18 2037.8 1234.18C2036.22 1234.18 2034.8 1234.51 2033.56 1235.18C2032.32 1235.83 2031.35 1236.74 2030.62 1237.9C2029.92 1239.05 2029.56 1240.36 2029.56 1241.83V1262.48H2024.55ZM2073.88 1229.85L2061.82 1262.48H2056.72L2044.65 1229.85H2050.09L2059.1 1255.85H2059.44L2068.44 1229.85H2073.88ZM2079.9 1262.48V1229.85H2084.92V1262.48H2079.9ZM2082.45 1224.41C2081.47 1224.41 2080.63 1224.08 2079.92 1223.41C2079.23 1222.75 2078.88 1221.95 2078.88 1221.01C2078.88 1220.08 2079.23 1219.28 2079.92 1218.61C2080.63 1217.94 2081.47 1217.61 2082.45 1217.61C2083.43 1217.61 2084.26 1217.94 2084.96 1218.61C2085.67 1219.28 2086.02 1220.08 2086.02 1221.01C2086.02 1221.95 2085.67 1222.75 2084.96 1223.41C2084.26 1224.08 2083.43 1224.41 2082.45 1224.41ZM2116.61 1237.16L2112.11 1238.43C2111.83 1237.68 2111.41 1236.95 2110.86 1236.24C2110.32 1235.52 2109.58 1234.92 2108.65 1234.46C2107.71 1233.99 2106.52 1233.76 2105.06 1233.76C2103.06 1233.76 2101.4 1234.22 2100.06 1235.14C2098.75 1236.04 2098.09 1237.2 2098.09 1238.6C2098.09 1239.85 2098.54 1240.83 2099.45 1241.55C2100.35 1242.28 2101.77 1242.88 2103.7 1243.36L2108.54 1244.55C2111.46 1245.26 2113.63 1246.34 2115.06 1247.8C2116.49 1249.24 2117.21 1251.11 2117.21 1253.39C2117.21 1255.25 2116.67 1256.93 2115.59 1258.4C2114.53 1259.87 2113.04 1261.03 2111.13 1261.88C2109.22 1262.73 2107 1263.16 2104.46 1263.16C2101.13 1263.16 2098.38 1262.44 2096.2 1260.99C2094.02 1259.55 2092.64 1257.44 2092.06 1254.66L2096.81 1253.47C2097.27 1255.23 2098.12 1256.54 2099.38 1257.42C2100.66 1258.3 2102.32 1258.74 2104.38 1258.74C2106.71 1258.74 2108.57 1258.24 2109.94 1257.25C2111.33 1256.25 2112.02 1255.04 2112.02 1253.64C2112.02 1252.51 2111.63 1251.56 2110.83 1250.79C2110.04 1250.01 2108.82 1249.43 2107.18 1249.05L2101.74 1247.78C2098.75 1247.07 2096.56 1245.97 2095.16 1244.48C2093.77 1242.98 2093.08 1241.11 2093.08 1238.85C2093.08 1237.01 2093.59 1235.39 2094.63 1233.97C2095.67 1232.55 2097.1 1231.44 2098.9 1230.63C2100.71 1229.83 2102.76 1229.42 2105.06 1229.42C2108.29 1229.42 2110.82 1230.13 2112.66 1231.55C2114.52 1232.96 2115.83 1234.83 2116.61 1237.16ZM2137.41 1263.16C2134.47 1263.16 2131.88 1262.46 2129.66 1261.05C2127.45 1259.65 2125.72 1257.69 2124.48 1255.17C2123.24 1252.65 2122.63 1249.7 2122.63 1246.33C2122.63 1242.93 2123.24 1239.97 2124.48 1237.43C2125.72 1234.9 2127.45 1232.93 2129.66 1231.53C2131.88 1230.12 2134.47 1229.42 2137.41 1229.42C2140.36 1229.42 2142.94 1230.12 2145.15 1231.53C2147.37 1232.93 2149.1 1234.9 2150.33 1237.43C2151.57 1239.97 2152.2 1242.93 2152.2 1246.33C2152.2 1249.7 2151.57 1252.65 2150.33 1255.17C2149.1 1257.69 2147.37 1259.65 2145.15 1261.05C2142.94 1262.46 2140.36 1263.16 2137.41 1263.16ZM2137.41 1258.65C2139.65 1258.65 2141.49 1258.08 2142.94 1256.93C2144.38 1255.79 2145.45 1254.28 2146.14 1252.41C2146.84 1250.54 2147.18 1248.51 2147.18 1246.33C2147.18 1244.15 2146.84 1242.12 2146.14 1240.24C2145.45 1238.35 2144.38 1236.83 2142.94 1235.67C2141.49 1234.51 2139.65 1233.93 2137.41 1233.93C2135.17 1233.93 2133.33 1234.51 2131.89 1235.67C2130.44 1236.83 2129.38 1238.35 2128.68 1240.24C2127.99 1242.12 2127.64 1244.15 2127.64 1246.33C2127.64 1248.51 2127.99 1250.54 2128.68 1252.41C2129.38 1254.28 2130.44 1255.79 2131.89 1256.93C2133.33 1258.08 2135.17 1258.65 2137.41 1258.65ZM2159.25 1262.48V1229.85H2164.1V1234.78H2164.44C2165.03 1233.16 2166.11 1231.85 2167.67 1230.85C2169.22 1229.84 2170.98 1229.34 2172.93 1229.34C2173.3 1229.34 2173.76 1229.34 2174.31 1229.36C2174.87 1229.37 2175.28 1229.39 2175.57 1229.42V1234.52C2175.4 1234.48 2175.01 1234.41 2174.4 1234.33C2173.8 1234.23 2173.17 1234.18 2172.51 1234.18C2170.92 1234.18 2169.51 1234.51 2168.26 1235.18C2167.03 1235.83 2166.05 1236.74 2165.33 1237.9C2164.62 1239.05 2164.27 1240.36 2164.27 1241.83V1262.48H2159.25ZM2204.03 1237.16L2199.52 1238.43C2199.24 1237.68 2198.82 1236.95 2198.27 1236.24C2197.73 1235.52 2196.99 1234.92 2196.06 1234.46C2195.12 1233.99 2193.93 1233.76 2192.47 1233.76C2190.47 1233.76 2188.81 1234.22 2187.48 1235.14C2186.16 1236.04 2185.5 1237.2 2185.5 1238.6C2185.5 1239.85 2185.95 1240.83 2186.86 1241.55C2187.77 1242.28 2189.18 1242.88 2191.11 1243.36L2195.95 1244.55C2198.87 1245.26 2201.04 1246.34 2202.47 1247.8C2203.91 1249.24 2204.62 1251.11 2204.62 1253.39C2204.62 1255.25 2204.08 1256.93 2203.01 1258.4C2201.94 1259.87 2200.46 1261.03 2198.54 1261.88C2196.63 1262.73 2194.41 1263.16 2191.87 1263.16C2188.55 1263.16 2185.79 1262.44 2183.61 1260.99C2181.43 1259.55 2180.05 1257.44 2179.47 1254.66L2184.23 1253.47C2184.68 1255.23 2185.54 1256.54 2186.8 1257.42C2188.07 1258.3 2189.74 1258.74 2191.79 1258.74C2194.13 1258.74 2195.98 1258.24 2197.36 1257.25C2198.74 1256.25 2199.44 1255.04 2199.44 1253.64C2199.44 1252.51 2199.04 1251.56 2198.25 1250.79C2197.45 1250.01 2196.24 1249.43 2194.59 1249.05L2189.16 1247.78C2186.17 1247.07 2183.97 1245.97 2182.57 1244.48C2181.18 1242.98 2180.49 1241.11 2180.49 1238.85C2180.49 1237.01 2181 1235.39 2182.04 1233.97C2183.09 1232.55 2184.51 1231.44 2186.31 1230.63C2188.12 1229.83 2190.17 1229.42 2192.47 1229.42C2195.7 1229.42 2198.23 1230.13 2200.07 1231.55C2201.93 1232.96 2203.25 1234.83 2204.03 1237.16Z" fill="#3D77C2"/>
<path d="M2030.62 1476.13C2030.62 1487.87 2040.15 1497.4 2051.89 1497.4C2063.64 1497.4 2073.16 1487.87 2073.16 1476.13C2073.16 1464.38 2063.64 1454.86 2051.89 1454.86C2040.15 1454.86 2030.62 1464.38 2030.62 1476.13ZM2030.62 1547.91C2030.62 1559.66 2040.15 1569.18 2051.89 1569.18C2063.64 1569.18 2073.16 1559.66 2073.16 1547.91C2073.16 1536.17 2063.64 1526.64 2051.89 1526.64C2040.15 1526.64 2030.62 1536.17 2030.62 1547.91ZM2047.9 1476.13L2047.9 1547.91L2055.88 1547.91L2055.88 1476.13L2047.9 1476.13Z" fill="#E5B300"/>
<path d="M2612.23 1759.95C2600.48 1759.95 2590.96 1769.47 2590.96 1781.22C2590.96 1792.97 2600.48 1802.49 2612.23 1802.49C2623.97 1802.49 2633.5 1792.97 2633.5 1781.22C2633.5 1769.47 2623.97 1759.95 2612.23 1759.95ZM2285.2 1759.95C2273.45 1759.95 2263.93 1769.47 2263.93 1781.22C2263.93 1792.97 2273.45 1802.49 2285.2 1802.49C2296.95 1802.49 2306.47 1792.97 2306.47 1781.22C2306.47 1769.47 2296.95 1759.95 2285.2 1759.95ZM2612.23 1777.23H2285.2V1785.21H2612.23V1777.23Z" fill="#E5B300"/>
<path d="M1818.59 1759.95C1806.84 1759.95 1797.32 1769.47 1797.32 1781.22C1797.32 1792.97 1806.84 1802.49 1818.59 1802.49C1830.33 1802.49 1839.86 1792.97 1839.86 1781.22C1839.86 1769.47 1830.33 1759.95 1818.59 1759.95ZM727.834 1759.95C716.087 1759.95 706.564 1769.47 706.564 1781.22C706.564 1792.97 716.087 1802.49 727.834 1802.49C739.581 1802.49 749.104 1792.97 749.104 1781.22C749.104 1769.47 739.581 1759.95 727.834 1759.95ZM1818.59 1777.23H727.834V1785.21H1818.59V1777.23Z" fill="#E5B300"/>
<path d="M1827.72 1762.01C1817.11 1756.97 1804.42 1761.48 1799.38 1772.09C1794.33 1782.7 1798.85 1795.39 1809.46 1800.43C1820.07 1805.47 1832.75 1800.96 1837.8 1790.35C1842.84 1779.74 1838.33 1767.05 1827.72 1762.01ZM938.366 1339.27C927.756 1334.22 915.067 1338.74 910.024 1349.35C904.981 1359.96 909.493 1372.65 920.103 1377.69C930.712 1382.73 943.401 1378.22 948.444 1367.61C953.488 1357 948.975 1344.31 938.366 1339.27ZM1820.3 1777.62L930.946 1354.88L927.522 1362.08L1816.88 1784.82L1820.3 1777.62Z" fill="#E5B300"/>
</g>
</g>
<defs>
<clipPath id="clip0_9_114">
<rect width="4032" height="2268" fill="white"/>
</clipPath>
<clipPath id="clip1_9_114">
<rect width="4032" height="2282" fill="white" transform="translate(0 57)"/>
</clipPath>
</defs>
</svg>
